SplineFontDB: 3.2
FontName: Adenken
FullName: Adenken
FamilyName: Adenken
Weight: Book
Copyright: Adenken (c) 2015, Random Wizard
Version: 1.0 build 2
ItalicAngle: 0
UnderlinePosition: -102
UnderlineWidth: 101
Ascent: 1636
Descent: 412
InvalidEm: 0
sfntRevision: 0x00010000
LayerCount: 2
Layer: 0 1 "Back" 1
Layer: 1 1 "Fore" 0
FSType: 8
OS2Version: 3
OS2_WeightWidthSlopeOnly: 0
OS2_UseTypoMetrics: 1
CreationTime: 1165263488
ModificationTime: 1723340884
PfmFamily: 17
TTFWeight: 400
TTFWidth: 5
LineGap: 0
VLineGap: 0
Panose: 2 12 6 6 4 8 8 2 2 4
OS2TypoAscent: -72
OS2TypoAOffset: 1
OS2TypoDescent: -84
OS2TypoDOffset: 1
OS2TypoLinegap: 136
OS2WinAscent: -243
OS2WinAOffset: 1
OS2WinDescent: -72
OS2WinDOffset: 1
HheadAscent: -243
HheadAOffset: 1
HheadDescent: 72
HheadDOffset: 1
OS2SubXSize: 1434
OS2SubYSize: 1331
OS2SubXOff: 0
OS2SubYOff: 286
OS2SupXSize: 1434
OS2SupYSize: 1331
OS2SupXOff: 0
OS2SupYOff: 976
OS2StrikeYSize: 102
OS2StrikeYPos: 498
OS2Vendor: 'RNWI'
OS2CodePages: 20000081.00000000
OS2UnicodeRanges: a000006f.40000043.00000028.00000000
Lookup: 258 8 0 "'kern' Horizontal Kerning in Latin lookup 0" { "'kern' Horizontal Kerning in Latin lookup 0 subtable"  } ['kern' ('latn' <'dflt' > ) ]
MarkAttachClasses: 1
DEI: 91125
TtTable: prep
NPUSHB
 16
 9
 248
 3
 255
 31
 143
 247
 159
 247
 2
 127
 243
 1
 96
 242
 1
PUSHW_1
 -24
NPUSHB
 43
 235
 12
 16
 70
 223
 51
 221
 85
 222
 255
 220
 85
 48
 221
 1
 221
 1
 3
 85
 220
 3
 250
 31
 48
 194
 1
 111
 192
 239
 192
 2
 252
 182
 24
 31
 48
 183
 1
 96
 183
 128
 183
 2
PUSHW_1
 -64
NPUSHB
 56
 183
 15
 19
 70
 231
 177
 1
 31
 175
 47
 175
 63
 175
 3
 79
 175
 95
 175
 111
 175
 3
 64
 175
 15
 19
 70
 172
 81
 24
 31
 31
 156
 95
 156
 2
 224
 155
 1
 3
 43
 154
 1
 31
 154
 1
 144
 154
 160
 154
 2
 115
 154
 131
 154
 2
 5
PUSHW_1
 -22
NPUSHB
 25
 154
 9
 11
 70
 175
 151
 191
 151
 2
 3
 43
 150
 1
 31
 150
 1
 159
 150
 175
 150
 2
 124
 150
 1
 5
PUSHW_1
 -22
NPUSHB
 133
 150
 9
 11
 70
 47
 146
 63
 146
 79

StartChar: exclam
Encoding: 33 33 1
Width: 531
GlyphClass: 2
Flags: W
HStem: 17 259<132.403 297.406> 1516 20G<224.5 237>
VStem: 86 270<64.0515 220.239> 104 248<666.195 1503.06> 134.75 192.25<479.914 1433>
LayerCount: 2
Fore
SplineSet
331 43 m 0,0,1
 303 17 303 17 253 17 c 128,-1,2
 203 17 203 17 187.5 21 c 128,-1,3
 172 25 172 25 149 44 c 0,4,5
 124 65 124 65 104 110 c 0,6,7
 86 151 86 151 86 182 c 0,8,9
 86 187 86 187 86 191 c 0,10,11
 86 251 86 251 142 270 c 0,12,13
 160 276 160 276 179 276 c 0,14,15
 216 276 216 276 260 254 c 0,16,17
 356 206 356 206 356 137 c 0,18,19
 356 130 356 130 356 124 c 0,20,21
 356 66 356 66 331 43 c 0,0,1
228 432 m 0,22,23
 206 432 206 432 188 460 c 0,24,25
 172 485 172 485 157 604 c 128,-1,26
 142 723 142 723 138.5 746 c 128,-1,27
 135 769 135 769 135 899.5 c 128,-1,28
 135 1030 135 1030 126.5 1061 c 128,-1,29
 118 1092 118 1092 118 1210 c 128,-1,30
 118 1328 118 1328 111 1356.5 c 128,-1,31
 104 1385 104 1385 104 1414 c 0,32,33
 104 1418 104 1418 104 1422 c 0,34,35
 104 1446 104 1446 105 1454 c 128,-1,36
 106 1462 106 1462 112 1475.5 c 128,-1,37
 118 1489 118 1489 124.5 1496.5 c 128,-1,38
 131 1504 131 1504 149 1518 c 0,39,40
 170 1534 170 1534 201 1535 c 0,41,42
 218 1536 218 1536 231 1536 c 0,43,44
 243 1536 243 1536 251 1535 c 0,45,46
 267 1533 267 1533 294 1514 c 128,-1,47
 321 1495 321 1495 336 1464 c 0,48,49
 352 1429 352 1429 352 1379 c 0,50,51
 352 1374 352 1374 352 1368 c 0,52,53
 352 1292 352 1292 342 1231 c 0,54,55
 327 1139 327 1139 327 967 c 0,56,57
 327 797 327 797 308 661 c 128,-1,58
 289 525 289 525 289 496 c 0,59,60
 289 466 289 466 268 448 c 0,61,62
 249 432 249 432 233 432 c 0,63,64
 230 432 230 432 228 432 c 0,22,23
EndSplineSet
Validated: 1
EndChar

StartChar: quotedbl
Encoding: 34 34 2
Width: 841
GlyphClass: 2
Flags: W
HStem: 1032 546
VStem: 165 164<1124.38 1552.6> 226 83.5<1034.73 1180.92> 505 171<1136.83 1555.2> 568 84<1039.98 1184.95>
LayerCount: 2
Fore
SplineSet
594 1032 m 132,-1,1
 582 1032 582 1032 568 1066 c 132,-1,2
 554 1100 554 1100 529.5 1246.5 c 132,-1,3
 505 1393 505 1393 505 1414 c 132,-1,4
 505 1435 505 1435 506 1438.5 c 132,-1,5
 507 1442 507 1442 507 1467 c 132,-1,6
 507 1492 507 1492 526 1525 c 132,-1,7
 545 1558 545 1558 570 1568 c 132,-1,8
 595 1578 595 1578 602 1578 c 6,9,-1
 610 1578 l 5,10,11
 621 1576 621 1576 642 1561 c 132,-1,12
 663 1546 663 1546 669.5 1526 c 132,-1,13
 676 1506 676 1506 676 1496 c 6,14,-1
 676 1437 l 5,15,16
 671 1410 671 1410 671 1392 c 132,-1,17
 671 1374 671 1374 670.5 1373 c 132,-1,18
 670 1372 670 1372 670 1360 c 132,-1,19
 670 1348 670 1348 664.5 1301 c 132,-1,20
 659 1254 659 1254 659 1187 c 4,21,22
 659 1121 659 1121 652 1099 c 4,23,24
 644 1078 644 1078 625 1055 c 132,-1,0
 606 1032 606 1032 594 1032 c 132,-1,1
309.5 1094.5 m 132,-1,26
 302 1073 302 1073 283.5 1050.5 c 132,-1,27
 265 1028 265 1028 252.5 1028 c 132,-1,28
 240 1028 240 1028 226 1062.5 c 132,-1,29
 212 1097 212 1097 188.5 1241 c 132,-1,30
 165 1385 165 1385 165 1412 c 6,31,-1
 165 1443 l 6,32,33
 165 1489 165 1489 183.5 1521 c 132,-1,34
 202 1553 202 1553 227.5 1563.5 c 132,-1,35
 253 1574 253 1574 260 1574 c 6,36,-1
 268 1574 l 6,37,38
 281 1574 281 1574 302.5 1559 c 132,-1,39
 324 1544 324 1544 329 1524 c 132,-1,40
 334 1504 334 1504 334 1481 c 132,-1,41
 334 1458 334 1458 330.5 1429 c 132,-1,42
 327 1400 327 1400 327 1387 c 132,-1,43
 327 1374 327 1374 328 1368 c 132,-1,44
 329 1362 329 1362 329 1351 c 132,-1,45
 329 1340 329 1340 323 1295 c 132,-1,46
 317 1250 317 1250 317 1183 c 132,-1,25
 317 1116 317 1116 309.5 1094.5 c 132,-1,26
EndSplineSet
Validated: 1
EndChar

StartChar: numbersign
Encoding: 35 35 3
Width: 1346
GlyphClass: 2
Flags: W
HStem: 506 172<110.765 414 588 732 916.047 1234.35> 829 170<108.795 414 595.419 744 916 1252.33>
VStem: 414 174<183.114 495 678 828 1008.3 1317.43> 744 172<156.534 501.964 678.719 829 999 1259.48>
LayerCount: 2
Fore
SplineSet
820 138 m 132,-1,1
 810 138 810 138 799.5 145.5 c 132,-1,2
 789 153 789 153 770.5 185 c 132,-1,3
 752 217 752 217 748 245 c 132,-1,4
 744 273 744 273 744 321 c 6,5,-1
 744 425 l 5,6,7
 742 434 742 434 742 455.5 c 132,-1,8
 742 477 742 477 738 484 c 132,-1,9
 734 491 734 491 730 497 c 132,-1,10
 726 503 726 503 722 504 c 132,-1,11
 718 505 718 505 706 507 c 5,12,-1
 684 507 l 5,13,14
 676 506 676 506 662 506 c 6,15,-1
 588 506 l 5,16,-1
 588 358 l 6,17,18
 588 300 588 300 583.5 276 c 132,-1,19
 579 252 579 252 572.5 219.5 c 132,-1,20
 566 187 566 187 555.5 176.5 c 132,-1,21
 545 166 545 166 532.5 162 c 132,-1,22
 520 158 520 158 501.5 158 c 132,-1,23
 483 158 483 158 471.5 168.5 c 132,-1,24
 460 179 460 179 441 209 c 132,-1,25
 422 239 422 239 418 262 c 132,-1,26
 414 285 414 285 414 374 c 6,27,-1
 414 495 l 5,28,-1
 362 501 l 6,29,30
 306 508 306 508 220 508 c 132,-1,31
 134 508 134 508 109.5 520.5 c 132,-1,32
 85 533 85 533 76.5 551.5 c 132,-1,33
 68 570 68 570 68 584 c 132,-1,34
 68 598 68 598 79.5 618.5 c 132,-1,35
 91 639 91 639 133.5 656 c 132,-1,36
 176 673 176 673 278 673 c 6,37,-1
 414 673 l 5,38,-1
 414 828 l 5,39,-1
 294 828 l 6,40,41
 190 828 190 828 147.5 840 c 132,-1,42
 105 852 105 852 94 885 c 4,43,44
 88 903 88 903 88 910 c 4,45,46
 88 951 88 951 144 978 c 4,47,48
 171 991 171 991 199 994.5 c 132,-1,49
 227 998 227 998 298 998 c 6,50,-1
 414 998 l 5,51,-1
 414 1095 l 6,52,53
 414 1200 414 1200 422 1250 c 132,-1,54
 430 1300 430 1300 447 1318 c 132,-1,55
 464 1336 464 1336 480 1336 c 6,56,-1
 500 1336 l 6,57,58
 532 1336 532 1336 548 1319 c 132,-1,59
 564 1302 564 1302 573 1265 c 132,-1,60
 582 1228 582 1228 582 1122.5 c 132,-1,61
 582 1017 582 1017 595 1008 c 132,-1,62
 608 999 608 999 674 999 c 6,63,-1
 748 999 l 5,64,-1
 748 1136 l 6,65,66
 748 1244 748 1244 757 1260 c 132,-1,67
 766 1276 766 1276 783 1296 c 132,-1,68
 800 1316 800 1316 824 1316 c 5,69,-1
 852 1313 l 5,70,71
 863 1310 863 1310 877.5 1293.5 c 132,-1,72
 892 1277 892 1277 901 1245.5 c 132,-1,73
 910 1214 910 1214 910 1107 c 6,74,-1
 910 995 l 5,75,-1
 1070 995 l 5,76,77
 1126 992 1126 992 1165 992 c 132,-1,78
 1204 992 1204 992 1210 986 c 5,79,80
 1234 981 1234 981 1244 973 c 132,-1,81
 1254 965 1254 965 1260 953.5 c 132,-1,82
 1266 942 1266 942 1269 929 c 132,-1,83
 1272 916 1272 916 1272 908.5 c 132,-1,84
 1272 901 1272 901 1268.5 893 c 132,-1,85
 1265 885 1265 885 1243.5 866 c 132,-1,86
 1222 847 1222 847 1198 840 c 132,-1,87
 1174 833 1174 833 1066 833 c 6,88,-1
 916 833 l 5,89,-1
 916 754 l 6,90,91
 916 715 916 715 912 705 c 4,92,93
 908 696 908 696 908 692 c 6,94,-1
 910 677 l 5,95,96
 916 668 916 668 1030.5 668 c 132,-1,97
 1145 668 1145 668 1173.5 664 c 132,-1,98
 1202 660 1202 660 1226 641 c 132,-1,99
 1250 622 1250 622 1250 604 c 132,-1,100
 1250 586 1250 586 1248 574 c 4,101,102
 1242 539 1242 539 1195 520.5 c 132,-1,103
 1148 502 1148 502 1032 502 c 6,104,-1
 916 502 l 5,105,-1
 916 390 l 6,106,107
 916 275 916 275 911 249.5 c 132,-1,108
 906 224 906 224 900 200.5 c 132,-1,109
 894 177 894 177 878 161.5 c 132,-1,110
 862 146 862 146 846 142 c 132,-1,0
 830 138 830 138 820 138 c 132,-1,1
744 800 m 6,111,-1
 744 829 l 5,112,-1
 588 829 l 5,113,-1
 588 678 l 5,114,-1
 732 678 l 5,115,-1
 738 724 l 6,116,117
 744 770 744 770 744 800 c 6,111,-1
EndSplineSet
Validated: 1
EndChar

StartChar: dollar
Encoding: 36 36 4
Width: 1118
GlyphClass: 2
Flags: W
HStem: 1225 125.5<671.738 797.388> 1541 20G<419 629>
VStem: 90 139<968.25 1150.04> 419 210<221.873 610.995 1416.79 1561> 429 212<930.711 1220.36> 819 215<215.73 514.689>
LayerCount: 2
Fore
SplineSet
419 -1 m 2,0,1
 419 35 419 35 399.5 53 c 128,-1,2
 380 71 380 71 304 106.5 c 128,-1,3
 228 142 228 142 182.5 183.5 c 128,-1,4
 137 225 137 225 113 272.5 c 128,-1,5
 89 320 89 320 85 354 c 0,6,7
 80 396 80 396 80 416 c 0,8,9
 80 419 80 419 80 423 c 0,10,11
 80 447 80 447 86 468 c 0,12,13
 93 492 93 492 101 500.5 c 128,-1,14
 109 509 109 509 121 509 c 2,15,-1
 135 509 l 1,16,17
 137 509 137 509 139 509 c 0,18,19
 156 509 156 509 170 491 c 0,20,21
 186 470 186 470 193 424 c 0,22,23
 200 376 200 376 220.5 343 c 128,-1,24
 241 310 241 310 301 265.5 c 128,-1,25
 361 221 361 221 385 221 c 2,26,-1
 409 221 l 1,27,-1
 409 689 l 1,28,-1
 382 708 l 2,29,30
 354 727 354 727 290 757 c 128,-1,31
 226 787 226 787 174 833.5 c 128,-1,32
 122 880 122 880 106 920 c 128,-1,33
 90 960 90 960 90 1033 c 2,34,-1
 90 1066 l 1,35,36
 93 1162 93 1162 113 1216.5 c 128,-1,37
 133 1271 133 1271 175.5 1305 c 128,-1,38
 218 1339 218 1339 296.5 1365 c 128,-1,39
 375 1391 375 1391 397 1416 c 128,-1,40
 419 1441 419 1441 419 1502 c 2,41,-1
 419 1561 l 1,42,-1
 629 1561 l 1,43,-1
 629 1502 l 2,44,45
 629 1461 629 1461 635 1445 c 128,-1,46
 641 1429 641 1429 676 1390 c 128,-1,47
 711 1351 711 1351 722.5 1350.5 c 128,-1,48
 734 1350 734 1350 800 1320 c 0,49,50
 864 1290 864 1290 922 1230 c 128,-1,51
 980 1170 980 1170 994 1124 c 128,-1,52
 1008 1078 1008 1078 1008 1064 c 0,53,-1
 1008 1062 l 0,54,55
 1008 1048 1008 1048 998 1028 c 128,-1,56
 988 1008 988 1008 980 1000 c 128,-1,57
 972 992 972 992 966 991 c 0,58,-1
 965 992 l 0,59,60
 959 992 959 992 950.5 995.5 c 128,-1,61
 942 999 942 999 925 1019 c 128,-1,62
 908 1039 908 1039 883 1078 c 1,63,64
 784 1225 784 1225 705 1225 c 0,65,66
 678 1225 678 1225 667 1220.5 c 128,-1,67
 656 1216 656 1216 648 1199.5 c 128,-1,68
 640 1183 640 1183 640 1166 c 128,-1,69
 640 1149 640 1149 641 1130.5 c 128,-1,70
 642 1112 642 1112 642 1095 c 128,-1,71
 642 1078 642 1078 641.5 1066 c 128,-1,72
 641 1054 641 1054 641 1040 c 128,-1,73
 641 1026 641 1026 641.5 1008.5 c 128,-1,74
 642 991 642 991 642 973.5 c 128,-1,75
 642 956 642 956 645.5 928.5 c 128,-1,76
 649 901 649 901 650 893 c 128,-1,77
 651 885 651 885 660 866.5 c 128,-1,78
 669 848 669 848 674 842.5 c 128,-1,79
 679 837 679 837 697 821 c 128,-1,80
 715 805 715 805 727 796.5 c 128,-1,81
 739 788 739 788 755 777 c 128,-1,82
 771 766 771 766 816.5 734 c 128,-1,83
 862 702 862 702 907.5 655 c 128,-1,84
 953 608 953 608 986 541 c 128,-1,85
 1019 474 1019 474 1026.5 435 c 128,-1,86
 1034 396 1034 396 1034 367.5 c 128,-1,87
 1034 339 1034 339 1026.5 292.5 c 128,-1,88
 1019 246 1019 246 1019 240 c 128,-1,89
 1019 234 1019 234 991.5 203.5 c 128,-1,90
 964 173 964 173 933 134 c 0,91,92
 870 55 870 55 735 30 c 0,93,94
 691 22 691 22 676 15 c 128,-1,95
 661 8 661 8 650 -11 c 2,96,-1
 634 -39 l 1,97,-1
 419 -39 l 1,98,-1
 419 -1 l 2,0,1
819 361.5 m 128,-1,100
 819 426 819 426 813.5 445.5 c 128,-1,101
 808 465 808 465 778.5 509 c 128,-1,102
 749 553 749 553 714.5 582 c 128,-1,103
 680 611 680 611 656 611 c 0,104,105
 647 611 647 611 642.5 590.5 c 128,-1,106
 638 570 638 570 632 485 c 0,107,108
 629 436 629 436 629 384 c 0,109,110
 629 346 629 346 631 306 c 0,111,112
 634 212 634 212 648 196 c 0,113,114
 660 181 660 181 688 181 c 0,115,116
 692 182 692 182 694 182 c 0,117,118
 726 184 726 184 758.5 204 c 128,-1,119
 791 224 791 224 805 260.5 c 128,-1,99
 819 297 819 297 819 361.5 c 128,-1,100
429 1070 m 0,120,121
 429 1190 429 1190 426 1210 c 0,122,123
 423 1232 423 1232 402 1242 c 0,124,125
 392 1247 392 1247 379 1247 c 0,126,127
 364 1247 364 1247 343 1240 c 0,128,129
 306 1227 306 1227 273 1196 c 128,-1,130
 240 1165 240 1165 234.5 1150.5 c 128,-1,131
 229 1136 229 1136 229 1094 c 0,132,133
 229 992 229 992 312 933 c 0,134,135
 342 912 342 912 375 911 c 0,136,137
 377 911 377 911 378 911 c 0,138,139
 409 912 409 912 418 930 c 0,140,141
 429 952 429 952 429 1070 c 0,120,121
EndSplineSet
Validated: 1
EndChar

StartChar: percent
Encoding: 37 37 5
Width: 1398
GlyphClass: 2
Flags: W
HStem: 149 154<952.847 1154.45> 538 160<945.271 1138.63> 806 153<258.864 450.777> 1194 161<275.678 437.813>
VStem: 99 143<1002.9 1177.99> 464 135<994.863 1159.45> 797 137<329.865 529.036> 1164 133<314.773 514.297>
LayerCount: 2
Fore
SplineSet
1100 1367 m 4,0,1
 1137 1367 1137 1367 1160 1362 c 4,2,3
 1188 1356 1188 1356 1203 1346 c 4,4,5
 1216 1337 1216 1337 1216 1327 c 6,6,7
 1216 1316 l 6,8,9
 1216 1313 1216 1313 1210.5 1301 c 132,-1,10
 1205 1289 1205 1289 1126.5 1204 c 132,-1,11
 1048 1119 1048 1119 1004.5 1061 c 132,-1,12
 961 1003 961 1003 870 868 c 132,-1,13
 779 733 779 733 723 668 c 132,-1,14
 667 603 667 603 605 528 c 132,-1,15
 543 453 543 453 508 415 c 132,-1,16
 473 377 473 377 421 290.5 c 132,-1,17
 369 204 369 204 334.5 163.5 c 132,-1,18
 300 123 300 123 285 121 c 5,19,-1
 259 124 l 5,20,21
 246 128 246 128 216 136 c 4,22,23
 185 144 185 144 178 154 c 4,24,25
 170 165 170 165 170 178 c 4,26,27
 170 182 170 182 169 186 c 5,28,29
 169 196 169 196 172 213 c 4,30,31
 175 233 175 233 186 250 c 4,32,33
 196 266 196 266 238 302 c 4,34,35
 280 337 280 337 375 454 c 132,-1,36
 470 571 470 571 495 622 c 132,-1,37
 520 673 520 673 602.5 779.5 c 132,-1,38
 685 886 685 886 736.5 937 c 132,-1,39
 788 988 788 988 864 1091 c 132,-1,40
 940 1194 940 1194 969 1256 c 4,41,42
 997 1318 997 1318 1033.5 1342.5 c 132,-1,43
 1070 1367 1070 1367 1100 1367 c 4,0,1
1297 435.5 m 132,-1,45
 1297 371 1297 371 1283.5 321 c 132,-1,46
 1270 271 1270 271 1230.5 227 c 132,-1,47
 1191 183 1191 183 1133 166 c 132,-1,48
 1075 149 1075 149 1040 149 c 132,-1,49
 1005 149 1005 149 975 158 c 4,50,51
 872 188 872 188 826 283 c 4,52,53
 797 342 797 342 797 394.5 c 132,-1,54
 797 447 797 447 808 490 c 4,55,56
 836 600 836 600 901 649 c 132,-1,57
 966 698 966 698 1046 698 c 4,58,59
 1065 698 1065 698 1112 691.5 c 132,-1,60
 1159 685 1159 685 1191.5 664.5 c 132,-1,61
 1224 644 1224 644 1254 593.5 c 132,-1,62
 1284 543 1284 543 1290.5 521.5 c 132,-1,44
 1297 500 1297 500 1297 435.5 c 132,-1,45
1164 382.5 m 132,-1,64
 1164 415 1164 415 1155 453.5 c 132,-1,65
 1146 492 1146 492 1125 510 c 4,66,67
 1103 528 1103 528 1083 533 c 4,68,69
 1061 538 1061 538 1048 538 c 4,70,71
 1020 538 l 4,72,73
 1003 538 1003 538 988 533 c 4,74,75
 970 527 970 527 955 510 c 4,76,77
 941 494 941 494 937.5 469 c 132,-1,78
 934 444 934 444 934 428 c 4,79,80
 934 410 l 4,81,82
 934 408 934 408 937 389 c 5,83,-1
 948 356 l 5,84,85
 950 345 950 345 982 327 c 4,86,87
 1015 309 1015 309 1030 306 c 4,88,89
 1046 303 1046 303 1077 303 c 4,90,91
 1109 303 1109 303 1136.5 326.5 c 132,-1,63
 1164 350 1164 350 1164 382.5 c 132,-1,64
380 806 m 4,92,93
 372 806 372 806 363 806 c 4,94,95
 357 806 357 806 345 806 c 132,-1,96
 333 806 333 806 283.5 816.5 c 132,-1,97
 234 827 234 827 198.5 854 c 132,-1,98
 163 881 163 881 131 940.5 c 132,-1,99
 99 1000 99 1000 99 1062.5 c 132,-1,100
 99 1125 99 1125 120 1178 c 4,101,102
 170 1304 170 1304 265 1340 c 4,103,104
 305 1355 305 1355 357.5 1355 c 132,-1,105
 410 1355 410 1355 459 1334.5 c 132,-1,106
 508 1314 508 1314 523.5 1298.5 c 132,-1,107
 539 1283 539 1283 563 1241 c 6,108,-1
 599 1176 l 5,109,-1
 599 1069 l 6,110,111
 599 990 599 990 584.5 950 c 132,-1,112
 570 910 570 910 552 891 c 132,-1,113
 534 872 534 872 472 835 c 5,114,115
 435 806 435 806 380 806 c 4,92,93
364 959 m 132,-1,117
 398 959 398 959 421 971 c 132,-1,118
 444 983 444 983 451 994.5 c 132,-1,119
 458 1006 458 1006 461 1031.5 c 132,-1,120
 464 1057 464 1057 464 1072 c 4,121,122
 464 1127 464 1127 434.5 1160.5 c 132,-1,123
 405 1194 405 1194 357 1194 c 4,124,125
 348 1194 348 1194 322 1191 c 4,126,127
 299 1188 299 1188 286 1180 c 132,-1,128
 273 1172 273 1172 258 1140 c 4,129,130
 242 1106 242 1106 242 1099 c 6,131,-1
 242 1048 l 5,132,133
 247 1015 247 1015 258.5 1002.5 c 132,-1,134
 270 990 270 990 300 974.5 c 132,-1,116
 330 959 330 959 364 959 c 132,-1,117
EndSplineSet
Validated: 1
EndChar

StartChar: ampersand
Encoding: 38 38 6
Width: 1472
GlyphClass: 2
Flags: W
HStem: -1 168<536.201 836.428> 1458 99<476.355 698.319>
VStem: 99 235<364.455 759.062> 224 191<1200.85 1402.22> 339 230<944.852 1087.19> 1065.5 143.5<666.508 890.765>
LayerCount: 2
Fore
SplineSet
404 41 m 2,0,1
 343 77 343 77 263 153.5 c 128,-1,2
 183 230 183 230 161 275 c 0,3,4
 137 323 137 323 118 417 c 128,-1,5
 99 511 99 511 99 585 c 0,6,7
 99 671 99 671 122.5 722 c 128,-1,8
 146 773 146 773 224 858 c 0,9,10
 286 926 286 926 312.5 963 c 128,-1,11
 339 1000 339 1000 339 1019 c 0,12,13
 339 1035 339 1035 298 1089 c 0,14,15
 251 1153 251 1153 235 1195 c 0,16,17
 224 1226 224 1226 224 1261 c 0,18,19
 224 1274 224 1274 225 1287 c 0,20,21
 231 1343 231 1343 245 1369 c 0,22,23
 272 1422 272 1422 372 1483.5 c 128,-1,24
 472 1545 472 1545 545 1554 c 0,25,26
 571 1557 571 1557 597 1557 c 0,27,28
 652 1557 652 1557 709 1543 c 0,29,30
 793 1524 793 1524 854 1484 c 128,-1,31
 915 1444 915 1444 934 1394 c 0,32,33
 945 1366 945 1366 945 1337 c 0,34,35
 945 1319 945 1319 941 1300 c 0,36,37
 930 1251 930 1251 897 1223 c 0,38,39
 870 1200 870 1200 852 1199.5 c 128,-1,40
 834 1199 834 1199 803 1218 c 0,41,42
 780 1232 780 1232 768.5 1254.5 c 128,-1,43
 757 1277 757 1277 739 1345 c 0,44,45
 728 1388 728 1388 687.5 1423 c 128,-1,46
 647 1458 647 1458 608 1458 c 0,47,48
 570 1458 570 1458 564.5 1449 c 128,-1,49
 559 1440 559 1440 506 1424 c 0,50,51
 427 1401 427 1401 417 1353 c 0,52,53
 415 1346 415 1346 415 1337 c 0,54,55
 415 1289 415 1289 460 1200 c 0,56,57
 504 1114 504 1114 536.5 1071 c 128,-1,58
 569 1028 569 1028 569 1010 c 0,59,60
 569 987 569 987 544.5 962 c 128,-1,61
 520 937 520 937 481 920 c 0,62,63
 399 885 399 885 367 810.5 c 128,-1,64
 335 736 335 736 334 579 c 0,65,66
 334 492 334 492 338 464 c 0,67,68
 342 435 342 435 361 396 c 0,69,70
 372 371 372 371 396 338.5 c 128,-1,71
 420 306 420 306 443 283 c 0,72,73
 527 199 527 199 625 175 c 0,74,75
 659 167 659 167 692 167 c 0,76,77
 753 167 753 167 810 196 c 0,78,79
 878 230 878 230 917 298 c 0,80,81
 944 344 944 344 945 381 c 0,82,83
 945 398 945 398 939 414 c 0,84,85
 935 425 935 425 904 460.5 c 128,-1,86
 873 496 873 496 834 535 c 0,87,88
 745 624 745 624 712 673 c 128,-1,89
 679 722 679 722 679 764 c 0,90,91
 679 801 679 801 698.5 829.5 c 128,-1,92
 718 858 718 858 743 858 c 0,93,94
 766 858 766 858 795.5 836 c 128,-1,95
 825 814 825 814 901 742 c 0,96,97
 937 708 937 708 967 683 c 128,-1,98
 997 658 997 658 1003 658 c 0,99,100
 1017 658 1017 658 1044 690 c 0,101,102
 1067 717 1067 717 1065.5 748.5 c 128,-1,103
 1064 780 1064 780 1038 834 c 0,104,105
 1020 872 1020 872 1020 901 c 0,106,107
 1020 915 1020 915 1024 927 c 0,108,109
 1037 964 1037 964 1100 1013 c 0,110,111
 1153 1054 1153 1054 1194 1064 c 128,-1,112
 1235 1074 1235 1074 1248 1050 c 0,113,114
 1260 1028 1260 1028 1257.5 997.5 c 128,-1,115
 1255 967 1255 967 1234 883 c 0,116,117
 1209 783 1209 783 1209 755 c 128,-1,118
 1209 727 1209 727 1189 688 c 128,-1,119
 1169 649 1169 649 1169 578 c 0,120,121
 1169 519 1169 519 1179 493 c 128,-1,122
 1189 467 1189 467 1228 423 c 0,123,124
 1243 407 1243 407 1269.5 363.5 c 128,-1,125
 1296 320 1296 320 1319 275 c 2,126,-1
 1374 168 l 1,127,-1
 1350 100 l 2,128,129
 1330 42 1330 42 1313.5 20 c 128,-1,130
 1297 -2 1297 -2 1273 -2 c 2,131,-1
 1271 -2 l 2,132,133
 1255 -2 1255 -2 1247.5 15.5 c 128,-1,134
 1240 33 1240 33 1212 139 c 0,135,136
 1210 146 1210 146 1209 149 c 0,137,138
 1200 181 1200 181 1170 224 c 128,-1,139
 1140 267 1140 267 1114 284 c 0,140,141
 1097 295 1097 295 1089 295.5 c 128,-1,142
 1081 296 1081 296 1064 284 c 0,143,144
 1039 268 1039 268 1023 236 c 0,145,146
 988 168 988 168 933 110 c 128,-1,147
 878 52 878 52 818 20 c 0,148,149
 790 5 790 5 759 2 c 0,150,151
 733 -1 733 -1 655 -1 c 0,152,153
 641 -1 641 -1 626 -1 c 2,154,-1
 474 0 l 1,155,-1
 404 41 l 2,0,1
EndSplineSet
Validated: 1
EndChar

StartChar: quotesingle
Encoding: 39 39 7
Width: 844
GlyphClass: 2
Flags: W
HStem: 1052 532<390.533 468.176>
VStem: 342 160<1109.53 1541>
LayerCount: 2
Fore
SplineSet
399 1073 m 0,0,1
 382 1110 382 1110 362 1232 c 0,2,3
 342 1357 342 1357 342 1426 c 0,4,5
 342 1441 l 0,6,7
 342 1502 342 1502 346 1518 c 0,8,9
 351 1540 351 1540 367 1553 c 0,10,11
 401 1584 401 1584 428 1584 c 0,12,13
 451 1584 451 1584 473 1566 c 2,14,-1
 502 1541 l 1,15,-1
 502 1418 l 1,16,17
 502 1259 502 1259 489 1181 c 128,-1,18
 476 1103 476 1103 460 1081 c 0,19,20
 439 1052 439 1052 422 1052 c 0,21,22
 409 1052 409 1052 399 1073 c 0,0,1
EndSplineSet
Validated: 1
EndChar

StartChar: parenleft
Encoding: 40 40 8
Width: 675
GlyphClass: 2
Flags: W
VStem: 94.5833 234.417<406.543 1138.61>
LayerCount: 2
Fore
SplineSet
428 -224 m 0,0,1
 415 -192 415 -192 345 -75 c 0,2,3
 284 27 284 27 232 141 c 0,4,5
 191 229 191 229 145 386 c 0,6,7
 94.5833 558.333 94.5833 558.333 94.5833 613.868 c 0,8,9
 94.5833 618.917 94.5833 618.917 95 623 c 0,10,11
 86 636 86 636 86 653 c 2,12,-1
 86 830 l 1,13,14
 86 1105 86 1105 241 1352 c 0,15,16
 296 1441 296 1441 328.5 1481.5 c 128,-1,17
 361 1522 361 1522 400 1554 c 0,18,19
 461 1604 461 1604 495 1604 c 0,20,21
 545 1604 545 1604 550 1560 c 0,22,23
 550.264 1557.55 550.264 1557.55 550.264 1554.88 c 0,24,25
 550.264 1517.18 550.264 1517.18 497.5 1435 c 0,26,27
 441 1347 441 1347 425 1316.5 c 0,28,29
 412 1292 412 1292 400 1250 c 0,30,31
 343.5 1054 343.5 1054 343.5 954 c 128,-1,32
 343.5 854 343.5 854 336.25 843.5 c 128,-1,33
 329 833 329 833 329 767 c 0,34,35
 329 622 329 622 347.5 447.5 c 128,-1,36
 366 273 366 273 379 234.5 c 128,-1,37
 392 196 392 196 418.5 74 c 128,-1,38
 445 -48 445 -48 552 -236 c 0,39,40
 592 -306 592 -306 592 -331 c 128,-1,41
 592 -356 592 -356 570.5 -356 c 128,-1,42
 549 -356 549 -356 496 -306 c 0,43,44
 440 -253 440 -253 428 -224 c 0,0,1
EndSplineSet
Validated: 1
EndChar

StartChar: parenright
Encoding: 41 41 9
Width: 655
GlyphClass: 2
Flags: W
HStem: -360 61<86.2461 133.775>
VStem: 284 190<-16.6626 205.4> 318 247<263.885 856.622>
LayerCount: 2
Fore
SplineSet
174 -332 m 128,-1,1
 130 -360 130 -360 107 -360 c 128,-1,2
 84 -360 84 -360 84 -342 c 0,3,4
 84 -338 84 -338 88 -321.5 c 128,-1,5
 92 -305 92 -305 104 -299 c 0,6,7
 155 -275 155 -275 244 -36 c 0,8,9
 284 71 284 71 284 95.5 c 128,-1,10
 284 120 284 120 296 170 c 128,-1,11
 308 220 308 220 313 312.5 c 128,-1,12
 318 405 318 405 318 657 c 128,-1,13
 318 909 318 909 279.5 1087 c 128,-1,14
 241 1265 241 1265 172 1394 c 128,-1,15
 103 1523 103 1523 103 1560 c 128,-1,16
 103 1597 103 1597 120 1597 c 128,-1,17
 137 1597 137 1597 166.5 1573.5 c 128,-1,18
 196 1550 196 1550 222.5 1514 c 128,-1,19
 249 1478 249 1478 308 1376 c 128,-1,20
 367 1274 367 1274 387 1225 c 128,-1,21
 407 1176 407 1176 438.5 1099.5 c 128,-1,22
 470 1023 470 1023 490 973.5 c 128,-1,23
 510 924 510 924 528 810 c 128,-1,24
 546 696 546 696 547 691 c 0,25,26
 565 615 565 615 565 506.5 c 128,-1,27
 565 398 565 398 537 279 c 128,-1,28
 509 160 509 160 491.5 120 c 128,-1,29
 474 80 474 80 474 67.5 c 128,-1,30
 474 55 474 55 445.5 7 c 128,-1,31
 417 -41 417 -41 400.5 -51 c 128,-1,32
 384 -61 384 -61 357 -120.5 c 128,-1,33
 330 -180 330 -180 274 -242 c 128,-1,0
 218 -304 218 -304 174 -332 c 128,-1,1
EndSplineSet
Validated: 1
EndChar

StartChar: asterisk
Encoding: 42 42 10
Width: 1279
GlyphClass: 2
Flags: W
VStem: 540 216<839.099 893.688 1175.09 1478.71> 598 98<976.046 1256.19>
LayerCount: 2
Fore
SplineSet
728 1266.5 m 128,-1,1
 722 1216 722 1216 709 1167.5 c 128,-1,2
 696 1119 696 1119 696 1048 c 0,3,4
 696 976 696 976 706 976 c 128,-1,5
 716 976 716 976 739.5 993.5 c 128,-1,6
 763 1011 763 1011 804 1041 c 128,-1,7
 845 1071 845 1071 917 1124.5 c 128,-1,8
 989 1178 989 1178 1049.5 1202.5 c 128,-1,9
 1110 1227 1110 1227 1131 1227 c 0,10,11
 1153 1227 1153 1227 1165 1217 c 128,-1,12
 1177 1207 1177 1207 1192.5 1174 c 128,-1,13
 1208 1141 1208 1141 1208 1121.5 c 128,-1,14
 1208 1102 1208 1102 1182.5 1068.5 c 128,-1,15
 1157 1035 1157 1035 1129.5 1018 c 128,-1,16
 1102 1001 1102 1001 1055.5 991.5 c 128,-1,17
 1009 982 1009 982 1000 974.5 c 128,-1,18
 991 967 991 967 944 958 c 128,-1,19
 897 949 897 949 831.5 926.5 c 128,-1,20
 766 904 766 904 761 897.5 c 128,-1,21
 756 891 756 891 756 887 c 0,22,23
 756 876 756 876 805.5 832.5 c 128,-1,24
 855 789 855 789 885 774 c 128,-1,25
 915 759 915 759 949.5 728 c 128,-1,26
 984 697 984 697 1009.5 683.5 c 128,-1,27
 1035 670 1035 670 1059 629 c 0,28,29
 1088 579 1088 579 1088 551 c 0,30,31
 1088 522 1088 522 1084.5 513.5 c 128,-1,32
 1081 505 1081 505 1051.5 475.5 c 128,-1,33
 1022 446 1022 446 997 446 c 0,34,35
 969 446 969 446 918 495 c 128,-1,36
 867 544 867 544 824 608 c 128,-1,37
 781 672 781 672 752 711.5 c 128,-1,38
 723 751 723 751 723 756 c 0,39,40
 723 763 723 763 698 800 c 0,41,42
 672 838 672 838 652 838 c 128,-1,43
 632 838 632 838 609.5 804 c 128,-1,44
 587 770 587 770 587 764.5 c 128,-1,45
 587 759 587 759 558.5 719.5 c 128,-1,46
 530 680 530 680 487 616.5 c 128,-1,47
 444 553 444 553 394 505 c 0,48,49
 341 454 341 454 315 454 c 128,-1,50
 289 454 289 454 259.5 483.5 c 128,-1,51
 230 513 230 513 226.5 521.5 c 128,-1,52
 223 530 223 530 223 541 c 0,53,54
 223 551 223 551 226 577 c 128,-1,55
 229 603 229 603 254 641.5 c 128,-1,56
 279 680 279 680 320.5 706.5 c 128,-1,57
 362 733 362 733 374.5 747.5 c 128,-1,58
 387 762 387 762 426 782 c 0,59,60
 463 803 463 803 499 834 c 0,61,62
 540 869 540 869 540 877 c 0,63,64
 540 884 540 884 529.5 894 c 128,-1,65
 519 904 519 904 470.5 913.5 c 128,-1,66
 422 923 422 923 388 935 c 128,-1,67
 354 947 354 947 257 973 c 128,-1,68
 160 999 160 999 97 1047 c 0,69,70
 69 1068 69 1068 69 1093.5 c 128,-1,71
 69 1119 69 1119 83 1149 c 128,-1,72
 97 1179 97 1179 115 1191.5 c 128,-1,73
 133 1204 133 1204 160 1204 c 0,74,75
 265 1204 265 1204 306 1157 c 0,76,77
 319 1142 319 1142 350 1126 c 0,78,79
 383 1110 383 1110 422 1076 c 128,-1,80
 461 1042 461 1042 515.5 1008 c 128,-1,81
 570 974 570 974 584 974 c 128,-1,82
 598 974 598 974 598 993 c 0,83,84
 598 1013 598 1013 571 1155 c 0,85,86
 540 1318 540 1318 540 1389 c 0,87,88
 540 1457 540 1457 552 1480 c 0,89,90
 569 1513 569 1513 626 1513 c 0,91,92
 689 1513 689 1513 707.5 1485 c 128,-1,93
 726 1457 726 1457 735 1415.5 c 128,-1,94
 744 1374 744 1374 744 1359 c 128,-1,95
 744 1344 744 1344 739 1330.5 c 128,-1,0
 734 1317 734 1317 728 1266.5 c 128,-1,1
EndSplineSet
Validated: 1
EndChar

StartChar: plus
Encoding: 43 43 11
Width: 1169
GlyphClass: 2
Flags: W
HStem: 671 178<712.595 1052.42> 687 163<125.808 442.625> 716 102<213.4 499.654 628.719 726>
VStem: 475 176<287.186 622.062> 490 163<874.853 1213.34> 520 96<412.375 706.153 861.095 1221.24>
LayerCount: 2
Fore
SplineSet
211 850 m 0,0,1
 288 850 288 850 338 839 c 0,2,3
 385 829 385 829 421 825 c 0,4,5
 431 824 431 824 443 824 c 0,6,7
 456 824 456 824 470 826 c 0,8,9
 489 829 489 829 500 840 c 0,10,11
 509 849 509 849 513 872 c 0,12,13
 516 892 516 892 515 899 c 0,14,15
 514 904 514 904 514 922 c 0,16,17
 514 942 514 942 500 1014 c 0,18,19
 490 1065 490 1065 490 1108 c 0,20,21
 490 1118 490 1118 490 1118 c 0,22,23
 497 1166 497 1166 515 1192 c 0,24,25
 539 1226 539 1226 579 1236 c 0,26,27
 591 1239 591 1239 601 1239 c 0,28,29
 626 1239 626 1239 637 1222 c 0,30,31
 653 1198 653 1198 653 1131 c 0,32,33
 653 1127 653 1127 653 1122 c 0,34,35
 653 1056 653 1056 634 964 c 0,36,37
 621 901 621 901 621 874 c 0,38,39
 621 864 621 864 622 861 c 0,40,41
 629 841 629 841 660 828 c 0,42,43
 684 818 684 818 709 818 c 0,44,45
 709 818 709 818 726 820 c 0,46,47
 759 824 759 824 817 837 c 0,48,49
 870 849 870 849 919 849 c 0,50,51
 922 849 922 849 926 849 c 0,52,53
 977 849 977 849 1010 834 c 0,54,55
 1042 820 1042 820 1054 802 c 128,-1,56
 1066 784 1066 784 1066 759.5 c 128,-1,57
 1066 735 1066 735 1060 724 c 0,58,59
 1052 712 1052 712 1034 699 c 0,60,61
 995 671 995 671 947 671 c 0,62,63
 910 671 910 671 864 687 c 0,64,65
 808 707 808 707 756 713 c 0,66,67
 731 716 731 716 712 716 c 0,68,69
 687 716 687 716 672 711 c 0,70,71
 644 702 644 702 630 674 c 128,-1,72
 616 646 616 646 616 633.5 c 0,73,74
 616 608 616 608 632 562 c 0,75,76
 644 529 644 529 650 438 c 0,77,78
 651 424 651 424 651 412 c 0,79,80
 651 375 651 375 641 339 c 0,81,82
 632 307 632 307 608.5 289 c 0,83,84
 589 274 589 274 563.5 274 c 128,-1,85
 538 274 538 274 527.5 280 c 128,-1,86
 517 286 517 286 502 306 c 0,87,88
 475 342 475 342 475 393 c 0,89,90
 475 441 475 441 493 487 c 0,91,92
 520 556 520 556 520 611 c 0,93,94
 520 657 520 657 523 675 c 0,95,96
 523 676 523 676 522 684 c 0,97,98
 520 697 520 697 506 707 c 0,99,100
 493 716 493 716 471 716 c 0,101,102
 464 716 464 716 464 716 c 0,103,104
 426 716 426 716 348 700 c 0,105,106
 285 687 285 687 230 687 c 0,107,108
 225 687 225 687 220 687 c 0,109,110
 182 687 182 687 146 712 c 0,111,112
 117 733 117 733 104 776 c 0,113,114
 101 786 101 786 101 798 c 0,115,116
 101 821 101 821 118 834 c 0,117,118
 139 850 139 850 211 850 c 0,0,1
EndSplineSet
Validated: 1
EndChar

StartChar: comma
Encoding: 44 44 12
Width: 531
GlyphClass: 2
Flags: W
HStem: -296 569<138.5 171>
VStem: 192 175<-151.175 29.2691>
LayerCount: 2
Fore
SplineSet
69 -256 m 0,0,1
 69 -253 69 -253 71 -244.5 c 128,-1,2
 73 -236 73 -236 96 -218.5 c 128,-1,3
 119 -201 119 -201 152 -154 c 0,4,5
 180 -114 180 -114 190 -84 c 0,6,7
 192 -78 192 -78 192 -70 c 0,8,9
 192 -51 192 -51 182 -24 c 0,10,11
 167 14 167 14 141 35 c 0,12,13
 81 83 81 83 81 164 c 0,14,15
 81 170 81 170 81 174 c 0,16,17
 81 186 81 186 83.5 199 c 128,-1,18
 86 212 86 212 108.5 238.5 c 128,-1,19
 131 265 131 265 146 269 c 128,-1,20
 161 273 161 273 171 273 c 128,-1,21
 181 273 181 273 197 269.5 c 128,-1,22
 213 266 213 266 216 265 c 0,23,24
 270 253 270 253 308.5 212 c 128,-1,25
 347 171 347 171 357 114.5 c 128,-1,26
 367 58 367 58 367 26 c 128,-1,27
 367 -6 367 -6 358 -45.5 c 128,-1,28
 349 -85 349 -85 333.5 -125.5 c 128,-1,29
 318 -166 318 -166 293 -195 c 128,-1,30
 268 -224 268 -224 219 -256 c 128,-1,31
 170 -288 170 -288 159 -292 c 128,-1,32
 148 -296 148 -296 138.5 -296 c 128,-1,33
 129 -296 129 -296 117 -293 c 0,34,35
 69 -282 69 -282 69 -256 c 0,0,1
EndSplineSet
Validated: 1
EndChar

StartChar: hyphen
Encoding: 45 45 13
Width: 1106
GlyphClass: 2
Flags: W
HStem: 631 162.333<73 991.5> 634 142.5<52.2725 258.764>
LayerCount: 2
Fore
SplineSet
714 631 m 4,0,1
 628 631 628 631 400 627 c 4,2,3
 315 627 l 4,4,5
 286 627 286 627 262 627 c 4,6,7
 158 627 158 627 112 634 c 132,-1,8
 66 641 66 641 48 679 c 4,9,10
 41 693 41 693 41 704 c 4,11,12
 41 725 41 725 62 741 c 4,13,14
 95 766 95 766 140 776.5 c 132,-1,15
 185 787 185 787 281 787 c 4,16,17
 322 792 322 792 624 792 c 4,18,19
 688 793.333 688 793.333 737.333 793.333 c 4,20,21
 762 793.333 762 793.333 783 793 c 4,22,23
 890 792 890 792 936 792 c 4,24,25
 999 792 999 792 1032 777 c 4,26,27
 1061 764 1061 764 1061 751 c 4,28,-1
 1061 745 l 4,29,30
 1061 732 1061 732 1032.5 707 c 132,-1,31
 1004 682 1004 682 983.5 670.5 c 132,-1,32
 963 659 963 659 933.5 647.5 c 132,-1,33
 904 636 904 636 845 636 c 4,34,35
 821 631 821 631 714 631 c 4,0,1
EndSplineSet
Validated: 1
EndChar

StartChar: period
Encoding: 46 46 14
Width: 531
GlyphClass: 2
Flags: W
HStem: -102 258<198.901 330.999>
VStem: 152 238<-54.5088 96.3125>
LayerCount: 2
Fore
SplineSet
190 -48 m 0,0,1
 152 -7 152 -7 152 30.5 c 128,-1,2
 152 68 152 68 168 101 c 0,3,4
 185 134 185 134 213 149 c 0,5,6
 226 156 226 156 240 156 c 0,7,8
 259 156 259 156 283 144 c 0,9,10
 328 122 328 122 352 88 c 0,11,12
 379 49 379 49 384.5 33 c 128,-1,13
 390 17 390 17 390 -23 c 0,14,15
 390 -62 390 -62 374 -78 c 0,16,17
 365 -86 365 -86 331 -100 c 0,18,19
 326 -102 326 -102 306 -102 c 0,20,21
 289 -102 289 -102 266 -98 c 0,22,23
 231 -92 231 -92 190 -48 c 0,0,1
EndSplineSet
Validated: 1
EndChar

StartChar: slash
Encoding: 47 47 15
Width: 1082
GlyphClass: 2
Flags: W
HStem: 1551 20G<919 934.5>
LayerCount: 2
Fore
SplineSet
1007 1542 m 0,0,1
 1054 1512 1054 1512 1054 1492 c 0,2,3
 1054 1492 1054 1492 1054 1481 c 0,4,5
 1054 1457 1054 1457 1032 1414 c 0,6,7
 1011 1372 1011 1372 932 1271 c 0,8,9
 860 1180 860 1180 849 1145 c 0,10,11
 838 1111 838 1111 786 1024 c 0,12,13
 734 938 734 938 712 887.5 c 128,-1,14
 690 837 690 837 688.5 835 c 128,-1,15
 687 833 687 833 624 724.5 c 128,-1,16
 561 616 561 616 557 612 c 0,17,18
 527 579 527 579 502.5 542 c 128,-1,19
 478 505 478 505 433 428 c 128,-1,20
 388 351 388 351 363.5 323 c 128,-1,21
 339 295 339 295 293 189 c 128,-1,22
 247 83 247 83 216 32 c 0,23,24
 180 -26 180 -26 151 -26 c 0,25,26
 147 -26 147 -26 147 -26 c 0,27,28
 134 -29 134 -29 94 -5 c 0,29,30
 51 21 51 21 37 44 c 0,31,32
 27 60 27 60 27 84 c 0,33,34
 27 106 27 106 33 132 c 0,35,36
 48 195 48 195 75 216 c 0,37,38
 135 262 135 262 234 432 c 0,39,40
 334 604 334 604 338 617 c 0,41,42
 359 681 359 681 362 689 c 128,-1,43
 365 697 365 697 448 834 c 1,44,45
 521 964 521 964 530 974 c 0,46,47
 577 1023 577 1023 590.5 1042.5 c 128,-1,48
 604 1062 604 1062 700 1222 c 0,49,50
 795 1380 795 1380 807 1456 c 0,51,52
 813 1494 813 1494 861 1534 c 0,53,54
 905 1571 905 1571 933 1571 c 0,55,56
 936 1571 936 1571 938 1570 c 0,57,58
 977 1561 977 1561 1007 1542 c 0,0,1
EndSplineSet
Validated: 1
EndChar

StartChar: zero
Encoding: 48 48 16
Width: 1159
GlyphClass: 2
Flags: W
HStem: -15.9412 177.941<500.519 727.187>
VStem: 117.455 214.012<357.115 908.927> 818.938 223.502<349.042 999.594>
LayerCount: 2
Fore
SplineSet
494 -6 m 4,0,1
 430 12 430 12 372 45.5 c 132,-1,2
 314 79 314 79 275 122 c 4,3,4
 243 157 243 157 226.5 188.5 c 132,-1,5
 210 220 210 220 178 300 c 4,6,7
 142 393 142 393 135 426.5 c 132,-1,8
 128 460 128 460 122 565 c 4,9,10
 117.455 642.273 117.455 642.273 117.455 679.463 c 4,11,12
 117.455 683.182 117.455 683.182 117.5 686.5 c 4,13,14
 118 723 118 723 126 750 c 4,15,16
 139 795 139 795 155 875 c 4,17,18
 197 1096 197 1096 318 1218 c 6,19,-1
 383 1282 l 5,20,-1
 487 1308 l 5,21,-1
 592 1333 l 5,22,-1
 679 1313 l 6,23,24
 766 1293 766 1293 825 1258 c 132,-1,25
 884 1223 884 1223 901.5 1202 c 132,-1,26
 919 1181 919 1181 938 1124 c 4,27,28
 959 1061 959 1061 991 1011 c 4,29,30
 1021 966 1021 966 1030.5 911 c 132,-1,31
 1040 856 1040 856 1042 705 c 4,32,33
 1042.44 679.667 1042.44 679.667 1042.44 656.123 c 4,34,35
 1042.44 467.778 1042.44 467.778 1014 394 c 4,36,37
 998 353 998 353 974 274 c 4,38,39
 958 222 958 222 944 197.5 c 132,-1,40
 930 173 930 173 894 130 c 4,41,42
 834 60 834 60 771 31.5 c 132,-1,43
 708 3 708 3 578 -15 c 4,44,45
 569.294 -15.9412 569.294 -15.9412 560.035 -15.9412 c 4,46,47
 529.941 -15.9412 529.941 -15.9412 494 -6 c 4,0,1
675 173 m 4,48,49
 703 185 703 185 736.5 214.5 c 132,-1,50
 770 244 770 244 788 271 c 4,51,52
 806 300 806 300 817.5 389 c 4,53,54
 824.649 444.324 824.649 444.324 824.649 486.511 c 4,55,56
 824.649 512.189 824.649 512.189 822 533 c 4,57,58
 818.938 556.625 818.938 556.625 818.938 580.441 c 4,59,60
 818.938 611.062 818.938 611.062 824 642 c 4,61,62
 832.963 693.333 832.963 693.333 832.963 739.355 c 4,63,64
 832.963 749.815 832.963 749.815 832.5 760 c 4,65,66
 830 815 830 815 812 904 c 4,67,68
 793 999 793 999 774.5 1040.5 c 132,-1,69
 756 1082 756 1082 711 1126 c 4,70,71
 684 1153 684 1153 666.5 1162.5 c 132,-1,72
 649 1172 649 1172 620 1176 c 4,73,74
 599.818 1179.27 599.818 1179.27 576.661 1179.27 c 4,75,76
 557.364 1179.27 557.364 1179.27 536 1177 c 4,77,78
 489 1172 489 1172 465 1159 c 132,-1,79
 441 1146 441 1146 417 1108 c 132,-1,80
 393 1070 393 1070 393 1045 c 4,81,82
 393 1015 393 1015 376 972 c 132,-1,83
 359 929 359 929 343 862 c 4,84,85
 331.467 814.818 331.467 814.818 331.467 791.404 c 4,86,87
 331.467 769.067 331.467 769.067 338 728 c 4,88,89
 350 660 350 660 356 520 c 4,90,91
 360 421 360 421 365.5 392.5 c 132,-1,92
 371 364 371 364 391 325 c 4,93,94
 421 267 421 267 465.5 230.5 c 132,-1,95
 510 194 510 194 578 173 c 4,96,97
 614 162 614 162 631 162 c 132,-1,98
 648 162 648 162 675 173 c 4,48,49
EndSplineSet
Validated: 1
EndChar

StartChar: one
Encoding: 49 49 17
Width: 790
GlyphClass: 2
Flags: W
VStem: 283.508 252.731<62.7249 749.29> 317.24 229.6<107.479 228.415 229.989 1071.11>
LayerCount: 2
Fore
SplineSet
323.96 14.5596 m 4,0,1
 310.52 21.8398 310.52 21.8398 299.88 33.2803 c 132,-1,2
 289.24 44.7197 289.24 44.7197 285.88 53.04 c 4,3,4
 283.508 60.3812 283.508 60.3812 283.508 90.4589 c 0,5,6
 283.508 145.601 283.508 145.601 291.479 277.16 c 4,7,8
 303.8 480.479 303.8 480.479 317.24 572 c 4,9,10
 327.948 641.603 327.948 641.603 327.948 677.253 c 0,11,12
 327.948 693.806 327.948 693.806 325.64 703.04 c 4,13,14
 318.359 732.16 318.359 732.16 317.24 912.08 c 4,15,16
 317.24 913.12 317.24 913.12 317.24 915.2 c 4,17,18
 316.12 1068.08 316.12 1068.08 304.92 1095.12 c 132,-1,19
 293.72 1122.16 293.72 1122.16 226.52 1130.48 c 4,20,21
 225.399 1130.48 225.399 1130.48 224.28 1131.52 c 4,22,23
 177.24 1137.76 177.24 1137.76 158.76 1151.28 c 132,-1,24
 140.28 1164.8 140.28 1164.8 140.28 1192.88 c 4,25,26
 140.28 1213.68 140.28 1213.68 162.68 1231.88 c 132,-1,27
 185.08 1250.08 185.08 1250.08 224.28 1261.52 c 4,28,29
 266.84 1272.96 266.84 1272.96 291.479 1289.6 c 4,30,31
 316.12 1305.2 316.12 1305.2 377.16 1326 c 132,-1,32
 438.2 1346.8 438.2 1346.8 472.92 1350.96 c 4,33,34
 481.74 1352.13 481.74 1352.13 489.142 1352.13 c 0,35,36
 501.48 1352.13 501.48 1352.13 509.88 1348.88 c 4,37,38
 523.319 1343.68 523.319 1343.68 547.96 1323.92 c 6,39,-1
 586.04 1289.6 l 5,40,-1
 579.319 1203.28 l 6,41,42
 549.08 811.2 549.08 811.2 546.84 507.52 c 4,43,44
 545.72 301.6 545.72 301.6 538.439 257.92 c 4,45,46
 536.239 244.715 536.239 244.715 536.239 229.514 c 0,47,48
 536.239 194.433 536.239 194.433 547.96 148.72 c 4,49,50
 560.28 101.92 560.28 101.92 561.399 75.9199 c 4,51,52
 561.482 73.9938 561.482 73.9938 561.482 72.1162 c 0,53,54
 561.482 48.6487 561.482 48.6487 548.52 32.7598 c 4,55,56
 534.52 15.5996 534.52 15.5996 507.08 9.35938 c 132,-1,57
 479.64 3.12012 479.64 3.12012 427 0 c 4,58,59
 407.584 -0.924576 407.584 -0.924576 392.926 -0.924576 c 0,60,61
 374.607 -0.924576 374.607 -0.924576 363.72 0.519531 c 4,62,63
 344.12 3.12012 344.12 3.12012 323.96 14.5596 c 4,0,1
EndSplineSet
Validated: 1
EndChar

StartChar: two
Encoding: 50 50 18
Width: 1127
GlyphClass: 2
Flags: W
HStem: 1.74359 195.909<444.005 850.667> 1173 178.66<336.018 594.683>
VStem: 698.489 250.95<760.74 1078.81>
LayerCount: 2
Fore
SplineSet
480 3 m 4,0,1
 241 8 241 8 223 19 c 4,2,3
 185 41 185 41 171.5 78 c 4,4,5
 166.06 92.9104 166.06 92.9104 166.06 106.359 c 0,6,7
 166.06 126.284 166.06 126.284 178 143 c 4,8,9
 191 161 191 161 201 202 c 4,10,11
 213 247 213 247 239 297 c 132,-1,12
 265 347 265 347 296 385 c 4,13,14
 340 439 340 439 422 519 c 132,-1,15
 504 599 504 599 542 626 c 4,16,17
 630 688 630 688 672.5 802.5 c 4,18,19
 698.489 872.518 698.489 872.518 698.489 937.862 c 0,20,21
 698.489 979.374 698.489 979.374 688 1019 c 4,22,23
 673 1075 673 1075 601.5 1124 c 132,-1,24
 530 1173 530 1173 463 1173 c 4,25,26
 394 1173 394 1173 340.5 1132.5 c 132,-1,27
 287 1092 287 1092 259 1019 c 4,28,29
 245 983 245 983 235.5 968.5 c 132,-1,30
 226 954 226 954 211 948 c 4,31,32
 200.545 943.455 200.545 943.455 189.058 943.455 c 0,33,34
 175.273 943.455 175.273 943.455 160 950 c 4,35,36
 132 962 132 962 115 989 c 4,37,38
 103.624 1006.31 103.624 1006.31 103.624 1033.65 c 0,39,40
 103.624 1061.59 103.624 1061.59 115.5 1100 c 4,41,42
 139 1176 139 1176 191 1236.5 c 132,-1,43
 243 1297 243 1297 339.5 1327.5 c 4,44,45
 415.948 1351.66 415.948 1351.66 505.262 1351.66 c 0,46,47
 528.688 1351.66 528.688 1351.66 553 1350 c 4,48,49
 606 1346 606 1346 660 1326 c 132,-1,50
 714 1306 714 1306 783 1264 c 4,51,52
 807 1250 807 1250 854 1183.5 c 132,-1,53
 901 1117 901 1117 926 1062 c 4,54,55
 949.439 1012.1 949.439 1012.1 949.439 938.47 c 0,56,57
 949.439 914.72 949.439 914.72 947 888.5 c 4,58,59
 937 781 937 781 893 709 c 4,60,61
 866 664 866 664 808.5 603 c 132,-1,62
 751 542 751 542 697 502 c 4,63,64
 648 466 648 466 580 407.5 c 132,-1,65
 512 349 512 349 486 333 c 4,66,67
 459 316 459 316 443 288 c 4,68,69
 432.76 270.08 432.76 270.08 432.76 257.485 c 0,70,71
 432.76 250.4 432.76 250.4 436 245 c 4,72,73
 447 224 447 224 476.5 215 c 132,-1,74
 506 206 506 206 579 200 c 4,75,76
 612.764 197.653 612.764 197.653 643.431 197.653 c 0,77,78
 782.611 197.653 782.611 197.653 858 246 c 4,79,80
 884 263 884 263 898.5 267.5 c 4,81,82
 906.176 269.882 906.176 269.882 914.273 269.882 c 0,83,84
 921.471 269.882 921.471 269.882 929 268 c 4,85,86
 961 261 961 261 973.5 241 c 4,87,88
 985.074 222.481 985.074 222.481 985.074 183.387 c 0,89,90
 985.074 180.259 985.074 180.259 985 177 c 4,91,92
 983 54 983 54 930 28 c 4,93,94
 875.846 1.74359 875.846 1.74359 607.602 1.74359 c 0,95,96
 548.923 1.74359 548.923 1.74359 480 3 c 4,0,1
EndSplineSet
Validated: 1
EndChar

StartChar: three
Encoding: 51 51 19
Width: 1127
GlyphClass: 2
Flags: W
HStem: 4.81737 160.812<372.832 648.757> 1174.59 191.04<364.061 615.142>
VStem: 701.153 230<870.719 1095.4> 744.153 234<262.488 546.145>
LayerCount: 2
Fore
SplineSet
930.153 1006.59 m 5,0,-1
 931.153 968.189 l 6,1,2
 931.153 940.349 931.153 940.349 924.153 925.949 c 132,-1,3
 917.153 911.549 917.153 911.549 901.653 888.029 c 132,-1,4
 886.153 864.509 886.153 864.509 875.153 850.589 c 132,-1,5
 864.153 836.669 864.153 836.669 833.153 796.349 c 6,6,-1
 804.153 758.909 l 5,7,-1
 826.153 724.349 l 5,8,9
 847.153 687.869 847.153 687.869 896.153 625.469 c 4,10,11
 978.153 521.789 978.153 521.789 978.153 384.509 c 4,12,13
 978.153 338.429 978.153 338.429 962.153 276.029 c 132,-1,14
 946.153 213.629 946.153 213.629 919.653 175.709 c 132,-1,15
 893.153 137.789 893.153 137.789 830.653 93.6289 c 132,-1,16
 768.153 49.4688 768.153 49.4688 692.153 28.3486 c 4,17,18
 610.153 5.30859 610.153 5.30859 562.653 4.8291 c 4,19,20
 561.494 4.81737 561.494 4.81737 560.313 4.81737 c 0,21,22
 513.139 4.81737 513.139 4.81737 432.653 23.5488 c 4,23,24
 350.153 42.749 350.153 42.749 322.653 56.6689 c 132,-1,25
 295.153 70.5889 295.153 70.5889 239.153 119.069 c 4,26,27
 183.153 168.509 183.153 168.509 159.153 203.069 c 4,28,29
 114.153 269.309 114.153 269.309 114.153 343.229 c 4,30,31
 114.153 388.349 114.153 388.349 130.153 401.789 c 132,-1,32
 146.153 415.229 146.153 415.229 160.153 415.229 c 4,33,34
 202.153 415.229 202.153 415.229 227.153 391.709 c 132,-1,35
 252.153 368.189 252.153 368.189 284.153 311.549 c 132,-1,36
 316.153 254.909 316.153 254.909 351.153 225.629 c 132,-1,37
 386.153 196.349 386.153 196.349 440.153 180.989 c 132,-1,38
 494.153 165.629 494.153 165.629 522.653 165.629 c 132,-1,39
 551.153 165.629 551.153 165.629 580.153 170.909 c 132,-1,40
 609.153 176.189 609.153 176.189 653.653 213.629 c 132,-1,41
 698.153 251.069 698.153 251.069 718.153 293.309 c 4,42,43
 744.153 346.109 744.153 346.109 744.153 366.27 c 132,-1,44
 744.153 386.429 744.153 386.429 742.153 403.709 c 4,45,46
 728.153 513.149 728.153 513.149 700.153 546.749 c 132,-1,47
 672.153 580.349 672.153 580.349 614.653 610.109 c 132,-1,48
 557.153 639.869 557.153 639.869 515.153 645.629 c 4,49,50
 473.153 650.429 473.153 650.429 451.153 661.949 c 4,51,52
 423.153 675.389 423.153 675.389 407.153 721.469 c 4,53,54
 405.553 724.541 405.553 724.541 405.553 727.92 c 0,55,56
 405.553 728.765 405.553 728.765 405.653 729.629 c 4,57,58
 406.153 733.949 406.153 733.949 408.153 740.669 c 132,-1,59
 410.153 747.389 410.153 747.389 416.653 752.669 c 4,60,61
 424.153 757.949 424.153 757.949 442.153 765.629 c 4,62,63
 472.153 779.069 472.153 779.069 534.653 797.309 c 132,-1,64
 597.153 815.549 597.153 815.549 643.653 857.789 c 132,-1,65
 690.153 900.029 690.153 900.029 695.653 931.229 c 132,-1,66
 701.153 962.429 701.153 962.429 701.153 981.629 c 4,67,68
 701.153 1091.07 701.153 1091.07 584.153 1147.71 c 4,69,70
 528.153 1174.59 528.153 1174.59 493.153 1174.59 c 132,-1,71
 458.153 1174.59 458.153 1174.59 425.653 1164.51 c 132,-1,72
 393.153 1154.43 393.153 1154.43 378.153 1142.91 c 132,-1,73
 363.153 1131.39 363.153 1131.39 346.153 1108.35 c 4,74,75
 268.153 999.869 268.153 999.869 239.153 999.869 c 5,76,77
 226.153 1001.79 226.153 1001.79 207.153 1016.19 c 4,78,79
 189.153 1030.59 189.153 1030.59 184.153 1042.11 c 132,-1,80
 179.153 1053.63 179.153 1053.63 179.153 1089.63 c 132,-1,81
 179.153 1125.63 179.153 1125.63 210.153 1188.03 c 132,-1,82
 241.153 1250.43 241.153 1250.43 274.153 1277.79 c 132,-1,83
 307.153 1305.15 307.153 1305.15 392.153 1335.39 c 132,-1,84
 477.153 1365.63 477.153 1365.63 517.653 1365.63 c 132,-1,85
 558.153 1365.63 558.153 1365.63 651.153 1333.95 c 132,-1,86
 744.153 1302.27 744.153 1302.27 781.153 1274.43 c 5,87,88
 852.153 1224.51 852.153 1224.51 910.153 1122.75 c 4,89,90
 930.153 1087.23 930.153 1087.23 930.153 1006.59 c 5,0,-1
EndSplineSet
Validated: 1
EndChar

StartChar: four
Encoding: 52 52 20
Width: 1127
GlyphClass: 2
Flags: W
HStem: 366.6 145.862<295.312 532.891 817.695 1005.54> 1123 231.59<530.964 692.615>
VStem: 69.2 205.8<479.12 742.44> 551 243<127.089 344.675> 597.286 238.714<598.429 1091.53>
LayerCount: 2
Fore
SplineSet
553 2.5 m 132,-1,1
 514 15 514 15 501 31 c 4,2,3
 488.5 47.6667 488.5 47.6667 488.5 70.9306 c 0,4,5
 488.5 75.5833 488.5 75.5833 489 80.5 c 4,6,7
 492 110 492 110 511 132 c 4,8,9
 551 180 551 180 551 262 c 4,10,11
 551 290 551 290 546 302.5 c 132,-1,12
 541 315 541 315 524 331 c 4,13,14
 497 357 497 357 457.5 363 c 4,15,16
 433.8 366.6 433.8 366.6 382.56 366.6 c 0,17,18
 348.4 366.6 348.4 366.6 302 365 c 4,19,20
 270 363.8 270 363.8 244.48 363.8 c 0,21,22
 206.2 363.8 206.2 363.8 182.5 366.5 c 4,23,24
 143 371 143 371 121 385.5 c 132,-1,25
 99 400 99 400 83 431 c 4,26,27
 71 455 71 455 69.5 473 c 4,28,29
 69.2 476.6 69.2 476.6 69.2 481.64 c 0,30,31
 69.2 501.8 69.2 501.8 74 545 c 4,32,33
 91 688 91 688 129 787 c 4,34,35
 146 833 146 833 167 887 c 4,36,37
 187 939 187 939 201 961.5 c 132,-1,38
 215 984 215 984 230 1018 c 4,39,40
 256 1076 256 1076 337.5 1161.5 c 132,-1,41
 419 1247 419 1247 487 1288 c 4,42,43
 597.014 1354.59 597.014 1354.59 689.333 1354.59 c 0,44,45
 692.678 1354.59 692.678 1354.59 696 1354.5 c 4,46,47
 791 1352 791 1352 825 1280 c 4,48,49
 836 1257 836 1257 838 1222.5 c 4,50,51
 838.667 1211 838.667 1211 838.667 1190.22 c 0,52,53
 838.667 1148.67 838.667 1148.67 836 1070 c 4,54,55
 831 894 831 894 820 741 c 4,56,57
 812.882 642 812.882 642 812.882 597.01 c 0,58,59
 812.882 572.471 812.882 572.471 815 564 c 4,60,61
 821 541 821 541 852 526 c 132,-1,62
 883 511 883 511 924 511 c 4,63,64
 976 511 976 511 1006.5 488.5 c 132,-1,65
 1037 466 1037 466 1037 428 c 4,66,67
 1037 400 1037 400 1013.5 386 c 132,-1,68
 990 372 990 372 940 369 c 4,69,70
 877 366 877 366 855.5 360 c 132,-1,71
 834 354 834 354 816 334 c 4,72,73
 802 319 802 319 798 303.5 c 132,-1,74
 794 288 794 288 794 250 c 4,75,76
 794 189 794 189 812 132 c 4,77,78
 829 79 829 79 829 52.5 c 132,-1,79
 829 26 829 26 814 17 c 4,80,81
 802 10 802 10 723 -0.5 c 4,82,83
 650.87 -10.087 650.87 -10.087 619.588 -10.087 c 0,84,85
 616.609 -10.087 616.609 -10.087 614 -10 c 4,86,0
 592 -10 592 -10 553 2.5 c 132,-1,1
484 520 m 4,87,88
 508 524 508 524 520 526.5 c 132,-1,89
 532 529 532 529 544.5 538.5 c 132,-1,90
 557 548 557 548 561.5 557.5 c 132,-1,91
 566 567 566 567 572 591.5 c 132,-1,92
 578 616 578 616 580.5 641 c 132,-1,93
 583 666 583 666 587 715 c 4,94,95
 597.286 838.429 597.286 838.429 597.286 933.939 c 0,96,97
 597.286 949.857 597.286 949.857 597 965 c 4,98,99
 595 1062 595 1062 583.5 1092.5 c 132,-1,100
 572 1123 572 1123 536 1123 c 4,101,102
 512 1123 512 1123 457.5 1055 c 132,-1,103
 403 987 403 987 362 906 c 4,104,105
 330 844 330 844 300 733 c 4,106,107
 275 640.5 275 640.5 275 604.25 c 0,108,109
 275 597 275 597 276 592 c 4,110,111
 280 574 280 574 302.5 549 c 132,-1,112
 325 524 325 524 344 518 c 4,113,114
 358.769 512.462 358.769 512.462 393.988 512.462 c 0,115,116
 396.923 512.462 396.923 512.462 400 512.5 c 4,117,118
 440 513 440 513 484 520 c 4,87,88
EndSplineSet
Validated: 1
EndChar

StartChar: five
Encoding: 53 53 21
Width: 1127
GlyphClass: 2
Flags: W
HStem: -20.1111 193.111<372.219 684.886> 731.487 196.444<400.977 623.521> 731.487 176.43<359.567 500.978> 1113 239.65<516 792.379> 1113 216.34<410.403 766.84>
VStem: 767 241.66<258.212 572.234>
LayerCount: 2
Fore
SplineSet
449 -8 m 4,0,1
 400 5 400 5 356.5 34.5 c 132,-1,2
 313 64 313 64 253.5 122.5 c 132,-1,3
 194 181 194 181 169.5 223.5 c 132,-1,4
 145 266 145 266 139 324 c 4,5,6
 137.364 341.455 137.364 341.455 137.364 352.364 c 0,7,8
 137.364 361.455 137.364 361.455 138.5 366 c 4,9,10
 141 376 141 376 156 386 c 4,11,12
 175.714 399.74 175.714 399.74 194.715 399.74 c 0,13,14
 207.519 399.74 207.519 399.74 220 393.5 c 4,15,16
 251 378 251 378 291 316 c 4,17,18
 334 252 334 252 364.5 224 c 132,-1,19
 395 196 395 196 431.5 184.5 c 132,-1,20
 468 173 468 173 533 173 c 4,21,22
 605 173 605 173 635 184 c 132,-1,23
 665 195 665 195 700 232 c 4,24,25
 738 273 738 273 752.5 305 c 132,-1,26
 767 337 767 337 767 382 c 4,27,28
 767 509 767 509 701 610 c 4,29,30
 677 646 677 646 659 662.5 c 132,-1,31
 641 679 641 679 601 699 c 4,32,33
 536.838 731.487 536.838 731.487 476.633 731.487 c 0,34,35
 388.584 731.487 388.584 731.487 309 662 c 4,36,37
 279 636 279 636 244 636 c 4,38,39
 219 636 219 636 209.5 642.5 c 132,-1,40
 200 649 200 649 182 678 c 4,41,42
 154.519 721.61 154.519 721.61 154.519 775.214 c 0,43,44
 154.519 811.338 154.519 811.338 167 852 c 4,45,46
 180 892 180 892 194.5 1000 c 132,-1,47
 209 1108 209 1108 222.5 1163.5 c 132,-1,48
 236 1219 236 1219 236 1254 c 4,49,50
 236 1314 236 1314 291 1342 c 4,51,52
 310 1352 310 1352 326 1352 c 132,-1,53
 342 1352 342 1352 395 1341 c 4,54,55
 455.069 1329.34 455.069 1329.34 556.132 1329.34 c 0,56,57
 567.793 1329.34 567.793 1329.34 580 1329.5 c 4,58,59
 698 1331 698 1331 750 1346 c 4,60,61
 772.442 1352.65 772.442 1352.65 792.379 1352.65 c 0,62,63
 820.416 1352.65 820.416 1352.65 843.5 1339.5 c 4,64,65
 883 1317 883 1317 883 1272 c 4,66,67
 883 1244 883 1244 867 1223.5 c 132,-1,68
 851 1203 851 1203 811 1180 c 4,69,70
 738 1139 738 1139 680 1126 c 132,-1,71
 622 1113 622 1113 516 1113 c 4,72,73
 438 1113 438 1113 409.5 1100 c 132,-1,74
 381 1087 381 1087 365 1045 c 4,75,76
 354.111 1017 354.111 1017 354.111 989.907 c 0,77,78
 354.111 982.167 354.111 982.167 355 974.5 c 4,79,80
 359 940 359 940 378 921 c 4,81,82
 390 909 390 909 399 908 c 4,83,84
 399.75 907.917 399.75 907.917 400.66 907.917 c 0,85,86
 410.667 907.917 410.667 907.917 440 918 c 4,87,88
 469.793 927.931 469.793 927.931 501.983 927.931 c 0,89,90
 508.69 927.931 508.69 927.931 515.5 927.5 c 4,91,92
 555 925 555 925 587 909 c 4,93,94
 610 897 610 897 671 883 c 4,95,96
 728 870 728 870 759 854 c 132,-1,97
 790 838 790 838 830 800 c 4,98,99
 891 743 891 743 934 662.5 c 132,-1,100
 977 582 977 582 995.5 497.5 c 4,101,102
 1008.66 437.375 1008.66 437.375 1008.66 377.25 c 0,103,104
 1008.66 352.875 1008.66 352.875 1006.5 328.5 c 4,105,106
 999 244 999 244 965 180 c 4,107,108
 949 151 949 151 913 112 c 132,-1,109
 877 73 877 73 835 40 c 4,110,111
 810 20 810 20 790.5 12.5 c 132,-1,112
 771 5 771 5 742 2 c 4,113,114
 691 -3 691 -3 623 -13 c 4,115,116
 567 -20.1111 567 -20.1111 532.728 -20.1111 c 0,117,118
 528.444 -20.1111 528.444 -20.1111 524.5 -20 c 4,119,120
 489 -19 489 -19 449 -8 c 4,0,1
EndSplineSet
Validated: 1
EndChar

StartChar: six
Encoding: 54 54 22
Width: 1150
GlyphClass: 2
Flags: W
HStem: -8.69565 188.629<446.761 672.119> 781.291 169.991<424.663 684.484> 1243 143<730.958 868.353>
VStem: 115.927 224.973<328.422 696.6> 772 240.12<256.061 681.863>
LayerCount: 2
Fore
SplineSet
455 4 m 0,0,1
 367 28 367 28 284 106 c 0,2,3
 229 158 229 158 196 229.5 c 128,-1,4
 163 301 163 301 137 424 c 0,5,6
 115.927 525.854 115.927 525.854 115.927 631.99 c 0,7,8
 115.927 707.171 115.927 707.171 126.5 784.5 c 0,9,10
 152 971 152 971 231 1113 c 0,11,12
 260 1165 260 1165 329.5 1228 c 128,-1,13
 399 1291 399 1291 462 1321 c 0,14,15
 547 1362 547 1362 600.5 1375.5 c 128,-1,16
 654 1389 654 1389 729 1389 c 0,17,18
 792 1389 792 1389 811.5 1386 c 128,-1,19
 831 1383 831 1383 844 1371 c 0,20,21
 866 1352 866 1352 877.5 1322.5 c 128,-1,22
 889 1293 889 1293 881 1279 c 0,23,24
 872 1262 872 1262 817 1243 c 128,-1,25
 762 1224 762 1224 706 1219 c 0,26,27
 627 1212 627 1212 584.5 1184.5 c 128,-1,28
 542 1157 542 1157 456 1059 c 0,29,30
 422 1020 422 1020 412.5 1002.5 c 128,-1,31
 403 985 403 985 403 962 c 0,32,33
 403 938 403 938 406.5 932 c 128,-1,34
 410 926 410 926 424 926 c 0,35,36
 445 926 445 926 494 940.5 c 0,37,38
 530.436 951.282 530.436 951.282 591.201 951.282 c 0,39,40
 612.154 951.282 612.154 951.282 636 950 c 0,41,42
 704 946 704 946 724.5 940.5 c 128,-1,43
 745 935 745 935 787 907 c 0,44,45
 851 865 851 865 907 796 c 128,-1,46
 963 727 963 727 978 669 c 0,47,48
 1006 565 1006 565 1010.5 522 c 0,49,50
 1012.12 506.52 1012.12 506.52 1012.12 486.504 c 0,51,52
 1012.12 450.92 1012.12 450.92 1007 401 c 0,53,54
 996 300 996 300 981 278 c 128,-1,55
 966 256 966 256 942 206 c 128,-1,56
 918 156 918 156 888 123 c 128,-1,57
 858 90 858 90 802 52 c 0,58,59
 740 10 740 10 688 0 c 0,60,61
 641.913 -8.69565 641.913 -8.69565 582.972 -8.69565 c 0,62,63
 574.13 -8.69565 574.13 -8.69565 565 -8.5 c 0,64,65
 495 -7 495 -7 455 4 c 0,0,1
673 195 m 0,66,67
 728 223 728 223 750 289 c 128,-1,68
 772 355 772 355 772 490 c 0,69,70
 772 556 772 556 768.5 581 c 128,-1,71
 765 606 765 606 750 638 c 0,72,73
 725 692 725 692 699.5 721.5 c 128,-1,74
 674 751 674 751 640 766 c 0,75,76
 603.618 781.291 603.618 781.291 560.286 781.291 c 0,77,78
 521.436 781.291 521.436 781.291 477 769 c 0,79,80
 432 757 432 757 417.5 744.5 c 128,-1,81
 403 732 403 732 377 681 c 0,82,83
 340.9 609.433 340.9 609.433 340.9 522.624 c 0,84,85
 340.9 472.367 340.9 472.367 353 417 c 0,86,87
 395 228 395 228 498 193 c 0,88,89
 534.4 179.933 534.4 179.933 583.867 179.933 c 0,90,91
 587.4 179.933 587.4 179.933 591 180 c 0,92,93
 645 181 645 181 673 195 c 0,66,67
EndSplineSet
Validated: 1
EndChar

StartChar: seven
Encoding: 55 55 23
Width: 1127
GlyphClass: 2
Flags: W
HStem: 1176 197<322.457 720.657>
VStem: 423.684 336.358<22.1562 269.455> 423.684 300.816<49.0288 347.266>
LayerCount: 2
Fore
SplineSet
502 7 m 4,0,1
 472 16 472 16 451 35 c 132,-1,2
 430 54 430 54 425 79 c 4,3,4
 423.684 85.0526 423.684 85.0526 423.684 96.126 c 0,5,6
 423.684 127.132 423.684 127.132 434 197.5 c 4,7,8
 448 293 448 293 463 332 c 4,9,10
 477 370 477 370 493 428.5 c 132,-1,11
 509 487 509 487 520 519 c 4,12,13
 567 651 567 651 588 726 c 4,14,15
 604 785 604 785 632.5 847.5 c 132,-1,16
 661 910 661 910 673 946 c 132,-1,17
 685 982 685 982 703 1008 c 132,-1,18
 721 1034 721 1034 728.5 1069.5 c 4,19,20
 731.909 1085.64 731.909 1085.64 731.909 1097.95 c 0,21,22
 731.909 1112.73 731.909 1112.73 727 1122 c 4,23,24
 698 1176 698 1176 566 1176 c 4,25,26
 496 1176 496 1176 412.5 1158.5 c 132,-1,27
 329 1141 329 1141 308 1123 c 4,28,29
 271 1089 271 1089 226.5 1085 c 4,30,31
 220.938 1084.5 220.938 1084.5 215.633 1084.5 c 0,32,33
 178.5 1084.5 178.5 1084.5 154 1109 c 4,34,35
 138 1125 138 1125 135 1138 c 4,36,37
 133.5 1144.5 133.5 1144.5 133.5 1158 c 128,-1,38
 133.5 1171.5 133.5 1171.5 135 1192 c 4,39,40
 139 1252 139 1252 161 1297 c 4,41,42
 180 1337 180 1337 200 1348 c 4,43,44
 235 1369 235 1369 375 1371 c 4,45,46
 432 1372 432 1372 586 1373 c 4,47,48
 812 1373 812 1373 865 1370.5 c 132,-1,49
 918 1368 918 1368 941 1356 c 4,50,51
 965 1344 965 1344 981 1322 c 132,-1,52
 997 1300 997 1300 997 1279 c 4,53,54
 997 1266 997 1266 957 1146.5 c 132,-1,55
 917 1027 917 1027 903 972 c 132,-1,56
 889 917 889 917 871.5 877.5 c 132,-1,57
 854 838 854 838 830.5 737.5 c 132,-1,58
 807 637 807 637 798 613 c 132,-1,59
 789 589 789 589 776.5 533.5 c 132,-1,60
 764 478 764 478 745 410 c 4,61,62
 724.5 337 724.5 337 724.5 271.5 c 128,-1,63
 724.5 206 724.5 206 745 148 c 4,64,65
 760.042 103.667 760.042 103.667 760.042 75.0017 c 0,66,67
 760.042 67.4583 760.042 67.4583 759 61 c 4,68,69
 754 30 754 30 722 15 c 4,70,71
 697 3 697 3 616 0 c 4,72,73
 597.308 -0.692308 597.308 -0.692308 581.172 -0.692308 c 0,74,75
 527.385 -0.692308 527.385 -0.692308 502 7 c 4,0,1
EndSplineSet
Validated: 1
EndChar

StartChar: eight
Encoding: 56 56 24
Width: 1127
GlyphClass: 2
Flags: W
HStem: -6.5 181.5<452.435 732.47> 624.511 234.61<487.005 611.399> 1213.5 158.27<398.528 638.625>
VStem: 123.484 220.448<293.258 554.026> 149 216<973.001 1181.91> 725 232.517<884.891 1120.35>
LayerCount: 2
Fore
SplineSet
531 0 m 4,0,1
 343 42 343 42 232 154 c 4,2,3
 190 196 190 196 177 217.5 c 132,-1,4
 164 239 164 239 147 295 c 4,5,6
 123.484 374.258 123.484 374.258 123.484 416.725 c 0,7,8
 123.484 423.016 123.484 423.016 124 428.5 c 4,9,10
 128 471 128 471 175 569 c 4,11,12
 190 600 190 600 250 664 c 132,-1,13
 310 728 310 728 310 738 c 4,14,15
 310 745 310 745 291 774.5 c 132,-1,16
 272 804 272 804 201 909 c 4,17,18
 177 944 177 944 163 988.5 c 132,-1,19
 149 1033 149 1033 149 1073 c 4,20,21
 149 1111 149 1111 186 1211 c 4,22,23
 196 1237 196 1237 255 1280 c 132,-1,24
 314 1323 314 1323 369 1345 c 4,25,26
 430 1369 430 1369 508 1371.5 c 4,27,28
 516.298 1371.77 516.298 1371.77 524.347 1371.77 c 0,29,30
 591.957 1371.77 591.957 1371.77 642 1353 c 4,31,32
 689 1335 689 1335 714 1335 c 4,33,34
 740 1335 740 1335 782 1307 c 132,-1,35
 824 1279 824 1279 869 1231 c 4,36,37
 900 1198 900 1198 913.5 1175.5 c 132,-1,38
 927 1153 927 1153 939 1113 c 4,39,40
 957 1055 957 1055 957.5 1024.5 c 4,41,42
 957.517 1023.45 957.517 1023.45 957.517 1022.37 c 0,43,44
 957.517 992.034 957.517 992.034 944 937 c 4,45,46
 934 895 934 895 912 854 c 132,-1,47
 890 813 890 813 878 813 c 4,48,49
 868 813 868 813 841 783 c 132,-1,50
 814 753 814 753 814 742 c 4,51,52
 814 728 814 728 868 669 c 4,53,54
 941 589 941 589 964.5 545 c 132,-1,55
 988 501 988 501 1008 400 c 6,56,-1
 1023 327 l 5,57,-1
 998 249 l 6,58,59
 983 202 983 202 970 177.5 c 132,-1,60
 957 153 957 153 933 127 c 4,61,62
 893 84 893 84 874 78.5 c 132,-1,63
 855 73 855 73 805 43 c 4,64,65
 756 13 756 13 672.5 0 c 4,66,67
 630.75 -6.5 630.75 -6.5 595.375 -6.5 c 128,-1,68
 560 -6.5 560 -6.5 531 0 c 4,0,1
697 190 m 4,69,70
 710 197 710 197 728 214.5 c 132,-1,71
 746 232 746 232 758 250 c 4,72,73
 788.682 295 788.682 295 788.682 344.184 c 0,74,75
 788.682 367.136 788.682 367.136 782 391 c 4,76,77
 761 466 761 466 679 534 c 4,78,79
 625 579 625 579 615 579 c 132,-1,80
 605 579 605 579 575.5 601.5 c 132,-1,81
 546 624 546 624 510.5 624.5 c 4,82,83
 509.711 624.511 509.711 624.511 508.926 624.511 c 0,84,85
 474.4 624.511 474.4 624.511 448 603 c 4,86,87
 423 582 423 582 402 571 c 4,88,89
 380 560 380 560 362.5 517 c 132,-1,90
 345 474 345 474 344 432 c 4,91,92
 343.932 429.436 343.932 429.436 343.932 426.867 c 0,93,94
 343.932 354.299 343.932 354.299 398.5 278 c 4,95,96
 455 199 455 199 521 183 c 4,97,98
 553.8 175 553.8 175 595.88 175 c 0,99,100
 606.4 175 606.4 175 617.5 175.5 c 4,101,102
 673 178 673 178 697 190 c 4,69,70
662 871 m 132,-1,104
 685 883 685 883 705 918 c 132,-1,105
 725 953 725 953 725 981 c 4,106,107
 725 1006 725 1006 711 1057 c 4,108,109
 700 1096 700 1096 670.5 1134 c 132,-1,110
 641 1172 641 1172 602 1198 c 4,111,112
 578.727 1213.52 578.727 1213.52 522.073 1213.52 c 0,113,-1
 518.5 1213.5 l 4,114,115
 459 1213 459 1213 429 1197 c 4,116,117
 404 1184 404 1184 384.5 1147.5 c 132,-1,118
 365 1111 365 1111 365 1079 c 4,119,120
 365 1026 365 1026 414.5 967 c 132,-1,121
 464 908 464 908 531 881 c 4,122,123
 579 862 579 862 607 859.5 c 4,124,125
 611.242 859.121 611.242 859.121 615.462 859.121 c 0,126,103
 639.091 859.121 639.091 859.121 662 871 c 132,-1,104
EndSplineSet
Validated: 1
EndChar

StartChar: nine
Encoding: 57 57 25
Width: 1095
GlyphClass: 2
Flags: W
HStem: -1 134.5<272.759 416.637> 432.438 189.062<468.819 674.012> 1200.84 162.96<413.969 592.683>
VStem: 105.256 241.716<736.312 1134.58> 742.053 249.476<699.555 1047.12>
LayerCount: 2
Fore
SplineSet
355 -1 m 0,0,1
 296 5 296 5 272 27 c 128,-1,2
 248 49 248 49 248 95 c 0,3,4
 248 120 248 120 278.5 133.5 c 128,-1,5
 309 147 309 147 409 166 c 0,6,7
 530 189 530 189 549 201 c 0,8,9
 573 217 573 217 619 264 c 128,-1,10
 665 311 665 311 675 331 c 0,11,12
 688 356 688 356 694 388 c 0,13,14
 698 407 698 407 695 416 c 128,-1,15
 692 425 692 425 677.5 431 c 128,-1,16
 663 437 663 437 634.5 436.5 c 128,-1,17
 606 436 606 436 557 434 c 1,18,19
 524.5 432.438 524.5 432.438 497.225 432.438 c 0,20,21
 437.219 432.438 437.219 432.438 402.5 440 c 0,22,23
 352 451 352 451 298 489 c 0,24,25
 232 536 232 536 201 574.5 c 128,-1,26
 170 613 170 613 143 680 c 0,27,28
 119 737 119 737 113.5 766 c 128,-1,29
 108 795 108 795 106 881 c 0,30,31
 105.256 903.512 105.256 903.512 105.256 924.327 c 0,32,33
 105.256 1015.4 105.256 1015.4 119.5 1074 c 0,34,35
 137 1146 137 1146 187 1217 c 0,36,37
 211 1250 211 1250 267.5 1283.5 c 128,-1,38
 324 1317 324 1317 388 1334 c 0,39,40
 484 1361 484 1361 527 1363.5 c 0,41,42
 532.244 1363.8 532.244 1363.8 537.934 1363.8 c 0,43,44
 578.902 1363.8 578.902 1363.8 643 1348 c 0,45,46
 701 1334 701 1334 722.5 1323.5 c 128,-1,47
 744 1313 744 1313 776 1282 c 0,48,49
 840 1223 840 1223 898 1134.5 c 128,-1,50
 956 1046 956 1046 963 996 c 0,51,52
 969 949 969 949 982 897 c 0,53,54
 991.529 860.471 991.529 860.471 991.529 794.932 c 0,55,56
 991.529 736.676 991.529 736.676 984 655.5 c 0,57,58
 968 483 968 483 939 427 c 0,59,60
 925 400 925 400 919 373 c 0,61,62
 911 339 911 339 858 255 c 128,-1,63
 805 171 805 171 769 135 c 0,64,65
 750 116 750 116 722 95.5 c 128,-1,66
 694 75 694 75 673 64 c 0,67,68
 622 38 622 38 595 23 c 0,69,70
 565 7 565 7 491 -0.5 c 0,71,72
 452.724 -4.37931 452.724 -4.37931 417.659 -4.37931 c 0,73,74
 384.931 -4.37931 384.931 -4.37931 355 -1 c 0,0,1
630 633 m 0,75,76
 692 659 692 659 725 766 c 0,77,78
 742.053 820.947 742.053 820.947 742.053 866.471 c 0,79,80
 742.053 869 742.053 869 742 871.5 c 0,81,82
 741 919 741 919 721 985 c 0,83,84
 705 1037 705 1037 691.5 1057.5 c 128,-1,85
 678 1078 678 1078 627 1126 c 0,86,87
 561 1189 561 1189 530.5 1198.5 c 0,88,89
 522.974 1200.84 522.974 1200.84 514.322 1200.84 c 0,90,91
 487.909 1200.84 487.909 1200.84 451 1179 c 0,92,93
 404 1152 404 1152 389 1136 c 0,94,95
 348 1091 348 1091 347 979.5 c 0,96,97
 346.972 976.403 346.972 976.403 346.972 973.311 c 0,98,99
 346.972 865.111 346.972 865.111 381 764 c 0,100,101
 416 660 416 660 468 635 c 0,102,103
 494 622 494 622 547 621.5 c 0,104,105
 549.12 621.48 549.12 621.48 551.203 621.48 c 0,106,107
 601.2 621.48 601.2 621.48 630 633 c 0,75,76
EndSplineSet
Validated: 1
EndChar

StartChar: colon
Encoding: 58 58 26
Width: 1127
GlyphClass: 2
Flags: W
HStem: 209 257<464.004 595.331> 961 257<456.004 587.331>
VStem: 415 238<257.771 407.171 1001.81 1148.98>
LayerCount: 2
Fore
SplineSet
545 211 m 0,0,1
 491 223 491 223 453 264 c 128,-1,2
 415 305 415 305 415 351 c 0,3,4
 415 380 415 380 431.5 413 c 128,-1,5
 448 446 448 446 469 457 c 0,6,7
 486 466 486 466 505 466 c 128,-1,8
 524 466 524 466 546 457 c 0,9,10
 588 438 588 438 625 386 c 0,11,12
 642 362 642 362 647.5 345 c 128,-1,13
 653 328 653 328 653 299 c 0,14,15
 653 251 653 251 635 233 c 0,16,17
 621 219 621 219 594 212 c 0,18,19
 579 208 579 208 565 209 c 0,20,21
 554 209 554 209 545 211 c 0,0,1
537 963 m 0,22,23
 483 975 483 975 445 1016 c 128,-1,24
 407 1057 407 1057 407 1103 c 0,25,26
 407 1132 407 1132 423.5 1165 c 128,-1,27
 440 1198 440 1198 461 1209 c 0,28,29
 478 1218 478 1218 497 1218 c 128,-1,30
 516 1218 516 1218 538 1209 c 0,31,32
 580 1190 580 1190 617 1138 c 0,33,34
 634 1114 634 1114 639.5 1097 c 128,-1,35
 645 1080 645 1080 645 1051 c 0,36,37
 645 1003 645 1003 627 985 c 0,38,39
 613 971 613 971 586 964 c 0,40,41
 571 960 571 960 557 961 c 0,42,43
 546 961 546 961 537 963 c 0,22,23
EndSplineSet
Validated: 1
EndChar

StartChar: semicolon
Encoding: 59 59 27
Width: 1026
GlyphClass: 2
Flags: W
HStem: 961 257<456.004 585.997>
VStem: 407 238<1009.77 1157.56> 512 175<50.16 230.148>
LayerCount: 2
Fore
SplineSet
437 -92 m 4,0,1
 389 -81 389 -81 389 -55 c 4,2,3
 389 -52 389 -52 390 -48 c 4,4,5
 393 -35 393 -35 416 -17.5 c 132,-1,6
 439 0 439 0 472 47 c 4,7,8
 507 96 507 96 510 117 c 4,9,10
 511 123 511 123 512 131 c 4,11,12
 512 151 512 151 501 178 c 4,13,14
 486 215 486 215 461 236 c 4,15,16
 401 286 401 286 401 365 c 4,17,18
 401 374 401 374 401 381 c 4,19,20
 401 390 401 390 402 394 c 4,21,22
 407 414 407 414 428 440 c 4,23,24
 453 468 453 468 471 472 c 4,25,26
 481 474 481 474 492 474 c 4,27,28
 502 474 502 474 512 472 c 4,29,30
 527 469 527 469 536 466 c 4,31,32
 590 454 590 454 628.5 413.5 c 132,-1,33
 667 373 667 373 680 298 c 4,34,35
 687 259 687 259 687 226 c 4,36,37
 687 196 687 196 681 170 c 4,38,39
 669 116 669 116 653.5 75.5 c 132,-1,40
 638 35 638 35 613 6 c 132,-1,41
 588 -23 588 -23 539 -54.5 c 132,-1,42
 490 -86 490 -86 475 -92 c 4,43,44
 468 -95 468 -95 458.5 -95 c 132,-1,45
 449 -95 449 -95 437 -92 c 4,0,1
537 963 m 4,46,47
 483 975 483 975 445 1016 c 132,-1,48
 407 1057 407 1057 407 1103 c 4,49,50
 407 1132 407 1132 423.5 1165 c 132,-1,51
 440 1198 440 1198 461 1209 c 4,52,53
 478 1218 478 1218 497 1218 c 4,54,55
 517 1218 517 1218 538 1209 c 4,56,57
 573 1194 573 1194 617 1138 c 4,58,59
 634 1116 634 1116 640 1099 c 4,60,61
 645 1082 645 1082 645 1051 c 4,62,63
 645 1003 645 1003 627 985 c 4,64,65
 611 969 611 969 586 964 c 4,66,67
 571 961 571 961 557 961 c 4,68,69
 546 961 546 961 537 963 c 4,46,47
EndSplineSet
Validated: 1
EndChar

StartChar: less
Encoding: 60 60 28
Width: 1134
GlyphClass: 2
Flags: W
LayerCount: 2
Fore
SplineSet
36 733 m 0,0,1
 40 739 40 739 61 751 c 128,-1,2
 82 763 82 763 154 810 c 0,3,4
 306 910 306 910 493 983 c 0,5,6
 540 1001 540 1001 575 1020 c 128,-1,7
 610 1039 610 1039 646 1050 c 0,8,9
 683 1061 683 1061 934 1160 c 2,10,-1
 1007 1189 l 1,11,-1
 1032 1180 l 2,12,13
 1056 1171 1056 1171 1072 1142 c 128,-1,14
 1088 1113 1088 1113 1088 1079 c 0,15,16
 1088 1078 1088 1078 1089 1076 c 0,17,18
 1089 1044 1089 1044 1078 1028 c 0,19,20
 1066 1011 1066 1011 1044 1002 c 0,21,22
 1024 993 1024 993 1014 993 c 0,23,24
 1013 993 1013 993 976 1000 c 0,25,26
 960 1003 960 1003 942 1003 c 0,27,28
 930 1003 930 1003 915 1001 c 0,29,30
 836 990 836 990 786 964 c 0,31,32
 741 941 741 941 659.5 909.5 c 128,-1,33
 578 878 578 878 532 856.5 c 128,-1,34
 486 835 486 835 421 804 c 128,-1,35
 356 773 356 773 336.5 759 c 128,-1,36
 317 745 317 745 317 725.5 c 128,-1,37
 317 706 317 706 324.5 697 c 128,-1,38
 332 688 332 688 362 678.5 c 128,-1,39
 392 669 392 669 424.5 651.5 c 128,-1,40
 457 634 457 634 552 597 c 128,-1,41
 647 560 647 560 678 552 c 0,42,43
 712 543 712 543 751 527 c 0,44,45
 869 478 869 478 945 478 c 0,46,47
 969 478 969 478 991 484 c 128,-1,48
 1013 490 1013 490 1027 490 c 0,49,50
 1067 490 1067 490 1088 459 c 0,51,52
 1100 441 1100 441 1100 412 c 0,53,54
 1100 410 1100 410 1100 409 c 0,55,56
 1100 375 1100 375 1084 345.5 c 128,-1,57
 1068 316 1068 316 1044 305 c 2,58,-1
 1019 295 l 1,59,-1
 946 319 l 2,60,61
 695 404 695 404 658 413.5 c 128,-1,62
 621 423 621 423 585.5 440 c 128,-1,63
 550 457 550 457 492 476 c 0,64,65
 341 527 341 527 263 570 c 0,66,67
 186 613 186 613 126 639 c 0,68,69
 68 664 68 664 52 675 c 128,-1,70
 36 686 36 686 36 706 c 0,71,72
 36 716 36 716 35 722 c 0,73,74
 34 730 34 730 36 733 c 0,0,1
EndSplineSet
Validated: 1
EndChar

StartChar: equal
Encoding: 61 61 29
Width: 1130
GlyphClass: 2
Flags: W
HStem: 448 161<116.719 841.558 843.095 1020.04> 452 138.5<97.4043 640.844> 768 162<114.348 1027.79>
LayerCount: 2
Fore
SplineSet
165 918 m 0,0,1
 181 930 181 930 403 930 c 0,2,3
 656 930 656 930 698 932 c 0,4,5
 740 932 l 0,6,7
 790 932 790 932 834 928 c 1,8,9
 920 928 920 928 988 916 c 0,10,11
 1026 909 1026 909 1042.5 887.5 c 128,-1,12
 1059 866 1059 866 1059 852 c 128,-1,13
 1059 838 1059 838 1037 820 c 0,14,15
 1017 804 1017 804 1000 796 c 0,16,17
 945 771 945 771 674 771 c 0,18,19
 478 771 478 771 410 769 c 0,20,21
 376 769 376 769 364 768 c 0,22,23
 361 768 361 768 354 768 c 0,24,25
 334 768 334 768 282 770 c 0,26,27
 191 774 191 774 173 779 c 0,28,29
 130 790 130 790 112 804 c 0,30,31
 86 824 86 824 86.5 841 c 128,-1,32
 87 858 87 858 92 869 c 0,33,34
 93 872 93 872 165 918 c 0,0,1
96 499 m 0,35,36
 90 512 90 512 90 528 c 128,-1,37
 90 544 90 544 113 561.5 c 128,-1,38
 136 579 136 579 163 590.5 c 128,-1,39
 190 602 190 602 283 605.5 c 128,-1,40
 376 609 376 609 492 609 c 1,41,-1
 925 609 l 2,42,43
 989 609 989 609 1017 591.5 c 128,-1,44
 1045 574 1045 574 1045 559 c 2,45,-1
 1045 556 l 2,46,47
 1045 525 1045 525 1034.5 508.5 c 128,-1,48
 1024 492 1024 492 992.5 474 c 128,-1,49
 961 456 961 456 919 456 c 128,-1,50
 877 456 877 456 842 450 c 1,51,52
 828 456 828 456 795 454 c 0,53,54
 773 453 773 453 742 453 c 0,55,56
 569 448 569 448 468 448 c 0,57,58
 439 448 439 448 416 448 c 0,59,60
 229 452 229 452 170 452 c 0,61,62
 118 452 118 452 96 499 c 0,35,36
EndSplineSet
Validated: 1
EndChar

StartChar: greater
Encoding: 62 62 30
Width: 1125
GlyphClass: 2
Flags: W
LayerCount: 2
Fore
SplineSet
1071 742 m 0,0,1
 1089 733 1089 733 1091 726 c 0,2,3
 1092 723 1092 723 1092 716 c 0,4,5
 1092 710 1092 710 1091 701 c 0,6,7
 1088 678 1088 678 1074.5 668 c 128,-1,8
 1061 658 1061 658 995 629 c 0,9,10
 943 606 943 606 905 585 c 0,11,12
 856 559 856 559 774.5 524 c 128,-1,13
 693 489 693 489 629 467 c 0,14,15
 578 450 578 450 542.5 433 c 128,-1,16
 507 416 507 416 471 407.5 c 128,-1,17
 435 399 435 399 345 368 c 0,18,19
 255 338 255 338 182 313 c 2,20,-1
 109 288 l 1,21,-1
 84 298 l 2,22,23
 59 309 59 309 44 338 c 0,24,25
 28 370 28 370 28 406 c 0,26,27
 28 436 28 436 40 452 c 0,28,29
 50 468 50 468 81 480 c 0,30,31
 94 485 94 485 102 485 c 0,32,33
 103 485 103 485 104 484 c 0,34,35
 112 484 112 484 136 477 c 0,36,37
 157 471 157 471 182 471 c 0,38,39
 258 471 258 471 376 520 c 0,40,41
 414 536 414 536 447 544 c 0,42,43
 473 550 473 550 575 590 c 0,44,45
 670 627 670 627 700 643 c 0,46,47
 736 662 736 662 768 673 c 0,48,49
 795 681 795 681 803 690 c 128,-1,50
 811 699 811 699 811 721 c 0,51,52
 811 738 811 738 791 752 c 128,-1,53
 771 766 771 766 697 801 c 0,54,55
 642 827 642 827 596 849 c 0,56,57
 549 871 549 871 468 902 c 0,58,59
 387 934 387 934 365 945 c 0,60,61
 337 959 337 959 292 974 c 0,62,63
 277 979 277 979 215 993 c 0,64,65
 202 996 202 996 186 996 c 0,66,67
 166 996 166 996 146 991 c 128,-1,68
 126 986 126 986 114 986 c 0,69,70
 105 986 105 986 91 992 c 0,71,72
 61 1004 61 1004 50 1021 c 128,-1,73
 39 1038 39 1038 39 1063 c 0,74,75
 39 1066 39 1066 39 1068 c 0,76,77
 39 1104 39 1104 56 1135 c 0,78,79
 71 1164 71 1164 95 1173 c 2,80,-1
 120 1182 l 1,81,-1
 193 1153 l 2,82,83
 266 1124 266 1124 356 1089 c 0,84,85
 447 1054 447 1054 482 1043 c 128,-1,86
 517 1032 517 1032 552.5 1013 c 128,-1,87
 588 994 588 994 635 976 c 0,88,89
 666 964 666 964 870 866 c 0,90,91
 896 854 896 854 974 803 c 0,92,93
 1046 756 1046 756 1071 742 c 0,0,1
EndSplineSet
Validated: 1
EndChar

StartChar: question
Encoding: 63 63 31
Width: 987
GlyphClass: 2
Flags: W
HStem: 18 274.328<384.953 531.739> 1379 169<230.539 520.104>
VStem: 335 260<69.8486 227.217> 401 136<462 715.256> 401 119<462 715.256> 685 216<973.101 1221.84>
LayerCount: 2
Fore
SplineSet
539 29 m 0,0,1
 516 18 516 18 490 18 c 0,2,3
 476 18 476 18 461 22 c 0,4,5
 419 31 419 31 400 47 c 0,6,7
 379 64 379 64 363 101 c 0,8,9
 335 164 335 164 335 202 c 0,10,11
 335 228 335 228 348 248 c 0,12,13
 376.984 292.328 376.984 292.328 412.507 292.328 c 0,14,15
 418.656 292.328 418.656 292.328 425 291 c 0,16,17
 430 290 430 290 436 290 c 0,18,19
 494 290 494 290 539 240 c 0,20,21
 586 187 586 187 592 164 c 0,22,23
 595 152 595 152 595 138 c 0,24,25
 595 116 595 116 588 90 c 0,26,27
 575 46 575 46 539 29 c 0,0,1
427 441 m 2,28,-1
 401 462 l 1,29,-1
 401 596 l 1,30,31
 401 729 401 729 395 775.5 c 128,-1,32
 389 822 389 822 391.5 834.5 c 128,-1,33
 394 847 394 847 407 863 c 0,34,35
 434 895 434 895 458.5 899.5 c 128,-1,36
 483 904 483 904 544 916 c 128,-1,37
 605 928 605 928 645 978 c 128,-1,38
 685 1028 685 1028 685 1087.5 c 128,-1,39
 685 1147 685 1147 664 1186 c 128,-1,40
 643 1225 643 1225 588 1280 c 0,41,42
 505 1363 505 1363 402 1377 c 0,43,44
 387 1379 387 1379 368 1379 c 0,45,46
 290 1379 290 1379 222 1328 c 0,47,48
 177 1294 177 1294 144 1294 c 0,49,50
 131 1294 131 1294 118 1299 c 0,51,52
 100 1306 100 1306 86 1334 c 0,53,54
 84 1338 84 1338 84 1349 c 0,55,56
 84 1393 84 1393 169 1462 c 0,57,58
 249 1527 249 1527 275 1534 c 0,59,60
 298 1540 298 1540 321 1544 c 0,61,62
 346 1548 346 1548 425 1548 c 2,63,-1
 548 1548 l 1,64,-1
 631 1505 l 2,65,66
 711 1463 711 1463 760.5 1412 c 128,-1,67
 810 1361 810 1361 844 1293.5 c 128,-1,68
 878 1226 878 1226 887 1198 c 0,69,70
 888 1196 888 1196 900 1109 c 0,71,72
 901 1102 901 1102 901 1095 c 0,73,74
 901 1039 901 1039 869 966 c 0,75,76
 833 885 833 885 775 849 c 0,77,78
 683 792 683 792 648.5 785.5 c 128,-1,79
 614 779 614 779 587 759 c 128,-1,80
 560 739 560 739 548.5 716 c 128,-1,81
 537 693 537 693 537 568 c 128,-1,82
 537 443 537 443 520 429 c 0,83,84
 505 416 505 416 491 419 c 0,85,86
 486 420 486 420 479 420 c 0,87,88
 450 420 450 420 427 441 c 2,28,-1
EndSplineSet
Validated: 1
EndChar

StartChar: at
Encoding: 64 64 32
Width: 1838
GlyphClass: 2
Flags: W
HStem: -100 94<715.117 935.376 935.612 1169.53> 304 160<1281.56 1450.62> 392 48<881 1072> 871 151<952.695 1113.5> 1197 132<755.667 1172.08>
VStem: 202 119<359.678 799.364> 554 198<478.969 739.83> 1081 177<551.835 868.757> 1504 134<511.78 898.821>
LayerCount: 2
Fore
SplineSet
1250 8 m 4,0,1
 1250 -19 1250 -19 1192 -46 c 4,2,3
 1137 -71 1137 -71 1052 -86 c 4,4,5
 970 -100 970 -100 955 -100 c 4,6,7
 939 -100 939 -100 935.5 -95 c 132,-1,8
 932 -90 932 -90 870 -90 c 132,-1,9
 808 -90 808 -90 698 -56 c 132,-1,10
 588 -22 588 -22 557 0 c 4,11,12
 317 171 317 171 236 357 c 4,13,14
 210 417 210 417 206 439 c 4,15,16
 202 460 202 460 202 486 c 4,17,18
 202 618 202 618 216 690 c 4,19,20
 233 775 233 775 264 849 c 4,21,22
 301 937 301 937 332 986 c 4,23,24
 366 1037 366 1037 389.5 1073.5 c 132,-1,25
 413 1110 413 1110 488 1174 c 4,26,27
 563 1236 563 1236 609 1256 c 4,28,29
 777 1329 777 1329 952 1329 c 4,30,31
 1030 1329 1030 1329 1111 1314 c 5,32,33
 1173 1314 1173 1314 1281.5 1264.5 c 132,-1,34
 1390 1215 1390 1215 1450.5 1160.5 c 132,-1,35
 1511 1106 1511 1106 1553 1020.5 c 132,-1,36
 1595 935 1595 935 1602 900 c 132,-1,37
 1609 865 1609 865 1624 802 c 4,38,39
 1638 738 1638 738 1638 710 c 4,40,41
 1638 681 1638 681 1626 607 c 132,-1,42
 1614 533 1614 533 1597.5 495.5 c 132,-1,43
 1581 458 1581 458 1533 408 c 4,44,45
 1486 359 1486 359 1413 331 c 4,46,47
 1343 304 1343 304 1306 304 c 4,48,49
 1305 304 1305 304 1303 304 c 4,50,51
 1265 305 1265 305 1254 305 c 4,52,53
 1177 305 1177 305 1142 346 c 4,54,55
 1103 392 1103 392 1072 392 c 4,56,57
 1018 392 1018 392 987 361 c 4,58,59
 959 333 959 333 898 308 c 4,60,61
 839 284 839 284 821 284 c 4,62,63
 802 284 802 284 759 298 c 4,64,65
 663 329 663 329 609 406 c 4,66,67
 554 484 554 484 554 591 c 4,68,69
 554 668 554 668 579 712.5 c 132,-1,70
 604 757 604 757 656 812 c 132,-1,71
 708 867 708 867 748 891.5 c 132,-1,72
 788 916 788 916 930.5 969 c 132,-1,73
 1073 1022 1073 1022 1100 1022 c 132,-1,74
 1127 1022 1127 1022 1172.5 993 c 132,-1,75
 1218 964 1218 964 1232.5 938.5 c 132,-1,76
 1247 913 1247 913 1251 875 c 132,-1,77
 1255 837 1255 837 1256.5 749 c 132,-1,78
 1258 661 1258 661 1258 618 c 4,79,80
 1258 574 1258 574 1268 542 c 4,81,82
 1292 464 1292 464 1341 464 c 4,83,84
 1364 464 1364 464 1401.5 475 c 132,-1,85
 1439 486 1439 486 1451 500 c 4,86,87
 1462 512 1462 512 1481 556 c 4,88,89
 1504 609 1504 609 1504 644 c 132,-1,90
 1504 679 1504 679 1495.5 725.5 c 132,-1,91
 1487 772 1487 772 1480 828 c 4,92,93
 1468 936 1468 936 1331 1066 c 5,94,95
 1283 1110 1283 1110 1194 1144 c 4,96,97
 1055 1197 1055 1197 965 1197 c 4,98,99
 870 1197 870 1197 789 1166 c 132,-1,100
 708 1135 708 1135 636 1108 c 4,101,102
 483 1048 483 1048 375 821 c 4,103,104
 321 707 321 707 321 576 c 4,105,106
 321 443 321 443 361 368 c 4,107,108
 402 288 402 288 484 204 c 4,109,110
 568 116 568 116 636 78 c 4,111,112
 705 38 705 38 766 20 c 4,113,114
 854 -6 854 -6 924 -6 c 4,115,116
 998 -6 998 -6 1026 0 c 4,117,118
 1105 17 1105 17 1116 20 c 4,119,120
 1202 44 1202 44 1210 44 c 4,121,122
 1226 44 1226 44 1238 33.5 c 132,-1,123
 1250 23 1250 23 1250 8 c 4,0,1
881 440 m 4,124,125
 944 440 944 440 1002 506 c 4,126,127
 1032 540 1032 540 1046 570 c 4,128,129
 1061 603 1061 603 1071 674 c 4,130,131
 1081 747 1081 747 1081 782 c 4,132,133
 1081 815 1081 815 1076 833 c 4,134,135
 1064 871 1064 871 1019 871 c 4,136,137
 975 871 975 871 916.5 830.5 c 132,-1,138
 858 790 858 790 828 767.5 c 132,-1,139
 798 745 798 745 779 717.5 c 132,-1,140
 760 690 760 690 756 666 c 132,-1,141
 752 642 752 642 752 597 c 4,142,143
 752 508 752 508 814 463 c 4,144,145
 846 440 846 440 881 440 c 4,124,125
EndSplineSet
Validated: 1
EndChar

StartChar: A
Encoding: 65 65 33
Width: 1487
GlyphClass: 2
Flags: W
HStem: -0.382812 21G<193.971 230.251> 500 164.018<450.674 917.57> 1521.52 20G<650.205 693.494>
VStem: 87.2305 250.854<81.7569 310.702> 927.139 247.631<678.694 779.25> 1129.82 269.95<29.8102 229.315> 1129.82 188.95<206.383 341.475>
LayerCount: 2
Fore
SplineSet
143.842 10.0303 m 0,0,1
 114.689 23.4062 114.689 23.4062 99.5371 49.0596 c 0,2,3
 87.2305 69.8936 87.2305 69.8936 87.2305 93.6201 c 0,4,5
 87.2305 99.1084 87.2305 99.1084 87.8887 104.751 c 0,6,7
 91.7129 137.518 91.7129 137.518 124.648 248.272 c 128,-1,8
 157.586 359.025 157.586 359.025 167.152 418.925 c 128,-1,9
 176.723 478.821 176.723 478.821 184.318 488.17 c 128,-1,10
 191.918 497.519 191.918 497.519 223.98 596.518 c 0,11,12
 257.537 700.135 257.537 700.135 292.924 799.106 c 128,-1,13
 328.311 898.078 328.311 898.078 340.127 921.376 c 0,14,15
 353.387 947.51 353.387 947.51 395.66 1071.55 c 128,-1,16
 437.936 1195.59 437.936 1195.59 450.26 1220.05 c 128,-1,17
 462.576 1244.5 462.576 1244.5 486.611 1298.52 c 128,-1,18
 510.641 1352.52 510.641 1352.52 531.16 1397.52 c 128,-1,19
 551.684 1442.51 551.684 1442.51 556.896 1465.27 c 128,-1,20
 562.107 1488.01 562.107 1488.01 590.029 1514.77 c 0,21,22
 607.83 1531.82 607.83 1531.82 621.473 1536.67 c 128,-1,23
 635.111 1541.52 635.111 1541.52 665.299 1541.52 c 0,24,25
 721.688 1541.52 721.688 1541.52 761.271 1506.47 c 128,-1,26
 800.854 1471.42 800.854 1471.42 855.344 1373.25 c 0,27,28
 913.77 1267.98 913.77 1267.98 913.77 1257.41 c 128,-1,29
 913.77 1246.84 913.77 1246.84 958.16 1169.18 c 128,-1,30
 1002.56 1091.51 1002.56 1091.51 1013.02 1051.39 c 128,-1,31
 1023.48 1011.25 1023.48 1011.25 1099.13 847.968 c 128,-1,32
 1174.77 684.683 1174.77 684.683 1174.77 673.271 c 128,-1,33
 1174.77 661.862 1174.77 661.862 1214.08 579.689 c 128,-1,34
 1253.38 497.521 1253.38 497.521 1259.43 472.045 c 128,-1,35
 1265.48 446.57 1265.48 446.57 1292.13 390.173 c 128,-1,36
 1318.77 333.778 1318.77 333.778 1318.77 320.799 c 128,-1,37
 1318.77 307.825 1318.77 307.825 1337.07 272.171 c 0,38,39
 1353.57 240 1353.57 240 1376.67 166.268 c 128,-1,40
 1399.77 92.5352 1399.77 92.5352 1399.77 72.0107 c 0,41,42
 1399.77 25.0889 1399.77 25.0889 1289.76 20.5615 c 0,43,44
 1224.27 17.8662 1224.27 17.8662 1197.27 11.7783 c 128,-1,45
 1170.21 5.67578 1170.21 5.67578 1144.96 16.085 c 128,-1,46
 1119.71 26.4932 1119.71 26.4932 1110.03 47.7461 c 0,47,48
 1103.68 61.6846 1103.68 61.6846 1104.6 74.6504 c 128,-1,49
 1105.52 87.6152 1105.52 87.6152 1114.69 113.176 c 0,50,51
 1129.82 155.394 1129.82 155.394 1129.82 175.557 c 0,52,53
 1129.79 203.19 1129.79 203.19 1100.52 295.189 c 128,-1,54
 1071.28 387.037 1071.28 387.037 1051.25 422.496 c 0,55,56
 1026.3 466.652 1026.3 466.652 1008.94 478.26 c 0,57,58
 978.277 498.749 978.277 498.749 867.242 500.522 c 0,59,60
 850.832 500.785 850.832 500.785 821.621 500.785 c 0,61,62
 771.092 500.785 771.092 500.785 682.258 500 c 0,63,64
 479.145 498.206 479.145 498.206 437.605 495.27 c 128,-1,65
 396.064 492.333 396.064 492.333 382.557 478.815 c 0,66,67
 363.578 459.826 363.578 459.826 350.98 403.278 c 0,68,69
 338.084 345.394 338.084 345.394 338.084 276.009 c 0,70,71
 338.084 219.727 338.084 219.727 346.766 193.97 c 0,72,73
 355.695 167.48 355.695 167.48 395.982 107.487 c 0,74,75
 418.291 74.2676 418.291 74.2676 414.432 58.502 c 128,-1,76
 410.57 42.7363 410.57 42.7363 375.029 21.916 c 0,77,78
 346.383 5.13379 346.383 5.13379 260.111 0.698242 c 0,79,80
 239.092 -0.382812 239.092 -0.382812 221.41 -0.382812 c 0,81,82
 166.531 -0.382812 166.531 -0.382812 143.842 10.0303 c 0,0,1
917.867 678.402 m 128,-1,84
 927.139 687.672 927.139 687.672 927.139 707.165 c 0,85,86
 927.139 727.748 927.139 727.748 916.803 759.729 c 0,87,88
 896.68 821.997 896.68 821.997 818.516 985.821 c 0,89,90
 778.77 1069.12 778.77 1069.12 778.77 1074.31 c 0,91,92
 778.77 1086.06 778.77 1086.06 748.273 1149.34 c 128,-1,93
 717.775 1212.62 717.775 1212.62 708.67 1219.77 c 0,94,95
 694.328 1231.02 694.328 1231.02 664.756 1231.02 c 0,96,97
 637.613 1231.02 637.613 1231.02 623.881 1211.53 c 128,-1,98
 610.15 1192.05 610.15 1192.05 585.471 1118.52 c 0,99,100
 561.299 1046.5 561.299 1046.5 531.709 974.518 c 0,101,102
 450.939 778.021 450.939 778.021 441.24 725.839 c 0,103,104
 439.303 715.396 439.303 715.396 439.303 707.158 c 0,105,106
 439.303 687.871 439.303 687.871 449.938 680.659 c 0,107,108
 472.59 665.296 472.59 665.296 612.52 664.235 c 0,109,110
 641.254 664.018 641.254 664.018 690.129 664.018 c 0,111,112
 827.736 664.018 827.736 664.018 868.162 666.571 c 128,-1,83
 908.59 669.125 908.59 669.125 917.867 678.402 c 128,-1,84
EndSplineSet
Validated: 1
EndChar

StartChar: B
Encoding: 66 66 34
Width: 1425
GlyphClass: 2
Flags: W
HStem: 4 114.222<441.552 890.284> 856.5 133.5<533.226 592.537> 1440 132.35<490.919 820.111>
VStem: 191.941 219.318<167.636 737.373 957.499 1351.24> 1133.82 225.92<332.639 638.037> 1133.82 204.69<453.925 637.804>
LayerCount: 2
Fore
SplineSet
264.308 23 m 2,0,1
 201.65 46 201.65 46 188.365 56 c 0,2,3
 177.108 65 177.108 65 175.565 101.5 c 0,4,5
 175.338 106.882 175.338 106.882 175.338 112.297 c 0,6,7
 175.338 143.603 175.338 143.603 182.938 176 c 0,8,9
 190.91 212 190.91 212 191.941 491 c 0,10,11
 193.375 861 193.375 861 195.762 987.5 c 128,-1,12
 198.149 1114 198.149 1114 203.807 1161 c 0,13,14
 204.946 1171.33 204.946 1171.33 204.946 1184.09 c 0,15,16
 204.946 1215.79 204.946 1215.79 197.908 1262.5 c 0,17,18
 188.037 1328 188.037 1328 174.352 1352 c 0,19,20
 165.924 1367 165.924 1367 110.838 1405 c 0,21,22
 87.3809 1421 87.3809 1421 71.4385 1436.5 c 128,-1,23
 55.3144 1452.18 55.3144 1452.18 55.3144 1458.69 c 0,24,25
 55.3144 1492.36 55.3144 1492.36 149.325 1528 c 0,26,27
 186.926 1542 186.926 1542 226.269 1547.5 c 128,-1,28
 265.611 1553 265.611 1553 357.469 1558 c 0,29,30
 505.24 1566 505.24 1566 542.098 1571 c 0,31,32
 551.248 1572.35 551.248 1572.35 567.194 1572.35 c 0,33,34
 610.248 1572.35 610.248 1572.35 702.84 1562.5 c 0,35,36
 829.726 1549 829.726 1549 876.097 1536 c 0,37,38
 1069.67 1481 1069.67 1481 1136.29 1389 c 0,39,40
 1164.64 1349.82 1164.64 1349.82 1164.64 1299.63 c 0,41,42
 1164.64 1274.23 1164.64 1274.23 1157.38 1246 c 0,43,44
 1135.78 1162 1135.78 1162 1062.69 1095 c 0,45,46
 1012.5 1049.84 1012.5 1049.84 1012.5 1018.14 c 0,47,48
 1012.5 1014.74 1012.5 1014.74 1013.08 1011.5 c 0,49,50
 1019.03 978 1019.03 978 1089.18 938 c 0,51,52
 1171.52 891 1171.52 891 1243.15 799 c 0,53,54
 1285.72 744 1285.72 744 1311.67 693 c 128,-1,55
 1337.63 642 1337.63 642 1338.51 611 c 0,56,57
 1339.54 575 1339.54 575 1352.34 512 c 0,58,59
 1359.74 473.361 1359.74 473.361 1359.74 453.293 c 0,60,61
 1359.74 432.356 1359.74 432.356 1345 384 c 0,62,63
 1325.85 319 1325.85 319 1306.11 275 c 0,64,65
 1270.28 199 1270.28 199 1173.19 132 c 128,-1,66
 1076.11 65 1076.11 65 955.022 33 c 0,67,68
 891.508 16 891.508 16 840.136 11.5 c 128,-1,69
 788.765 7 788.765 7 595.851 4 c 2,70,-1
 326.965 0 l 1,71,-1
 264.308 23 l 2,0,1
878.452 158 m 0,72,73
 955.624 187 955.624 187 995.738 218 c 128,-1,74
 1035.85 249 1035.85 249 1078 314 c 0,75,76
 1100.97 350 1100.97 350 1111.74 375.5 c 128,-1,77
 1122.51 401 1122.51 401 1127.54 435 c 0,78,79
 1133.82 480.492 1133.82 480.492 1133.82 504.426 c 0,80,81
 1133.82 512.059 1133.82 512.059 1133.18 517.5 c 0,82,83
 1130.54 540 1130.54 540 1110.06 592 c 0,84,85
 1074.6 678 1074.6 678 1029.57 731.5 c 128,-1,86
 984.545 785 984.545 785 914.46 823 c 0,87,88
 846.403 860 846.403 860 806.203 867 c 0,89,90
 789.65 869.882 789.65 869.882 765.041 869.882 c 0,91,92
 729.885 869.882 729.885 869.882 678.289 864 c 0,93,94
 614.504 856.471 614.504 856.471 592.58 856.471 c 0,95,96
 591.21 856.471 591.21 856.471 590.003 856.5 c 0,97,98
 569.489 857 569.489 857 554.203 867 c 0,99,100
 520.673 888.263 520.673 888.263 520.673 913.29 c 0,101,102
 520.673 924.75 520.673 924.75 527.704 937 c 0,103,104
 550.09 976 550.09 976 624.69 990 c 0,105,106
 697.319 1003 697.319 1003 770.477 1050 c 128,-1,107
 843.635 1097 843.635 1097 883.979 1155 c 0,108,109
 901.264 1180 901.264 1180 913.693 1235 c 2,110,-1
 926.151 1289 l 1,111,-1
 898.095 1326 l 2,112,113
 875.209 1357 875.209 1357 830.295 1389 c 128,-1,114
 785.381 1421 785.381 1421 749.096 1431 c 0,115,116
 716.839 1440 716.839 1440 616.339 1440 c 128,-1,117
 515.839 1440 515.839 1440 490.096 1431 c 0,118,119
 443.553 1415 443.553 1415 425.494 1347 c 0,120,121
 409.781 1286.32 409.781 1286.32 409.781 957.499 c 0,122,123
 409.781 852.833 409.781 852.833 411.373 721 c 0,124,125
 411.658 711 411.658 711 411.259 690 c 0,126,127
 414.883 318 414.883 318 418.753 252.5 c 128,-1,128
 422.624 187 422.624 187 438.195 167 c 0,129,-1
 439.224 166 l 0,130,131
 457.938 141 457.938 141 473.681 132.5 c 128,-1,132
 489.423 124 489.423 124 531.037 120 c 0,133,134
 549.532 118.222 549.532 118.222 574.397 118.222 c 0,135,136
 605.477 118.222 605.477 118.222 646.509 121 c 1,137,138
 750.423 124 750.423 124 782.78 129 c 128,-1,139
 815.138 134 815.138 134 878.452 158 c 0,72,73
EndSplineSet
Validated: 1
EndChar

StartChar: C
Encoding: 67 67 35
Width: 1262
GlyphClass: 2
Flags: W
HStem: 9 138<610.882 970.406> 1417 137<511.932 853.524>
VStem: 88 228<507.484 1133.21>
LayerCount: 2
Fore
SplineSet
597 19 m 4,0,1
 538 28 538 28 496.5 44 c 132,-1,2
 455 60 455 60 394 98 c 4,3,4
 359 120 359 120 301.5 184 c 132,-1,5
 244 248 244 248 215 294 c 4,6,7
 185 343 185 343 155 425 c 4,8,9
 148 444 148 444 109 586 c 4,10,11
 93 633 93 633 88 794 c 4,12,13
 86 848 86 848 87 852 c 4,14,15
 96 906 96 906 96 1006 c 4,16,17
 96 1047 96 1047 136 1142 c 4,18,19
 175 1233 175 1233 192 1257 c 4,20,21
 212 1283 212 1283 244 1336.5 c 132,-1,22
 276 1390 276 1390 299 1409 c 4,23,24
 403 1488 403 1488 437 1499 c 4,25,26
 480 1513 480 1513 488 1524 c 4,27,28
 511 1554 511 1554 626 1554 c 4,29,30
 670 1554 670 1554 687 1558 c 4,31,32
 689 1559 689 1559 697 1557 c 4,33,34
 738 1549 738 1549 828 1549 c 4,35,36
 889 1549 889 1549 968 1509 c 4,37,38
 1053 1466 1053 1466 1079 1442 c 4,39,40
 1106 1418 1106 1418 1115 1403 c 4,41,42
 1122 1390 1122 1390 1126 1356 c 4,43,44
 1129 1336 1129 1336 1129 1322 c 4,45,46
 1129 1315 1129 1315 1128 1309 c 4,47,48
 1125 1291 1125 1291 1117 1273 c 4,49,50
 1100 1241 1100 1241 1085 1232 c 4,51,52
 1078 1228 1078 1228 1070 1228 c 4,53,54
 1030 1228 1030 1228 954 1301 c 4,55,56
 920 1334 920 1334 891 1352 c 5,57,58
 865 1369 865 1369 817 1388 c 4,59,60
 754 1413 754 1413 739 1415 c 4,61,62
 725 1417 725 1417 713 1417 c 4,63,64
 705 1417 l 4,65,66
 688 1416 688 1416 668 1416 c 4,67,68
 598 1416 598 1416 547 1391 c 4,69,70
 482 1359 482 1359 457 1332 c 5,71,72
 413 1286 413 1286 380 1218 c 4,73,74
 376 1210 376 1210 336 1085 c 4,75,76
 319 1032 319 1032 319 875 c 4,77,78
 319 792 319 792 316 767 c 6,79,-1
 316 758 l 5,80,81
 319 729 319 729 319 699 c 4,82,83
 319 611 319 611 373 474 c 4,84,85
 418 360 418 360 443 326 c 4,86,87
 517 229 517 229 628 183 c 4,88,89
 713 147 713 147 772 147 c 4,90,91
 782 147 782 147 791 148 c 4,92,93
 818 151 818 151 848 151 c 4,94,95
 892 151 892 151 960 186 c 4,96,97
 1046 230 1046 230 1066 246 c 4,98,99
 1092 265 1092 265 1118 265 c 6,100,-1
 1124 265 l 6,101,102
 1148 265 1148 265 1161.5 252.5 c 132,-1,103
 1175 240 1175 240 1175 206 c 4,104,105
 1175 185 1175 185 1168.5 173 c 132,-1,106
 1162 161 1162 161 1135 140 c 4,107,108
 1092 105 1092 105 1022 67 c 132,-1,109
 952 29 952 29 914 21 c 4,110,111
 865 10 865 10 765 10 c 4,112,113
 760 10 760 10 755 9 c 5,114,115
 662 9 662 9 597 19 c 4,0,1
EndSplineSet
Validated: 1
EndChar

StartChar: D
Encoding: 68 68 36
Width: 1491
GlyphClass: 2
Flags: W
HStem: -10 118<436.867 852.981> 1408 103<73.6611 189.194> 1415.7 155.3<471.969 788.053>
VStem: 190 209<160.458 1326.96> 1169 247<454.275 983.012>
LayerCount: 2
Fore
SplineSet
190 391 m 1,0,-1
 190 529 l 1,1,2
 190 714 190 714 183 774 c 1,3,4
 188 789 188 789 188 1129 c 1,5,6
 190 1266 190 1266 190 1310 c 0,7,8
 190 1322 l 0,9,10
 190 1334 190 1334 190 1366 c 0,11,12
 190 1374 190 1374 168 1391 c 128,-1,13
 146 1408 146 1408 128 1408 c 0,14,15
 108 1408 108 1408 90 1430 c 128,-1,16
 72 1452 72 1452 72 1458 c 128,-1,17
 72 1464 72 1464 72 1476 c 1,18,19
 72 1498 72 1498 93 1511 c 128,-1,20
 114 1524 114 1524 179 1535 c 0,21,22
 246 1546 246 1546 268 1560 c 0,23,24
 289 1573 289 1573 330 1573 c 0,25,26
 333 1573 333 1573 336 1573 c 0,27,-1
 341 1573 l 0,28,29
 391 1572 391 1572 406.5 1571.5 c 128,-1,30
 422 1571 422 1571 520 1571 c 0,31,32
 623 1571 623 1571 681 1549 c 0,33,34
 690 1546 690 1546 762 1532 c 128,-1,35
 834 1518 834 1518 930.5 1481.5 c 128,-1,36
 1027 1445 1027 1445 1046.5 1429 c 128,-1,37
 1066 1413 1066 1413 1097 1397 c 0,38,39
 1147 1372 1147 1372 1230 1266.5 c 128,-1,40
 1313 1161 1313 1161 1334 1099 c 0,41,42
 1403 889 1403 889 1409.5 841.5 c 128,-1,43
 1416 794 1416 794 1416 742 c 2,44,-1
 1416 691 l 2,45,46
 1416 540 1416 540 1363.5 410 c 128,-1,47
 1311 280 1311 280 1222 194 c 0,48,49
 1086 64 1086 64 853 13 c 0,50,51
 757 -8 757 -8 471 -8 c 0,52,53
 464 -10 464 -10 420 -10 c 0,54,55
 390 -10 390 -10 297 0.5 c 128,-1,56
 204 11 204 11 187.5 18.5 c 128,-1,57
 171 26 171 26 158 45.5 c 128,-1,58
 145 65 145 65 138 77 c 128,-1,59
 131 89 131 89 131 104.5 c 128,-1,60
 131 120 131 120 136 135 c 0,61,62
 164 209 164 209 179 278 c 1,63,64
 190 319 190 319 190 391 c 1,0,-1
399 486 m 1,65,-1
 399 446 l 6,66,-1
 399 351 l 0,67,-1
 399 310 l 0,68,-1
 399 304 l 0,69,70
 400 280 400 280 400 244 c 0,71,72
 400 159 400 159 478 128 c 0,73,74
 528 108 528 108 550 108 c 2,75,-1
 575 108 l 2,76,77
 626 108 626 108 742 128.5 c 128,-1,78
 858 149 858 149 894 166.5 c 128,-1,79
 930 184 930 184 943 184 c 0,80,81
 971 184 971 184 1040 286 c 0,82,83
 1169 477 1169 477 1169 708 c 0,84,85
 1169 812 1169 812 1141 928 c 0,86,87
 1098 1109 1098 1109 1008 1226.5 c 0,88,89
 957 1293 957 1293 820.25 1374.85009766 c 0,90,91
 752.497247108 1415.70019531 752.497247108 1415.70019531 571.5 1415.70019531 c 2,92,-1
 566.5 1415.70019531 l 2,93,94
 486 1416 486 1416 471.5 1399.70019531 c 0,95,96
 442 1366 442 1366 424 1328.20019531 c 0,97,98
 406 1290 406 1290 404 1068.20019531 c 0,99,100
 402 846 402 846 401.5 714.700195312 c 1,101,102
 400 600 400 600 399 486 c 1,65,-1
EndSplineSet
Validated: 33
EndChar

StartChar: E
Encoding: 69 69 37
Width: 1359
GlyphClass: 2
Flags: W
HStem: -0 254<1052.4 1228.23> -0 131<453.802 925.77> 897 164<399.812 897.641> 1089 20G<981.5 1000.5> 1390 131<171 900.031>
VStem: 150 246<647.831 883.797> 152 228<197.499 875.308 1069.23 1336.55>
LayerCount: 2
Fore
SplineSet
201 0 m 4,0,1
 144 0 144 0 116 52 c 4,2,3
 103 76 103 76 103 102 c 4,4,5
 103 123 103 123 110 144 c 4,6,7
 125 188 125 188 139 324 c 4,8,9
 152 445 152 445 152 550 c 4,10,11
 152 591 152 591 150 630 c 4,12,13
 140 830 140 830 140 1107 c 4,14,15
 140 1233 140 1233 131 1266 c 4,16,17
 110 1344 110 1344 106 1353 c 4,18,19
 92 1388 92 1388 83 1434 c 4,20,21
 82 1439 82 1439 82 1444 c 4,22,23
 82 1469 82 1469 98 1482 c 4,24,25
 112 1494 112 1494 171 1508 c 4,26,27
 225 1521 225 1521 428 1521 c 4,28,29
 633 1521 633 1521 736 1533.5 c 132,-1,30
 839 1546 839 1546 868 1546 c 4,31,32
 870 1546 870 1546 872 1546 c 4,33,34
 897 1546 897 1546 988 1528 c 4,35,36
 1070 1512 1070 1512 1096 1496 c 4,37,38
 1119 1482 1119 1482 1141 1432 c 4,39,40
 1164 1379 1164 1379 1164 1342 c 4,41,42
 1164 1308 1164 1308 1146 1286 c 4,43,44
 1132 1269 1132 1269 1124 1267 c 4,45,46
 1120 1266 1120 1266 1112 1266 c 4,47,48
 1104 1265 1104 1265 1085 1268 c 4,49,50
 1056 1273 1056 1273 1020 1300 c 4,51,52
 902 1390 902 1390 639 1390 c 4,53,54
 539 1390 539 1390 496 1379 c 4,55,56
 454 1368 454 1368 422 1334 c 4,57,58
 394 1304 394 1304 377 1239 c 4,59,60
 368 1204 368 1204 368 1172 c 4,61,62
 368 1148 368 1148 373 1128 c 4,63,64
 386 1076 386 1076 412 1069 c 4,65,66
 438 1061 438 1061 543 1061 c 4,67,68
 574 1061 574 1061 613 1062 c 4,69,70
 786 1065 786 1065 822 1065 c 4,71,72
 855 1065 855 1065 896 1086 c 4,73,74
 907 1092 907 1092 972 1108 c 4,75,76
 976 1109 976 1109 987 1109 c 4,77,78
 1014 1109 1014 1109 1031 1099 c 4,79,80
 1052 1087 1052 1087 1069 1042 c 4,81,82
 1084 1002 1084 1002 1084 986 c 4,83,84
 1084 985 1084 985 1084 984 c 4,85,86
 1084 970 1084 970 1072.5 904 c 132,-1,87
 1061 838 1061 838 1050 822 c 4,88,89
 1041 809 1041 809 1014 809 c 4,90,91
 1007 809 1007 809 1000 810 c 4,92,93
 961 816 961 816 920 840 c 4,94,95
 878 865 878 865 852 871 c 4,96,97
 828 886 828 886 712 886 c 4,98,99
 615 886 615 886 550 894 c 4,100,101
 529 897 529 897 511 897 c 4,102,103
 461 897 461 897 427 877 c 4,104,105
 396 859 396 859 396 839 c 5,106,107
 374 704 374 704 374 646 c 4,108,109
 374 629 374 629 376 619 c 4,110,111
 380 599 380 599 380 574 c 4,112,113
 380 546 380 546 374 518 c 4,114,115
 370 499 370 499 370 467 c 4,116,117
 370 425 370 425 378 358 c 4,118,119
 391 252 391 252 414 212 c 4,120,121
 433 181 433 181 453 161 c 4,122,123
 478 137 478 137 587 132 c 4,124,125
 611 131 611 131 632 131 c 4,126,127
 691 131 691 131 741 139 c 4,128,129
 786 149 786 149 902 170 c 4,130,131
 1021 192 1021 192 1100 230 c 4,132,133
 1149 254 1149 254 1192 254 c 4,134,135
 1219 254 1219 254 1241 243 c 4,136,137
 1276 226 1276 226 1276 172 c 4,138,139
 1276 154 1276 154 1272 134 c 4,140,141
 1253 39 1253 39 1174 11 c 4,142,143
 1143 0 1143 0 677 -0 c 4,144,145
 213 0 213 0 201 0 c 4,0,1
EndSplineSet
Validated: 1
EndChar

StartChar: F
Encoding: 70 70 38
Width: 1183
GlyphClass: 2
Flags: W
HStem: 0 118<399.068 589.98> 821 264<818.762 950.966> 890 155<384.488 863.601> 1400 141<398.65 896.023>
VStem: 133 209<174.561 881.746 1054.88 1360.25>
LayerCount: 2
Fore
SplineSet
330 0 m 4,0,1
 324 0 324 0 319 0 c 4,2,3
 175 0 175 0 144 14 c 132,-1,4
 113 28 113 28 100 53 c 4,5,6
 86 79 86 79 84 91 c 4,7,-1
 84 98 l 4,8,9
 84 106 84 106 102 160 c 4,10,11
 119 211 119 211 119 273 c 4,12,13
 119 274 119 274 119 275 c 4,14,15
 119 283 l 4,16,17
 123 340 123 340 123 380 c 4,18,19
 131 435 131 435 131 651 c 4,20,21
 133 705 133 705 133 933 c 4,22,23
 133 1004 l 4,24,25
 132 1039 132 1039 132 1049 c 4,26,27
 136 1140 136 1140 136 1181 c 4,28,29
 136 1212 136 1212 139 1231 c 4,30,31
 140 1239 140 1239 138 1254 c 4,32,33
 135 1276 135 1276 114 1334 c 4,34,35
 94 1389 94 1389 94 1424 c 4,36,37
 94 1465 94 1465 119 1480 c 4,38,39
 140 1492 140 1492 206 1518 c 6,40,-1
 272 1541 l 5,41,-1
 614 1541 l 5,42,43
 953 1541 953 1541 978 1533 c 4,44,45
 1047 1511 1047 1511 1070 1483 c 4,46,47
 1099 1447 1099 1447 1099 1400 c 4,48,49
 1099 1387 1099 1387 1099 1375 c 4,50,51
 1099 1347 1099 1347 1097 1337 c 4,52,53
 1096 1325 1096 1325 1076 1305 c 4,54,55
 1058 1287 1058 1287 1036.5 1287 c 132,-1,56
 1015 1287 1015 1287 970 1308 c 4,57,58
 927 1328 927 1328 913 1345 c 4,59,60
 892 1371 892 1371 767 1390 c 4,61,62
 703 1400 703 1400 654 1400 c 4,63,64
 639 1400 639 1400 625 1399 c 4,65,66
 581 1396 581 1396 539 1396 c 4,67,68
 418 1396 418 1396 398 1367 c 4,69,70
 398 1366 398 1366 386 1360 c 4,71,72
 375 1354 375 1354 370 1341.5 c 132,-1,73
 365 1329 365 1329 358 1296 c 4,74,75
 351 1262 351 1262 347 1238 c 4,76,77
 342 1212 342 1212 342 1190 c 4,78,79
 342 1167 342 1167 347 1147 c 4,80,81
 356 1112 356 1112 359 1099.5 c 132,-1,82
 362 1087 362 1087 369.5 1074 c 132,-1,83
 377 1061 377 1061 383 1057 c 132,-1,84
 389 1053 389 1053 405 1049 c 132,-1,85
 421 1045 421 1045 437 1045 c 6,86,-1
 483 1045 l 5,87,88
 793 1045 793 1045 866 1075 c 4,89,90
 890 1085 890 1085 916 1085 c 4,91,92
 958 1085 958 1085 987 1054 c 4,93,94
 1004 1036 1004 1036 1004 984 c 4,95,96
 1004 979 1004 979 1004 974 c 4,97,98
 1004 924 1004 924 990 880 c 4,99,100
 981 852 981 852 951 822 c 4,101,102
 950 821 950 821 938 821 c 4,103,104
 917 821 917 821 875 840 c 4,105,106
 812 869 812 869 796 872 c 4,107,108
 769 884 769 884 679 884 c 4,109,110
 528 884 528 884 508 891 c 4,111,112
 501 890 501 890 494 890 c 4,113,114
 399 890 399 890 384 882 c 4,115,116
 370 874 370 874 356 849 c 132,-1,117
 342 824 342 824 342 770 c 4,118,119
 342 746 l 4,120,121
 346 634 346 634 346 520 c 4,122,123
 355 281 355 281 355 273 c 4,124,125
 355 220 355 220 370 195 c 132,-1,126
 385 170 385 170 424 144 c 132,-1,127
 463 118 463 118 491.5 118 c 132,-1,128
 520 118 520 118 553.5 108 c 132,-1,129
 587 98 587 98 599 84 c 4,130,131
 604 78 604 78 604 71 c 4,132,133
 604 62 604 62 593 48 c 4,134,135
 578 29 578 29 529 14 c 4,136,137
 483 0 483 0 330 0 c 4,0,1
EndSplineSet
Validated: 1
EndChar

StartChar: G
Encoding: 71 71 39
Width: 1490
GlyphClass: 2
Flags: W
HStem: 0 117<639.406 980.743> 932 139<814.153 1063.89> 1437 134<574.314 984.641>
VStem: 88 220<600.761 1079.07> 1121 224<258.328 876.663>
LayerCount: 2
Fore
SplineSet
1058 5 m 0,0,1
 964 5 964 5 852 -0 c 0,2,3
 814 0 l 0,4,5
 678 0 678 0 649 10 c 0,6,7
 632 16 632 16 537 58 c 0,8,9
 457 93 457 93 408.5 121 c 128,-1,10
 360 149 360 149 298 215 c 0,11,12
 238 280 238 280 198 350 c 0,13,14
 177 387 177 387 129 526 c 0,15,16
 107 571 107 571 93 711 c 0,17,18
 88 764 88 764 88 784 c 0,19,20
 88 793 88 793 89 795 c 0,21,22
 101 825 101 825 101 956 c 0,23,24
 101 1037 101 1037 133 1132 c 0,25,26
 152 1188 152 1188 196 1263 c 0,27,28
 246 1350 246 1350 331 1421.5 c 128,-1,29
 416 1493 416 1493 494.5 1513 c 128,-1,30
 573 1533 573 1533 592 1544 c 0,31,32
 611 1553 611 1553 692 1564 c 0,33,34
 744 1571 744 1571 767 1571 c 0,35,36
 772 1571 772 1571 776 1571 c 0,37,38
 787 1570 787 1570 797 1570 c 0,39,40
 845 1566 845 1566 893 1566 c 0,41,42
 1039 1566 1039 1566 1058 1542 c 0,43,44
 1062 1537 1062 1537 1166 1510 c 0,45,46
 1228 1494 1228 1494 1271 1439 c 0,47,48
 1306 1394 1306 1394 1306 1355 c 0,49,50
 1306 1345 1306 1345 1304 1336 c 0,51,52
 1293 1287 1293 1287 1280 1273 c 0,53,54
 1265 1258 1265 1258 1239.5 1258 c 128,-1,55
 1214 1258 1214 1258 1185 1269 c 128,-1,56
 1156 1280 1156 1280 1152.5 1290 c 128,-1,57
 1149 1300 1149 1300 1086.5 1341.5 c 128,-1,58
 1024 1383 1024 1383 1014 1383 c 128,-1,59
 1004 1383 1004 1383 957.5 1406 c 128,-1,60
 911 1429 911 1429 887 1433 c 128,-1,61
 863 1437 863 1437 778.5 1437 c 128,-1,62
 694 1437 694 1437 670.5 1433 c 128,-1,63
 647 1429 647 1429 588.5 1400 c 128,-1,64
 530 1371 530 1371 462.5 1303 c 128,-1,65
 395 1235 395 1235 382 1202 c 0,66,67
 370 1173 370 1173 350 1066 c 0,68,69
 331 964 331 964 319 940 c 0,70,71
 308 918 308 918 308 887 c 0,72,73
 308 885 308 885 308 882 c 0,74,75
 308 855 308 855 321 762 c 0,76,77
 333 675 333 675 362.5 563 c 128,-1,78
 392 451 392 451 414 396 c 128,-1,79
 436 341 436 341 453.5 316.5 c 128,-1,80
 471 292 471 292 508 256 c 0,81,82
 615 151 615 151 745 124 c 0,83,84
 778 117 778 117 811 117 c 0,85,86
 902 117 902 117 986 165 c 0,87,88
 1040 196 1040 196 1065 234 c 0,89,90
 1079 255 1079 255 1099 337 c 0,91,92
 1116 372 1116 372 1116 594 c 0,93,94
 1116 735 1116 735 1121 769 c 0,95,96
 1121 777 l 0,97,98
 1120 793 1120 793 1120 808 c 1,99,100
 1107 859 1107 859 1046 901 c 0,101,102
 1022 918 1022 918 999.5 925 c 128,-1,103
 977 932 977 932 905.5 932 c 128,-1,104
 834 932 834 932 813.5 946.5 c 128,-1,105
 793 961 793 961 793 998 c 0,106,107
 793 1028 793 1028 816 1048 c 0,108,109
 842 1071 842 1071 1099 1071 c 1,110,-1
 1358 1071 l 1,111,-1
 1381 1047 l 2,112,113
 1399 1029 1399 1029 1405 994 c 0,114,115
 1406 988 1406 988 1405 982 c 0,116,117
 1405 957 1405 957 1393 944 c 0,118,119
 1385 936 1385 936 1364 846 c 0,120,121
 1345 800 1345 800 1345 640 c 0,122,123
 1345 593 1345 593 1344 587 c 0,124,125
 1365 488 1365 488 1365 207 c 1,126,-1
 1365 150 l 1,127,-1
 1332 114 l 2,128,129
 1294 78 1294 78 1244 64 c 0,130,131
 1166 42 1166 42 1144 30 c 0,132,133
 1098 5 1098 5 1058 5 c 0,0,1
EndSplineSet
Validated: 1
EndChar

StartChar: H
Encoding: 72 72 40
Width: 1365
GlyphClass: 2
Flags: W
HStem: 885 161<409.428 919.312> 1510 35G<315 402.5 1006.5 1134.5>
VStem: 158 226<194.299 866.625 1059.35 1348.63> 864 411<12.9097 152.915> 944 245<207 664.189 1159 1355.81> 963 226<209.344 844.687>
LayerCount: 2
Fore
SplineSet
949 1159 m 1,0,1
 949 1196 949 1196 932 1271 c 0,2,3
 914 1350 914 1350 864 1406 c 1,4,5
 854 1415 854 1415 854 1430 c 128,-1,6
 854 1445 854 1445 857 1456 c 0,7,8
 876 1528 876 1528 893 1528 c 1,9,10
 912 1530 912 1530 1101 1530 c 0,11,12
 1168 1530 1168 1530 1196 1495 c 128,-1,13
 1224 1460 1224 1460 1224 1440 c 0,14,15
 1224 1418 1224 1418 1220 1411 c 0,16,17
 1215 1401 1215 1401 1198 1312 c 0,18,19
 1181 1221 1181 1221 1181 1209 c 2,20,-1
 1181 1194 l 1,21,22
 1189 1132 1189 1132 1189 300 c 0,23,24
 1189 212 1189 212 1212 178 c 0,25,26
 1220 167 1220 167 1256 119 c 0,27,28
 1275 94 1275 94 1275 84 c 0,29,30
 1275 41 1275 41 1249 12 c 128,-1,31
 1223 -17 1223 -17 1186 -17 c 2,32,-1
 923 -17 l 1,33,-1
 895 24 l 2,34,35
 864 69 864 69 864 96 c 128,-1,36
 864 123 864 123 906 167 c 2,37,-1
 944 207 l 1,38,-1
 944 357 l 2,39,40
 944 502 944 502 954 558 c 0,41,42
 963 608 963 608 963 666 c 128,-1,43
 963 724 963 724 956 780 c 0,44,45
 946 860 946 860 835 873 c 0,46,47
 776 880 776 880 639 880 c 0,48,49
 508 880 508 880 490 883 c 0,50,51
 478 885 478 885 472 885 c 0,52,53
 443 885 443 885 424 861 c 0,54,55
 406 839 406 839 405 830 c 0,56,57
 384 687 384 687 384 636 c 1,58,-1
 384 567 l 1,59,-1
 384 460 l 1,60,61
 388 421 388 421 388 343 c 0,62,63
 388 282 388 282 413 223 c 0,64,65
 433 175 433 175 476 128 c 0,66,67
 523 76 523 76 523 48 c 2,68,-1
 523 44 l 2,69,70
 523 18 523 18 474 6 c 128,-1,71
 425 -6 425 -6 306 -6 c 128,-1,72
 187 -6 187 -6 150 11 c 0,73,74
 111 29 111 29 111 90 c 0,75,76
 111 115 111 115 121 148 c 0,77,78
 158 271 158 271 158 716 c 0,79,80
 158 1155 158 1155 146 1234 c 0,81,82
 134 1310 134 1310 118 1356 c 0,83,84
 90 1435 90 1435 90 1453 c 0,85,86
 90 1472 90 1472 94 1480 c 0,87,88
 111 1515 111 1515 144 1521 c 0,89,90
 272 1545 272 1545 358 1545 c 0,91,92
 447 1545 447 1545 471 1512 c 128,-1,93
 495 1479 495 1479 495 1466 c 0,94,95
 495 1452 495 1452 472 1426 c 0,96,97
 447 1397 447 1397 414 1312 c 0,98,99
 380 1223 380 1223 380 1170 c 0,100,101
 380 1121 380 1121 388 1094 c 0,102,103
 395 1070 395 1070 424 1059 c 0,104,105
 458 1046 458 1046 875 1046 c 0,106,107
 898 1046 898 1046 920 1073 c 1,108,-1
 949 1159 l 1,0,1
EndSplineSet
Validated: 1
EndChar

StartChar: I
Encoding: 73 73 41
Width: 466
GlyphClass: 2
Flags: W
HStem: 0 21G<216 299.5>
VStem: 83 299<32.5615 317.088 814.175 1467.59> 83 261<32.5615 704.955 850.464 1437.91> 126 221<9.34741 1437.91>
LayerCount: 2
Fore
SplineSet
161 8 m 4,0,1
 139 17 139 17 112 50 c 4,2,3
 83 84 83 84 83 101 c 4,4,5
 83 102 83 102 83 103 c 4,6,7
 83 135 83 135 94 171 c 4,8,9
 113 233 113 233 121 490 c 4,10,11
 126 643 126 643 126 717 c 4,12,13
 126 748 126 748 125 765 c 4,14,15
 122 826 122 826 122 1034 c 4,16,17
 112 1173 112 1173 112 1294 c 4,18,19
 112 1368 112 1368 100 1384 c 4,20,21
 84 1406 84 1406 84 1452 c 4,22,23
 84 1481 84 1481 105 1498 c 4,24,25
 123 1513 123 1513 197 1520 c 4,26,27
 230 1523 230 1523 256 1520 c 4,28,29
 288 1520 288 1520 310 1516 c 4,30,31
 364 1506 364 1506 376 1468 c 4,32,33
 380 1455 380 1455 380 1439 c 4,34,35
 380 1404 380 1404 363 1369 c 4,36,37
 349 1340 349 1340 347 1280 c 4,38,39
 346 1228 346 1228 346 1184 c 4,40,41
 346 1162 346 1162 346 1141 c 4,42,43
 346 1117 346 1117 347 958 c 4,44,45
 347 792 347 792 347 764 c 4,46,47
 347 758 l 4,48,49
 343 597 343 597 343 427 c 4,50,51
 341 322 341 322 341 318 c 4,52,53
 344 289 344 289 344 236 c 4,54,55
 344 181 344 181 370 115 c 4,56,57
 382 85 382 85 382 57 c 4,58,59
 383 51 383 51 382 46 c 4,60,61
 377 20 377 20 355 9 c 4,62,63
 339 0 339 0 260 0 c 4,64,65
 255 0 255 0 251 0 c 4,66,67
 181 0 181 0 161 8 c 4,0,1
EndSplineSet
Validated: 1
EndChar

StartChar: J
Encoding: 74 74 42
Width: 890
GlyphClass: 2
Flags: W
HStem: 1428 153<225.66 586.75>
VStem: 541 215<516.494 1327.05> 556 239<-65.3718 902.402 904.002 951.156> 590 220<1331.22 1419.75> 590 166<1062.87 1347.45>
LayerCount: 2
Fore
SplineSet
322 -404 m 4,0,1
 306 -401 306 -401 294 -379 c 4,2,3
 281 -356 281 -356 281 -342 c 4,4,5
 281 -336 l 4,6,7
 281 -326 281 -326 289 -317.5 c 132,-1,8
 297 -309 297 -309 317 -297 c 4,9,10
 363 -272 363 -272 430 -205.5 c 132,-1,11
 497 -139 497 -139 502 -114 c 4,12,13
 511 -57 511 -57 521 -30 c 4,14,15
 546 38 546 38 553 149 c 4,16,17
 556 192 556 192 556 215 c 4,18,19
 556 226 556 226 555 232 c 4,20,21
 550 274 550 274 550 469 c 4,22,23
 541 887 541 887 541 903 c 4,24,25
 542 935 542 935 542 975 c 4,26,27
 548 1146 548 1146 548 1162 c 4,28,29
 548 1206 548 1206 568 1265 c 4,30,31
 590 1330 590 1330 590 1360 c 4,32,33
 590 1362 590 1362 590 1364 c 4,34,35
 590 1384 590 1384 577 1402 c 4,36,37
 571 1411 571 1411 552 1418 c 4,38,39
 542 1422 542 1422 487 1426 c 4,40,41
 460 1428 460 1428 434 1428 c 4,42,43
 334 1428 334 1428 233 1387 c 4,44,45
 171 1362 171 1362 158 1362 c 4,46,47
 157 1362 157 1362 156 1361 c 4,48,49
 134 1361 134 1361 112 1382 c 4,50,51
 78 1414 78 1414 78 1467 c 4,52,53
 78 1473 78 1473 78 1476 c 4,54,55
 78 1533 78 1533 118 1560 c 4,56,57
 128 1567 128 1567 184 1575 c 4,58,59
 227 1581 227 1581 453 1581 c 5,60,-1
 766 1581 l 5,61,-1
 790 1555 l 6,62,63
 810 1533 810 1533 810 1504 c 4,64,65
 810 1502 810 1502 810 1500 c 4,66,67
 810 1476 810 1476 781 1382 c 6,68,-1
 756 1301 l 5,69,-1
 756 1068 l 5,70,71
 756 583 756 583 790 380 c 4,72,73
 795 350 795 350 795 277 c 4,74,75
 795 231 795 231 793 168 c 4,76,77
 791 106 791 106 791 76 c 4,78,79
 791 6 791 6 767 -53 c 4,80,81
 734 -133 734 -133 699 -192 c 4,82,83
 649 -275 649 -275 626 -285 c 4,84,85
 619 -288 619 -288 590 -314 c 4,86,87
 523 -375 523 -375 450 -391 c 4,88,89
 364 -410 364 -410 357 -410 c 4,90,91
 354 -410 354 -410 322 -404 c 4,0,1
EndSplineSet
Validated: 1
EndChar

StartChar: K
Encoding: 75 75 43
Width: 1473
GlyphClass: 2
Flags: W
HStem: 0 21G<1152.5 1221> 1521 20G<182.5 363.31 1045.5 1141>
VStem: 81 318<1341.17 1526.25> 107 291<39.7188 222.5> 117 235<114.624 551.232> 124 202<784.458 878.874 879.288 1391.54> 991 299<1348.67 1495.56>
LayerCount: 2
Fore
SplineSet
1336 19 m 5,0,-1
 1295 19 l 5,1,2
 1221 19 1221 19 1221 12 c 5,3,-1
 1190 0 l 5,4,-1
 1163 0 l 5,5,6
 1142 6 1142 6 1118 12 c 132,-1,7
 1094 18 1094 18 1072 41 c 4,8,9
 1048 66 1048 66 1043 78 c 4,10,11
 1036 94 1036 94 1029 138 c 4,12,13
 1023 177 1023 177 1005 218 c 4,14,15
 990 252 990 252 844 453 c 4,16,17
 699 653 699 653 669 680 c 4,18,19
 641 706 641 706 606 706 c 4,20,21
 581 706 581 706 552 692 c 4,22,23
 477 656 477 656 426 618 c 4,24,25
 368 575 368 575 360 552 c 4,26,27
 352 528 352 528 352 429 c 6,28,-1
 352 308 l 6,29,30
 352 173 352 173 359 150 c 4,31,32
 365 129 365 129 382 106 c 4,33,34
 398 84 398 84 398 72 c 6,35,-1
 398 58 l 6,36,37
 398 35 398 35 387 25 c 4,38,39
 377 16 377 16 372 12 c 4,40,41
 368 8 368 8 358 8 c 6,42,-1
 345 8 l 5,43,-1
 187 29 l 6,44,45
 139 36 139 36 123 67 c 132,-1,46
 107 98 107 98 107 114 c 4,47,48
 107 134 107 134 114 148 c 4,49,50
 127 175 127 175 122 196 c 4,51,52
 117 216 117 216 117 281 c 4,53,54
 113 333 113 333 113 420 c 4,55,56
 113 496 113 496 121 539 c 4,57,58
 124 621 124 621 124 986 c 4,59,60
 124 1381 124 1381 93 1436 c 4,61,62
 81 1456 81 1456 81 1474 c 4,63,64
 81 1503 81 1503 111 1527 c 4,65,66
 128 1541 128 1541 237 1541 c 5,67,-1
 344 1541 l 5,68,-1
 372 1512 l 6,69,70
 400 1483 400 1483 400 1469 c 5,71,-1
 399 1462 l 6,72,73
 399 1450 399 1450 376 1404 c 4,74,75
 354 1360 354 1360 344.5 1286 c 132,-1,76
 335 1212 335 1212 335 1050 c 4,77,78
 335 887 335 887 329 879 c 4,79,80
 326 875 326 875 326 868 c 4,81,82
 326 851 326 851 345 816 c 4,83,84
 371 771 371 771 409 771 c 4,85,86
 445 771 445 771 493 811 c 4,87,88
 546 856 546 856 627 914 c 4,89,90
 706 970 706 970 725 996 c 4,91,92
 745 1023 745 1023 805 1076 c 4,93,94
 867 1131 867 1131 893 1168 c 132,-1,95
 919 1205 919 1205 945 1244 c 4,96,97
 972 1282 972 1282 972 1304 c 5,98,-1
 985 1338 l 5,99,-1
 991 1379 l 5,100,101
 991 1396 991 1396 979 1439 c 132,-1,102
 967 1482 967 1482 967 1496 c 4,103,104
 967 1509 967 1509 969 1514 c 4,105,106
 982 1549 982 1549 1109 1549 c 6,107,-1
 1131 1549 l 6,108,109
 1151 1546 1151 1546 1190 1546 c 4,110,111
 1203 1546 1203 1546 1243 1520 c 4,112,113
 1281 1495 1281 1495 1289 1444 c 4,114,115
 1290 1434 1290 1434 1290 1426 c 4,116,117
 1290 1390 1290 1390 1267 1370 c 4,118,119
 1237 1345 1237 1345 1206 1294 c 4,120,121
 1174 1242 1174 1242 1044 1093 c 4,122,123
 911 941 911 941 885 927 c 4,124,125
 828 896 828 896 828 846 c 4,126,127
 828 844 l 4,128,129
 828 796 828 796 874 744 c 4,130,131
 925 687 925 687 944 652 c 4,132,133
 968 609 968 609 1047 503 c 4,134,135
 1124 399 1124 399 1158 338 c 4,136,137
 1191 278 1191 278 1277 192 c 4,138,139
 1366 102 1366 102 1374 92 c 4,140,141
 1384 78 1384 78 1384 69 c 132,-1,142
 1384 60 1384 60 1382 54 c 4,143,144
 1369 19 1369 19 1336 19 c 5,0,-1
EndSplineSet
Validated: 1
EndChar

StartChar: L
Encoding: 76 76 44
Width: 1255
GlyphClass: 2
Flags: W
HStem: -4 136<415.992 803> 12 236<940.203 1126.13> 1518 20G<245 449>
VStem: 145 221<184.25 1308.74>
LayerCount: 2
Fore
SplineSet
624 -4 m 5,0,-1
 249 5 l 5,1,2
 192 5 192 5 160.5 20 c 132,-1,3
 129 35 129 35 124 53 c 4,4,5
 121 65 121 65 121 83 c 4,6,7
 122 114 122 114 130 160 c 4,8,9
 144 236 144 236 144 366 c 132,-1,10
 144 496 144 496 144.5 518.5 c 132,-1,11
 145 541 145 541 145 574 c 5,12,-1
 145 804 l 5,13,14
 150 854 150 854 150 920 c 4,15,16
 150 1156 150 1156 119 1319 c 4,17,18
 93 1456 93 1456 93 1492 c 4,19,20
 93 1502 93 1502 95 1505 c 4,21,22
 121 1538 121 1538 369 1538 c 5,23,24
 529 1538 529 1538 555 1520 c 4,25,26
 596 1492 596 1492 596 1455 c 4,27,28
 596 1442 596 1442 585 1428 c 4,29,30
 575 1415 575 1415 536 1400.5 c 132,-1,31
 497 1386 497 1386 479.5 1377.5 c 132,-1,32
 462 1369 462 1369 445.5 1355.5 c 132,-1,33
 429 1342 429 1342 420 1328 c 4,34,35
 413 1317 413 1317 404 1290 c 4,36,37
 382 1223 382 1223 373 1155 c 4,38,39
 358 1039 358 1039 358 991 c 4,40,41
 358 980 358 980 359 973 c 4,42,43
 364 927 364 927 364 835 c 4,44,45
 366 827 366 827 366 738 c 4,46,47
 366 708 366 708 366 670 c 4,48,49
 365 437 365 437 365 435 c 4,50,51
 370 353 370 353 370 304 c 4,52,53
 370 241 370 241 396 203 c 4,54,55
 451 123 451 123 488 123 c 4,56,57
 493 123 493 123 498 124 c 4,58,59
 525 132 525 132 641 132 c 5,60,-1
 803 132 l 5,61,-1
 882 173 l 5,62,63
 961 216 961 216 991.5 232 c 132,-1,64
 1022 248 1022 248 1041 248 c 132,-1,65
 1060 248 1060 248 1078 248 c 4,66,67
 1099 248 1099 248 1127 228 c 4,68,69
 1168 199 1168 199 1168 121 c 4,70,71
 1168 80 1168 80 1149 50 c 4,72,73
 1131 21 1131 21 1108 12 c 4,74,75
 1069 -4 1069 -4 967 -4 c 5,76,-1
 624 -4 l 5,0,-1
EndSplineSet
Validated: 1
EndChar

StartChar: M
Encoding: 77 77 45
Width: 1683
GlyphClass: 2
Flags: W
HStem: 0 21G<224.5 329.5> 1079 392<272.5 430.628>
VStem: 87 295<50.873 159.443> 93 193<171.27 718.727> 201 113<785.171 1050.42> 1272 324<15.7812 211.432>
LayerCount: 2
Fore
SplineSet
799 810 m 6,0,1
 810 808 810 808 828 847 c 132,-1,2
 846 886 846 886 857 908 c 132,-1,3
 868 930 868 930 868 942 c 6,4,-1
 868 957 l 6,5,6
 868 981 868 981 887.5 1074.5 c 132,-1,7
 907 1168 907 1168 927 1221 c 132,-1,8
 947 1274 947 1274 952 1304.5 c 132,-1,9
 957 1335 957 1335 979.5 1395.5 c 132,-1,10
 1002 1456 1002 1456 1012 1470 c 4,11,12
 1044 1515 1044 1515 1180 1515 c 6,13,-1
 1206 1515 l 6,14,15
 1248 1515 1248 1515 1261 1511.5 c 132,-1,16
 1274 1508 1274 1508 1293 1486 c 132,-1,17
 1312 1464 1312 1464 1312 1452 c 132,-1,18
 1312 1440 1312 1440 1312 1428 c 132,-1,19
 1312 1416 1312 1416 1303 1378 c 132,-1,20
 1294 1340 1294 1340 1294 1328 c 6,21,-1
 1294 1316 l 6,22,23
 1294 1307 1294 1307 1321 1197 c 132,-1,24
 1348 1087 1348 1087 1360 1002.5 c 132,-1,25
 1372 918 1372 918 1417.5 777.5 c 132,-1,26
 1463 637 1463 637 1484.5 536.5 c 132,-1,27
 1506 436 1506 436 1524.5 386.5 c 132,-1,28
 1543 337 1543 337 1550 288 c 132,-1,29
 1557 239 1557 239 1576.5 189.5 c 132,-1,30
 1596 140 1596 140 1596 118 c 6,31,-1
 1596 88 l 5,32,33
 1596 61 1596 61 1592 50 c 132,-1,34
 1588 39 1588 39 1570 23 c 132,-1,35
 1552 7 1552 7 1535.5 3.5 c 132,-1,36
 1519 0 1519 0 1454.5 0 c 132,-1,37
 1390 0 1390 0 1382.5 -1 c 132,-1,38
 1375 -2 1375 -2 1365.5 -3.5 c 132,-1,39
 1356 -5 1356 -5 1314 17 c 132,-1,40
 1272 39 1272 39 1272 82 c 4,41,42
 1272 100 1272 100 1288 152 c 4,43,44
 1301 194 1301 194 1301 212 c 4,45,46
 1301 216 1301 216 1300 218 c 4,47,48
 1297 232 1297 232 1297 303 c 132,-1,49
 1297 374 1297 374 1269 444 c 132,-1,50
 1241 514 1241 514 1241 550 c 132,-1,51
 1241 586 1241 586 1192.5 776.5 c 132,-1,52
 1144 967 1144 967 1123 1022 c 4,53,54
 1099 1086 1099 1086 1060 1094 c 5,55,56
 1055 1093 1055 1093 1038 1076 c 132,-1,57
 1021 1059 1021 1059 1006 943.5 c 132,-1,58
 991 828 991 828 981 811 c 132,-1,59
 971 794 971 794 942.5 676 c 132,-1,60
 914 558 914 558 914 409 c 132,-1,61
 914 260 914 260 882 169 c 4,62,63
 869 132 869 132 847 120 c 4,64,65
 821 106 821 106 786.5 116 c 132,-1,66
 752 126 752 126 736.5 143 c 132,-1,67
 721 160 721 160 692.5 235.5 c 132,-1,68
 664 311 664 311 657 360.5 c 132,-1,69
 650 410 650 410 631 472.5 c 132,-1,70
 612 535 612 535 581.5 637.5 c 132,-1,71
 551 740 551 740 533 773 c 132,-1,72
 515 806 515 806 507 842 c 4,73,74
 500 878 500 878 457.5 978.5 c 132,-1,75
 415 1079 415 1079 396 1079 c 4,76,77
 385 1079 385 1079 366.5 1060 c 132,-1,78
 348 1041 348 1041 342 995.5 c 132,-1,79
 336 950 336 950 325 902.5 c 132,-1,80
 314 855 314 855 314 834.5 c 132,-1,81
 314 814 314 814 314.5 810 c 132,-1,82
 315 806 315 806 315 785 c 132,-1,83
 315 764 315 764 300.5 725.5 c 132,-1,84
 286 687 286 687 286 511 c 132,-1,85
 286 335 286 335 293.5 276 c 132,-1,86
 301 217 301 217 341.5 153.5 c 132,-1,87
 382 90 382 90 382 56 c 4,88,89
 382 0 382 0 277 0 c 132,-1,90
 172 0 172 0 128 54 c 4,91,92
 88 102 88 102 87 147 c 4,93,94
 87 152 87 152 88 157 c 4,95,96
 93 207 93 207 93 393.5 c 132,-1,97
 93 580 93 580 151 765 c 4,98,99
 162 801 162 801 174 897 c 4,100,101
 181 956 181 956 194 1007 c 4,102,103
 201 1035 201 1035 201 1055 c 132,-1,104
 201 1075 201 1075 199 1082 c 6,105,-1
 199 1096 l 6,106,107
 199 1144 199 1144 212 1184 c 4,108,109
 219 1205 219 1205 219 1237 c 4,110,111
 219 1266 219 1266 213 1303 c 4,112,113
 201 1381 201 1381 201 1395 c 6,114,-1
 201 1412 l 6,115,116
 201 1431 201 1431 215 1451 c 132,-1,117
 229 1471 229 1471 316 1471 c 4,118,119
 435 1471 435 1471 484 1379 c 4,120,121
 502 1345 502 1345 548 1274.5 c 132,-1,122
 594 1204 594 1204 628 1109 c 4,123,124
 661 1017 661 1017 716 915 c 4,125,126
 769 817 769 817 788 812 c 5,127,-1
 799 810 l 6,0,1
EndSplineSet
Validated: 1
EndChar

StartChar: N
Encoding: 78 78 46
Width: 1400
GlyphClass: 2
Flags: W
HStem: 0 21G<234 379.5> 1506 20G<156 311 1096 1186>
VStem: 223 176<215.477 1064.27> 1110 178<656.032 1356.06>
LayerCount: 2
Fore
SplineSet
1296 76 m 4,0,1
 1302 62 1302 62 1302 51 c 4,2,3
 1302 10 1302 10 1221 10 c 4,4,5
 1182 10 1182 10 1169.5 16.5 c 132,-1,6
 1157 23 1157 23 1130 52 c 132,-1,7
 1103 81 1103 81 1033 216.5 c 132,-1,8
 963 352 963 352 941.5 378 c 132,-1,9
 920 404 920 404 898 446 c 132,-1,10
 876 488 876 488 790 614.5 c 132,-1,11
 704 741 704 741 666.5 809 c 132,-1,12
 629 877 629 877 576 952 c 4,13,14
 525 1025 525 1025 498 1049 c 4,15,16
 468 1076 468 1076 446 1076 c 4,17,18
 425 1076 425 1076 416 1065 c 4,19,20
 399 1044 399 1044 399 733 c 4,21,22
 399 716 399 716 399 698 c 5,23,24
 399 407 399 407 417 313 c 132,-1,25
 435 219 435 219 472 151 c 4,26,27
 518 65 518 65 518 53 c 132,-1,28
 518 41 518 41 513.5 34 c 132,-1,29
 509 27 509 27 503 17.5 c 132,-1,30
 497 8 497 8 488 6 c 4,31,32
 454 0 454 0 305 0 c 6,33,-1
 301 0 l 5,34,35
 167 0 167 0 167 75 c 4,36,37
 167 99 167 99 185 141 c 132,-1,38
 203 183 203 183 203 199 c 6,39,-1
 203 217 l 6,40,41
 203 247 203 247 213 286 c 132,-1,42
 223 325 223 325 223 533 c 6,43,-1
 223 790 l 6,44,45
 223 1230 223 1230 208 1283 c 4,46,47
 193 1337 193 1337 164 1370 c 4,48,49
 95 1449 95 1449 90 1481 c 5,50,-1
 90 1495 l 6,51,52
 90 1526 90 1526 222 1526 c 6,53,-1
 280 1526 l 6,54,55
 342 1526 342 1526 369 1508 c 132,-1,56
 396 1490 396 1490 407 1479 c 132,-1,57
 418 1468 418 1468 464.5 1422.5 c 132,-1,58
 511 1377 511 1377 600 1264 c 132,-1,59
 689 1151 689 1151 744 1063.5 c 132,-1,60
 799 976 799 976 841.5 925 c 132,-1,61
 884 874 884 874 936 798 c 4,62,63
 1020 679 1020 679 1048 662 c 4,64,65
 1058 656 1058 656 1070 656 c 4,66,67
 1110 656 1110 656 1110 789 c 5,68,69
 1101 1130 1101 1130 1101 1231 c 132,-1,70
 1101 1332 1101 1332 1038 1386 c 4,71,72
 1014 1407 1014 1407 992 1449 c 4,73,74
 971 1488 971 1488 976 1507 c 5,75,76
 982 1524 982 1524 1025 1538 c 4,77,78
 1069 1553 1069 1553 1123 1553 c 4,79,80
 1249 1553 1249 1553 1293 1490 c 4,81,82
 1316 1457 1316 1457 1312 1439 c 5,83,84
 1312 1412 1312 1412 1298 1300 c 4,85,86
 1285 1187 1285 1187 1285 986.5 c 132,-1,87
 1285 786 1285 786 1288 626 c 132,-1,88
 1291 466 1291 466 1292.5 306.5 c 132,-1,89
 1294 147 1294 147 1294 114.5 c 132,-1,90
 1294 82 1294 82 1296 76 c 4,0,1
EndSplineSet
Validated: 1
EndChar

StartChar: O
Encoding: 79 79 47
Width: 1522
GlyphClass: 2
Flags: W
HStem: -28 174<609.748 963.155> 17 129<609.748 963.155> 1421 163<546.011 877.559>
VStem: 89 235<484.094 1099.62> 1164 266<491.645 1067.81>
LayerCount: 2
Fore
SplineSet
577 -11 m 4,0,1
 443 31 443 31 300 164 c 4,2,3
 264 198 264 198 244.5 227 c 132,-1,4
 225 256 225 256 191 327 c 4,5,6
 134 444 134 444 112 553 c 4,7,8
 89 667 89 667 89 831 c 4,9,10
 89 882 l 4,11,12
 91 951 91 951 91 975 c 4,13,14
 91 1006 91 1006 108 1038 c 4,15,16
 119 1059 119 1059 154 1154 c 4,17,18
 206 1295 206 1295 302 1389.5 c 132,-1,19
 398 1484 398 1484 546 1540 c 4,20,21
 601 1561 601 1561 634.5 1572.5 c 132,-1,22
 668 1584 668 1584 756 1584 c 5,23,-1
 885 1584 l 5,24,-1
 963 1546 l 6,25,26
 1122 1470 1122 1470 1221 1371 c 4,27,28
 1272 1321 1272 1321 1323.5 1221.5 c 132,-1,29
 1375 1122 1375 1122 1391 1043 c 4,30,31
 1404 980 1404 980 1419 931 c 4,32,33
 1432 891 1432 891 1432 855 c 4,34,35
 1432 842 1432 842 1430 830 c 4,36,37
 1424 782 1424 782 1424 717 c 4,38,39
 1424 560 1424 560 1383 487 c 4,40,41
 1372 468 1372 468 1364 420 c 4,42,43
 1358 388 1358 388 1325 334.5 c 132,-1,44
 1292 281 1292 281 1276 248 c 4,45,46
 1251 200 1251 200 1190 146.5 c 132,-1,47
 1129 93 1129 93 1060 59 c 4,48,49
 975 17 975 17 966 17 c 132,-1,50
 957 17 957 17 890 -5 c 4,51,52
 821 -28 821 -28 732 -28 c 4,53,54
 723 -28 723 -28 715 -28 c 4,55,56
 631 -28 631 -28 577 -11 c 4,0,1
940 175 m 4,57,58
 1025 227 1025 227 1072 294 c 4,59,60
 1104 340 1104 340 1145 471 c 4,61,62
 1159 516 1159 516 1164 577 c 4,63,64
 1168 622 1168 622 1168 663 c 4,65,66
 1168 679 1168 679 1167 695 c 4,67,68
 1166 719 1166 719 1166 746 c 4,69,70
 1162 864 1162 864 1162 912 c 132,-1,71
 1162 960 1162 960 1147 1014 c 4,72,73
 1110 1144 1110 1144 1064 1210 c 4,74,75
 1008 1289 1008 1289 903 1360 c 4,76,77
 836 1406 836 1406 760 1417 c 4,78,79
 733 1421 733 1421 705 1421 c 4,80,81
 655 1421 655 1421 606 1407 c 4,82,83
 575 1398 575 1398 548 1380 c 132,-1,84
 521 1362 521 1362 455 1309 c 4,85,86
 431 1288 431 1288 397 1224 c 4,87,88
 377 1186 377 1186 343 1094 c 4,89,90
 328 1054 328 1054 326 1010 c 4,91,92
 324 944 324 944 324 892 c 4,93,94
 324 863 324 863 325 840 c 4,95,96
 328 733 328 733 328 661 c 4,97,98
 328 626 328 626 351 543 c 4,99,100
 378 444 378 444 403 397 c 4,101,102
 432 342 432 342 491 280 c 4,103,104
 617 146 617 146 810 146 c 4,105,106
 820 146 820 146 829 146 c 4,107,108
 868 146 868 146 892 152 c 4,109,110
 912 158 912 158 940 175 c 4,57,58
EndSplineSet
Validated: 1
EndChar

StartChar: P
Encoding: 80 80 48
Width: 1411
GlyphClass: 2
Flags: W
HStem: 0 21G<327.75 633.5> 628 131<563.871 860.295> 1455 114<531.947 865.867>
VStem: 246 232<213 1365> 1104 222<995.292 1287.32>
LayerCount: 2
Fore
SplineSet
709 64 m 4,0,1
 718 49 718 49 718 38 c 4,2,3
 718 14 718 14 684 5 c 4,4,5
 664 0 664 0 603 0 c 4,6,7
 584 0 l 4,8,9
 507 0 507 0 387.5 0 c 132,-1,10
 268 0 268 0 246 9.5 c 132,-1,11
 224 19 224 19 210 27.5 c 132,-1,12
 196 36 196 36 188 56 c 5,13,-1
 188 86 l 5,14,15
 188 107 188 107 216 160 c 6,16,-1
 246 213 l 5,17,-1
 246 759 l 5,18,19
 247 885 247 885 247 937 c 4,20,21
 247 963 247 963 247 971 c 4,22,23
 241 1201 241 1201 241 1292 c 4,24,25
 241 1363 241 1363 208 1389 c 4,26,27
 196 1398 196 1398 174 1412 c 4,28,29
 148 1430 148 1430 118 1456 c 132,-1,30
 88 1482 88 1482 88 1491 c 132,-1,31
 88 1500 88 1500 155.5 1520 c 132,-1,32
 223 1540 223 1540 298 1549 c 4,33,34
 456 1569 456 1569 631 1569 c 4,35,36
 756 1569 756 1569 851 1553 c 4,37,38
 1319 1474 1319 1474 1326 1275 c 4,39,40
 1326 1261 1326 1261 1325 1236 c 132,-1,41
 1324 1211 1324 1211 1324 1147.5 c 132,-1,42
 1324 1084 1324 1084 1310 1036 c 132,-1,43
 1296 988 1296 988 1246 903 c 4,44,45
 1138 722 1138 722 887 650 c 4,46,47
 810 628 810 628 725 628 c 4,48,49
 723 628 723 628 721 628 c 4,50,51
 634 628 634 628 601.5 647 c 132,-1,52
 569 666 569 666 561 676 c 132,-1,53
 553 686 553 686 553 704 c 4,54,55
 553 759 553 759 645 759 c 132,-1,56
 737 759 737 759 827 790.5 c 132,-1,57
 917 822 917 822 968 866.5 c 132,-1,58
 1019 911 1019 911 1061 998 c 4,59,60
 1104 1087 1104 1087 1104 1159 c 4,61,62
 1104 1362 1104 1362 770 1440 c 4,63,64
 706 1455 706 1455 659 1455 c 4,65,66
 633 1455 633 1455 616 1451 c 4,67,68
 556 1437 556 1437 506 1391 c 6,69,-1
 478 1365 l 5,70,-1
 478 212 l 5,71,-1
 511 176 l 6,72,73
 549 134 549 134 616 121 c 132,-1,74
 683 108 683 108 709 64 c 4,0,1
EndSplineSet
Validated: 1
EndChar

StartChar: Q
Encoding: 81 81 49
Width: 1619
GlyphClass: 2
Flags: W
HStem: -15 173<586.676 918.622> 15 195<1260.1 1507.45> 1407 156<511.995 825.866>
VStem: 84 233<526.117 1079.93> 1129.5 191.5<357.731 752.412> 1131 235<458.656 1060.27>
LayerCount: 2
Fore
SplineSet
572 8 m 4,0,1
 489 37 489 37 449 62 c 4,2,3
 412 85 412 85 330 167 c 4,4,5
 219 279 219 279 172 388 c 4,6,7
 123 501 123 501 94 702 c 4,8,9
 84 771 84 771 84 831 c 4,10,11
 84 869 84 869 87 896 c 4,12,13
 97 981 97 981 137 1107 c 4,14,15
 162 1185 162 1185 180 1222 c 132,-1,16
 198 1259 198 1259 238 1312 c 4,17,18
 289 1379 289 1379 333 1419 c 132,-1,19
 377 1459 377 1459 445 1498 c 4,20,21
 519 1540 519 1540 573 1552 c 4,22,23
 623 1563 623 1563 657 1563 c 4,24,25
 665 1563 665 1563 672 1562 c 4,26,27
 697 1560 697 1560 719 1560 c 4,28,29
 872 1560 872 1560 942 1514 c 4,30,31
 1084 1421 1084 1421 1136 1372 c 4,32,33
 1194 1317 1194 1317 1218 1286 c 4,34,35
 1243 1252 1243 1252 1273 1189 c 4,36,37
 1311 1108 1311 1108 1328 1044 c 4,38,39
 1348 971 1348 971 1360 860 c 4,40,41
 1366 805 1366 805 1366 756 c 4,42,43
 1366 641 1366 641 1340 548 c 4,44,45
 1321 480 1321 480 1321 460 c 4,46,47
 1321 436 1321 436 1287 377 c 4,48,49
 1254 320 1254 320 1254 274 c 4,50,51
 1254 266 1254 266 1258 253 c 4,52,53
 1271 210 1271 210 1369 210 c 4,54,55
 1439 210 1439 210 1466 193 c 4,56,57
 1509 166 1509 166 1514 160 c 4,58,59
 1534 136 1534 136 1534 100 c 4,60,-1
 1534 93 l 4,61,62
 1530 57 1530 57 1519 46 c 4,63,64
 1488 15 1488 15 1459 15 c 4,65,66
 1445 15 1445 15 1431 22 c 4,67,68
 1429 23 1429 23 1412 23 c 4,69,70
 1330 23 1330 23 1229 61 c 4,71,72
 1168 84 1168 84 1128 84 c 4,73,74
 1127 84 1127 84 1126 84 c 4,75,76
 1063 64 l 4,77,78
 969 34 969 34 902 12 c 4,79,80
 827 -15 827 -15 717 -15 c 4,81,82
 638 -15 638 -15 572 8 c 4,0,1
919 177 m 132,-1,84
 931 191 931 191 931 209 c 4,85,86
 931 238 931 238 900 281 c 4,87,88
 864 330 864 330 847 366 c 4,89,90
 826 409 826 409 826 428 c 4,91,92
 826 445 826 445 847 452 c 4,93,94
 856 455 856 455 865 455 c 4,95,96
 879 455 879 455 895 449 c 4,97,98
 921 439 921 439 974 385 c 4,99,100
 1026 332 1026 332 1056 332 c 4,101,-1
 1060 332 l 4,102,103
 1085 332 1085 332 1113 406 c 4,104,105
 1128 445 1128 445 1129.5 494 c 132,-1,106
 1131 543 1131 543 1131 700 c 4,107,-1
 1131 815 l 4,108,109
 1128 862 1128 862 1128 896 c 132,-1,110
 1128 930 1128 930 1121 958 c 4,111,112
 1112 996 1112 996 1107 1009 c 4,113,114
 1096 1042 1096 1042 1085 1064 c 4,115,116
 1080 1075 1080 1075 1051 1130 c 4,117,118
 994 1239 994 1239 924 1300 c 4,119,120
 853 1362 853 1362 747 1392 c 4,121,122
 695 1407 695 1407 652 1407 c 4,123,-1
 641 1407 l 4,124,125
 602 1407 602 1407 547 1382 c 4,126,127
 414 1322 414 1322 338 1115 c 4,128,129
 324 1078 324 1078 320 1023 c 4,130,131
 317 985 317 985 317 865 c 4,132,-1
 317 845 l 4,133,134
 317 696 317 696 321 666 c 4,135,136
 329 605 329 605 340 564 c 4,137,138
 405 316 405 316 574 210 c 4,139,140
 619 182 619 182 665 167 c 4,141,142
 693 158 693 158 744 158 c 4,143,144
 757 158 757 158 826 158 c 4,145,146
 880 158 880 158 882 160 c 4,147,83
 907 163 907 163 919 177 c 132,-1,84
EndSplineSet
Validated: 1
EndChar

StartChar: R
Encoding: 82 82 50
Width: 1538
GlyphClass: 2
Flags: W
HStem: 0 21G<323 457.5> 669 146<542.783 794.949> 1449 102<499.16 898.75>
VStem: 242 217<78.4844 657.585 801.496 1343.65> 1107 237<1004 1274.02>
LayerCount: 2
Fore
SplineSet
496 15 m 6,0,1
 475 0 475 0 440 -0 c 4,2,3
 396 0 396 0 352 0 c 4,4,5
 294 0 294 0 229 28 c 4,6,7
 201 40 201 40 201 64 c 5,8,-1
 201 93 l 6,9,10
 201 115 201 115 218 160 c 4,11,12
 240 218 240 218 241 307.5 c 132,-1,13
 242 397 242 397 242 632 c 4,14,15
 242 1094 l 4,16,17
 242 1319 242 1319 235 1344.5 c 132,-1,18
 228 1370 228 1370 158 1415 c 132,-1,19
 88 1460 88 1460 84.5 1466 c 132,-1,20
 81 1472 81 1472 81 1476 c 4,21,22
 81 1492 81 1492 124 1508 c 4,23,24
 239 1551 239 1551 505 1551 c 6,25,-1
 570 1551 l 6,26,27
 580 1546 580 1546 735 1546 c 4,28,29
 859 1546 859 1546 1017 1502 c 4,30,31
 1185 1456 1185 1456 1260 1393 c 4,32,33
 1344 1323 1344 1323 1344 1186 c 4,34,35
 1344 1082 1344 1082 1287 978 c 4,36,37
 1258 925 1258 925 1230 904 c 4,38,39
 1118 818 1118 818 1076 784 c 4,40,41
 1033 749 1033 749 1029 726 c 5,42,-1
 1029 706 l 5,43,44
 1033 675 1033 675 1070 634 c 4,45,46
 1119 579 1119 579 1280 340 c 4,47,48
 1448 89 1448 89 1448 71 c 132,-1,49
 1448 53 1448 53 1432 38 c 4,50,51
 1413 21 1413 21 1380 15.5 c 132,-1,52
 1347 10 1347 10 1279 10 c 4,53,54
 1214 10 1214 10 1198.5 12.5 c 132,-1,55
 1183 15 1183 15 1165 31 c 132,-1,56
 1147 47 1147 47 1139.5 66.5 c 132,-1,57
 1132 86 1132 86 1120 155 c 4,58,59
 1109 223 1109 223 1059 309 c 132,-1,60
 1009 395 1009 395 920 510 c 4,61,62
 829 626 829 626 796 647.5 c 132,-1,63
 763 669 763 669 648 669 c 4,64,65
 541 669 541 669 512 661 c 4,66,67
 470 649 470 649 462 571 c 4,68,69
 459 540 459 540 459 429 c 5,70,-1
 459 420 l 5,71,72
 464 311 464 311 464 255 c 4,73,74
 464 194 464 194 488 137 c 6,75,-1
 517 30 l 5,76,-1
 496 15 l 6,0,1
703 815 m 4,77,78
 706 815 l 4,79,80
 849 815 849 815 969 900 c 4,81,82
 1099 992 1099 992 1105 1045 c 4,83,84
 1107 1063 1107 1063 1107 1153.5 c 132,-1,85
 1107 1244 1107 1244 1091 1275 c 132,-1,86
 1075 1306 1075 1306 1006.5 1353.5 c 132,-1,87
 938 1401 938 1401 821.5 1425 c 132,-1,88
 705 1449 705 1449 649 1449 c 4,89,90
 521 1449 521 1449 488 1390 c 4,91,92
 454 1330 454 1330 454 1223 c 4,93,94
 454 981 454 981 470 882 c 4,95,96
 485 787 485 787 542 787 c 4,97,98
 567 787 567 787 599 805 c 4,99,100
 617 815 617 815 703 815 c 4,77,78
EndSplineSet
Validated: 1
EndChar

StartChar: S
Encoding: 83 83 51
Width: 1234
GlyphClass: 2
Flags: W
HStem: 0 143<443.25 807.965> 1411 141<330.25 694.352>
VStem: 89 130<1132.48 1321.58>
LayerCount: 2
Fore
SplineSet
554 9 m 0,0,1
 483 20 483 20 452 32 c 0,2,3
 423 42 423 42 326 89 c 0,4,5
 215 143 215 143 173 182 c 0,6,7
 143 209 143 209 132.5 228.5 c 128,-1,8
 122 248 122 248 106 306 c 0,9,10
 92 358 92 358 86 403 c 0,11,12
 83 426 83 426 83 443 c 0,13,14
 83 458 83 458 85 468 c 0,15,16
 90 491 90 491 104 491 c 0,17,18
 116 491 116 491 148.5 455.5 c 128,-1,19
 181 420 181 420 195 392 c 0,20,21
 215 351 215 351 241.5 322 c 128,-1,22
 268 293 268 293 318 256 c 0,23,24
 429 173 429 173 597 149 c 0,25,26
 639 143 639 143 662 143 c 0,27,28
 670 143 670 143 676 144 c 0,29,30
 700 148 700 148 755 168 c 0,31,32
 834 196 834 196 845 205.5 c 128,-1,33
 856 215 856 215 893 288 c 2,34,-1
 929 362 l 1,35,-1
 901 455 l 2,36,37
 880 522 880 522 867 543.5 c 128,-1,38
 854 565 854 565 809 612 c 0,39,40
 782 639 782 639 752.5 662 c 128,-1,41
 723 685 723 685 708 691 c 0,42,43
 672 706 672 706 618 729 c 0,44,45
 582 744 582 744 497 770 c 128,-1,46
 412 796 412 796 338 814 c 0,47,48
 309 822 309 822 259.5 856 c 128,-1,49
 210 890 210 890 170 929 c 0,50,51
 122 977 122 977 99 1090 c 0,52,53
 89 1139 89 1139 89 1177 c 0,54,55
 89 1226 89 1226 105 1257 c 0,56,57
 118 1282 118 1282 127 1324 c 0,58,59
 136 1364 136 1364 164 1405 c 128,-1,60
 192 1446 192 1446 216 1455 c 128,-1,61
 240 1464 240 1464 280 1485 c 128,-1,62
 320 1506 320 1506 401 1531 c 0,63,64
 456 1547 456 1547 482 1550 c 0,65,66
 503 1553 503 1553 518 1552 c 0,67,68
 535 1551 535 1551 559 1551 c 0,69,70
 630 1551 630 1551 741 1520 c 0,71,72
 850 1490 850 1490 872 1472 c 0,73,74
 893 1455 893 1455 908 1438 c 0,75,76
 929 1414 929 1414 944 1391 c 0,77,78
 997 1310 997 1310 997 1266 c 0,79,80
 997 1265 997 1265 997 1264 c 0,81,82
 997 1214 997 1214 939 1214 c 0,83,84
 934 1214 934 1214 929 1214 c 0,85,86
 910 1214 910 1214 898 1220 c 128,-1,87
 886 1226 886 1226 839 1269 c 0,88,89
 782 1323 782 1323 722 1354 c 0,90,91
 666 1383 666 1383 587 1400 c 0,92,93
 536 1411 536 1411 493 1411 c 0,94,95
 471 1411 471 1411 452 1408 c 0,96,97
 367 1395 367 1395 342 1384 c 0,98,99
 311 1371 311 1371 274 1333 c 0,100,101
 235 1293 235 1293 222 1254 c 0,102,103
 219 1245 219 1245 219 1235 c 0,104,105
 219 1210 219 1210 235 1180 c 0,106,107
 255 1142 255 1142 293 1090 c 0,108,109
 331 1039 331 1039 350 1027 c 0,110,111
 374 1012 374 1012 511 977 c 0,112,113
 673 936 673 936 765 893.5 c 128,-1,114
 857 851 857 851 965 768 c 0,115,116
 1027 721 1027 721 1075.5 638 c 128,-1,117
 1124 555 1124 555 1145 459 c 0,118,119
 1152 429 1152 429 1152 404.5 c 128,-1,120
 1152 380 1152 380 1145 335 c 0,121,122
 1136 275 1136 275 1123.5 239.5 c 128,-1,123
 1111 204 1111 204 1101 204 c 0,124,125
 1092 204 1092 204 1051 148 c 0,126,127
 1020 106 1020 106 984.5 78 c 128,-1,128
 949 50 949 50 892 22 c 0,129,130
 867 10 867 10 838 6 c 0,131,132
 787 -0 787 -0 739 0 c 0,133,134
 717 0 717 0 696 0 c 0,135,136
 612 0 612 0 554 9 c 0,0,1
EndSplineSet
Validated: 1
EndChar

StartChar: T
Encoding: 84 84 52
Width: 1383
GlyphClass: 2
Flags: W
HStem: 0 21G<539.667 817.5> 1299 256<120.127 251.075> 1416 140<304.189 554.875 845.533 1061.96>
VStem: 568 250<642.043 1361> 588 230<254.421 1013.94>
LayerCount: 2
Fore
SplineSet
537 24 m 6,0,1
 522 52 522 52 522 62 c 6,2,3
 522 74 l 5,4,5
 524 92 524 92 546 124 c 4,6,7
 568 158 568 158 572 186 c 4,8,9
 588 292 588 292 588 399 c 4,10,11
 588 426 588 426 587 452 c 4,12,13
 568 987 568 987 568 1221 c 5,14,-1
 568 1361 l 5,15,-1
 533 1388 l 6,16,17
 497 1416 497 1416 460.5 1416 c 132,-1,18
 424 1416 424 1416 360 1394 c 4,19,20
 300 1374 300 1374 242 1338 c 4,21,22
 175 1299 175 1299 152 1299 c 132,-1,23
 129 1299 129 1299 107 1316.5 c 132,-1,24
 85 1334 85 1334 83.5 1348 c 132,-1,25
 82 1362 82 1362 82 1378.5 c 132,-1,26
 82 1395 82 1395 87.5 1428.5 c 132,-1,27
 93 1462 93 1462 96.5 1489.5 c 132,-1,28
 100 1517 100 1517 119.5 1535.5 c 132,-1,29
 139 1554 139 1554 231.5 1555 c 132,-1,30
 324 1556 324 1556 426 1556 c 4,31,32
 1239 1556 l 5,33,-1
 1260 1527 l 6,34,35
 1298 1474 1298 1474 1298 1410 c 4,36,37
 1298 1385 1298 1385 1292 1358 c 4,38,39
 1273 1268 1273 1268 1236 1256 c 4,40,41
 1233 1255 1233 1255 1229 1255 c 4,42,43
 1194 1255 1194 1255 1119 1325 c 4,44,45
 1021 1417 1021 1417 936 1417 c 4,46,47
 894 1417 894 1417 864 1391 c 4,48,49
 828 1360 828 1360 825 1320 c 4,50,51
 818 1224 818 1224 818 823 c 132,-1,52
 818 422 818 422 835.5 300.5 c 132,-1,53
 853 179 853 179 880 137 c 4,54,55
 934 50 934 50 934 36 c 132,-1,56
 934 22 934 22 928 18 c 4,57,58
 903 0 903 0 732 0 c 5,59,-1
 553 0 l 5,60,-1
 537 24 l 6,0,1
EndSplineSet
Validated: 1
EndChar

StartChar: U
Encoding: 85 85 53
Width: 1438
GlyphClass: 2
Flags: W
HStem: 0 126<583.498 943.631> 1559 20G<233 334.5 1052.5 1194>
VStem: 93 235<469.025 1363.57> 1144 194<341.314 904.397> 1161 187<412.107 1292.93>
LayerCount: 2
Fore
SplineSet
985 1529 m 5,0,1
 985 1579 985 1579 1120 1579 c 4,2,3
 1174 1579 l 4,4,5
 1214 1579 1214 1579 1246 1567 c 132,-1,6
 1278 1555 1278 1555 1286.5 1543 c 132,-1,7
 1295 1531 1295 1531 1303 1490 c 4,8,9
 1308 1464 1308 1464 1324 1398 c 4,10,11
 1348 1298 1348 1298 1348 1149 c 4,12,13
 1348 1098 1348 1098 1345 1040 c 4,14,15
 1343 990 1343 990 1340.5 940.5 c 132,-1,16
 1338 891 1338 891 1338 735 c 4,17,18
 1338 466 1338 466 1311 394 c 4,19,20
 1287 304 1287 304 1265 250.5 c 132,-1,21
 1243 197 1243 197 1209.5 155 c 132,-1,22
 1176 113 1176 113 1134 87 c 4,23,24
 1092 60 1092 60 1030 36 c 4,25,26
 969 12 969 12 935 8 c 4,27,28
 873 0 873 0 731 0 c 132,-1,29
 589 0 589 0 556.5 10 c 132,-1,30
 524 20 524 20 443 60 c 132,-1,31
 362 100 362 100 336.5 118 c 132,-1,32
 311 136 311 136 268 187 c 4,33,34
 186 282 186 282 139.5 460.5 c 132,-1,35
 93 639 93 639 93 997 c 4,36,37
 93 1315 93 1315 110.5 1404.5 c 132,-1,38
 128 1494 128 1494 157.5 1527 c 132,-1,39
 187 1560 187 1560 279 1560 c 4,40,41
 282 1560 282 1560 286 1560 c 4,42,43
 383 1560 383 1560 411.5 1534 c 132,-1,44
 440 1508 440 1508 440 1488 c 132,-1,45
 440 1468 440 1468 408 1422 c 132,-1,46
 376 1376 376 1376 364 1344 c 4,47,48
 328 1243 328 1243 328 1020 c 4,49,50
 328 606 328 606 361 497 c 4,51,52
 378 441 378 441 378 413 c 4,53,54
 378 390 378 390 410 339 c 132,-1,55
 442 288 442 288 482.5 246.5 c 132,-1,56
 523 205 523 205 581 172 c 4,57,58
 663 126 663 126 705.5 126 c 132,-1,59
 748 126 748 126 826 138 c 132,-1,60
 904 150 904 150 946 172 c 132,-1,61
 988 194 988 194 1048 267 c 4,62,63
 1110 341 1110 341 1110 380 c 4,64,65
 1110 381 1110 381 1110 390 c 132,-1,66
 1110 399 1110 399 1124 427 c 4,67,68
 1144 487 1144 487 1144 679 c 5,69,70
 1144 757 1144 757 1152.5 798 c 132,-1,71
 1161 839 1161 839 1161 906.5 c 132,-1,72
 1161 974 1161 974 1141.5 1143 c 132,-1,73
 1122 1312 1122 1312 1086 1376 c 5,74,75
 1067 1413 1067 1413 1028 1459 c 4,76,77
 985 1510 985 1510 985 1526 c 4,78,79
 985 1528 985 1528 985 1529 c 5,0,1
EndSplineSet
Validated: 1
EndChar

StartChar: V
Encoding: 86 86 54
Width: 1388
GlyphClass: 2
Flags: W
HStem: -18 310<675.458 796.685> 1521 20G<1148.5 1164>
VStem: 83 269<1158.46 1492.48> 83 241<1158.46 1437.31> 990 312<1362.16 1513.81> 1057 243<1101.98 1400.92>
LayerCount: 2
Fore
SplineSet
658 0 m 4,0,1
 622 23 622 23 588 68 c 4,2,3
 554 112 554 112 513 194 c 4,4,5
 471 278 471 278 389 477.5 c 132,-1,6
 307 677 307 677 266 796 c 4,7,8
 232 895 232 895 193 976 c 132,-1,9
 154 1057 154 1057 137.5 1122 c 132,-1,10
 121 1187 121 1187 102 1250 c 4,11,12
 91 1285 91 1285 84 1371 c 4,13,14
 83 1383 83 1383 83 1393 c 4,15,16
 83 1443 83 1443 94 1463 c 4,17,18
 114 1499 114 1499 187 1509 c 4,19,20
 209 1512 209 1512 230 1512 c 4,21,22
 277 1512 277 1512 313 1494 c 4,23,24
 345 1478 345 1478 350 1451 c 4,25,26
 352 1439 352 1439 352 1438 c 4,27,28
 352 1416 352 1416 337 1371 c 4,29,30
 325 1335 325 1335 324 1330 c 4,31,-1
 324 1310 l 4,32,33
 324 1298 324 1298 337 1241 c 4,34,35
 371 1092 371 1092 437 895 c 4,36,37
 507 687 507 687 566 561 c 4,38,39
 601 487 601 487 642 400 c 4,40,41
 673 334 673 334 693 313 c 132,-1,42
 713 292 713 292 746 292 c 4,43,44
 769 292 769 292 786 317 c 4,45,46
 801 341 801 341 845 442 c 4,47,48
 896 559 896 559 936 681 c 4,49,50
 974 793 974 793 1025 982 c 4,51,52
 1044 1053 1044 1053 1050 1096 c 4,53,54
 1057 1148 1057 1148 1057 1212 c 4,55,56
 1057 1228 1057 1228 1057 1241 c 4,57,58
 1057 1301 1057 1301 1054 1319 c 4,59,60
 1050 1338 1050 1338 1024 1381 c 4,61,62
 990 1436 990 1436 990 1471 c 4,63,64
 990 1485 990 1485 997 1499 c 4,65,66
 1015 1534 1015 1534 1122 1540 c 4,67,68
 1141 1541 1141 1541 1156 1541 c 4,69,70
 1172 1541 1172 1541 1193 1538.5 c 132,-1,71
 1214 1536 1214 1536 1241 1523 c 4,72,73
 1265 1511 1265 1511 1276 1501 c 4,74,75
 1287 1495 1287 1495 1295 1476 c 4,76,77
 1302 1459 1302 1459 1302 1435 c 4,78,79
 1302 1428 l 4,80,81
 1300 1402 1300 1402 1300 1357 c 5,82,83
 1300 1209 1300 1209 1208 952 c 4,84,85
 1187 894 1187 894 1150 762 c 4,86,87
 1121 663 1121 663 1090 585.5 c 132,-1,88
 1059 508 1059 508 998 385 c 4,89,90
 923 233 923 233 923 227 c 4,91,92
 923 214 923 214 870 130 c 4,93,94
 815 43 815 43 793 20 c 4,95,96
 756 -18 756 -18 716 -18 c 4,97,98
 687 -18 687 -18 658 0 c 4,0,1
EndSplineSet
Validated: 1
EndChar

StartChar: W
Encoding: 87 87 55
Width: 2013
GlyphClass: 2
Flags: W
HStem: 0 21G<1338 1420.5> 1512 20G<165 245.5 836 908 1736 1788>
VStem: 82 276<1336.82 1464.84> 744 270<1283.99 1509.32> 1679 250<1144.17 1423.62>
LayerCount: 2
Fore
SplineSet
619 67 m 4,0,1
 574 114 574 114 551.5 147 c 132,-1,2
 529 180 529 180 505 229 c 4,3,4
 466 312 466 312 456 348 c 132,-1,5
 446 384 446 384 414 445 c 4,6,7
 389 494 389 494 350.5 582.5 c 132,-1,8
 312 671 312 671 312 680 c 4,9,10
 312 692 312 692 277 795 c 4,11,12
 242 895 242 895 218 951 c 4,13,14
 182 1035 182 1035 147 1142 c 4,15,16
 115 1244 115 1244 96 1332 c 4,17,18
 82 1397 82 1397 82 1435 c 4,19,20
 82 1445 82 1445 83 1452 c 4,21,22
 89 1492 89 1492 115 1515 c 4,23,24
 134 1532 134 1532 196 1532 c 4,25,26
 203 1532 203 1532 210 1532 c 4,27,28
 281 1532 281 1532 316 1510 c 4,29,30
 352 1488 352 1488 357 1465 c 4,31,32
 358 1460 358 1460 358 1454 c 4,33,34
 358 1434 358 1434 343 1405 c 4,35,36
 321 1362 321 1362 321 1336 c 4,37,38
 321 1300 321 1300 357 1171 c 132,-1,39
 393 1042 393 1042 429 951 c 4,40,41
 445 910 445 910 455 863 c 132,-1,42
 465 816 465 816 478.5 795 c 132,-1,43
 492 774 492 774 527.5 685 c 132,-1,44
 563 596 563 596 595.5 519.5 c 132,-1,45
 628 443 628 443 641 408.5 c 132,-1,46
 654 374 654 374 670 347 c 4,47,48
 684 323 684 323 714 303 c 4,49,50
 738 287 738 287 751 287 c 4,51,52
 754 287 754 287 757 288 c 4,53,54
 766 291 766 291 776 307 c 132,-1,55
 786 323 786 323 817 384 c 4,56,57
 830 408 830 408 853.5 490 c 132,-1,58
 877 572 877 572 889 632 c 4,59,60
 895 662 895 662 907 724 c 4,61,62
 913 755 913 755 913 789 c 4,63,64
 913 818 913 818 908 850 c 4,65,66
 897 922 897 922 857 1043 c 4,67,68
 820 1158 820 1158 782 1309 c 132,-1,69
 744 1460 744 1460 744 1489 c 4,70,71
 744 1516 744 1516 772 1526.5 c 132,-1,72
 800 1537 800 1537 872 1537 c 132,-1,73
 944 1537 944 1537 981.5 1526.5 c 132,-1,74
 1019 1516 1019 1516 1031 1493 c 4,75,76
 1040 1476 1040 1476 1040 1456 c 4,77,78
 1040 1454 1040 1454 1040 1452 c 4,79,80
 1040 1431 1040 1431 1027 1415 c 4,81,82
 1014 1397 1014 1397 1014 1327 c 4,83,84
 1014 1284 1014 1284 1020.5 1249 c 132,-1,85
 1027 1214 1027 1214 1049 1147 c 4,86,87
 1130 893 1130 893 1179.5 756.5 c 132,-1,88
 1229 620 1229 620 1278 514 c 4,89,90
 1329 403 1329 403 1352 366.5 c 132,-1,91
 1375 330 1375 330 1397 330 c 4,92,93
 1427 330 1427 330 1442 345 c 132,-1,94
 1457 360 1457 360 1469 400 c 4,95,96
 1484 452 1484 452 1513.5 510.5 c 132,-1,97
 1543 569 1543 569 1567 641 c 4,98,99
 1593 717 1593 717 1601 731 c 4,100,101
 1613 751 1613 751 1639 885 c 4,102,103
 1660 970 1660 970 1671 1094 c 4,104,105
 1679 1186 1679 1186 1679 1241 c 4,106,107
 1679 1251 1679 1251 1679 1268 c 4,108,109
 1679 1316 1679 1316 1656 1370 c 4,110,111
 1638 1411 1638 1411 1629 1438 c 4,112,113
 1618 1471 1618 1471 1618 1487 c 4,114,115
 1618 1491 1618 1491 1618 1495 c 4,116,117
 1618 1510 1618 1510 1623 1520 c 4,118,119
 1629 1532 1629 1532 1647.5 1540.5 c 132,-1,120
 1666 1549 1666 1549 1691 1552 c 132,-1,121
 1716 1555 1716 1555 1756 1555 c 4,122,123
 1820 1555 1820 1555 1854 1541 c 132,-1,124
 1888 1527 1888 1527 1912 1492 c 4,125,126
 1927 1470 1927 1470 1929 1451 c 4,127,128
 1931 1437 1931 1437 1930 1425 c 4,129,130
 1929 1406 1929 1406 1929 1370 c 4,131,132
 1929 1282 1929 1282 1915 1260 c 4,133,134
 1904 1243 1904 1243 1892 1179 c 4,135,136
 1866 1047 1866 1047 1792 798 c 4,137,138
 1736 613 1736 613 1653.5 394 c 132,-1,139
 1571 175 1571 175 1554 164 c 4,140,141
 1546 159 1546 159 1516 104 c 4,142,143
 1461 0 1461 0 1380 0 c 4,144,145
 1360 0 l 4,146,147
 1349 0 1349 0 1342 0 c 4,148,149
 1334 0 1334 0 1309 24 c 4,150,151
 1274 58 1274 58 1219 158 c 4,152,153
 1161 264 1161 264 1117 371 c 4,154,155
 1095 427 1095 427 1066.5 469 c 132,-1,156
 1038 511 1038 511 1022 511 c 4,157,158
 1013 511 1013 511 1008 499 c 132,-1,159
 1003 487 1003 487 997 454 c 4,160,161
 987 398 987 398 951 326.5 c 132,-1,162
 915 255 915 255 910 234 c 4,163,164
 901 200 901 200 859 118 c 132,-1,165
 817 36 817 36 799 16 c 4,166,167
 782 -2 782 -2 771 -6 c 4,168,169
 757 -11 757 -11 734 -11 c 4,170,171
 706 -11 706 -11 689.5 0 c 132,-1,172
 673 11 673 11 619 67 c 4,0,1
EndSplineSet
Validated: 1
EndChar

StartChar: X
Encoding: 88 88 56
Width: 1542
GlyphClass: 2
Flags: W
HStem: 0 21G<307.5 426.5 1227 1362> 1528 20G<208.5 281.5 1085.25 1165.75>
VStem: 83 305<1385.36 1519.63> 559 345<743.507 874.592> 1009 284<1340 1533.67>
LayerCount: 2
Fore
SplineSet
344 0 m 6,0,1
 271 0 271 0 234 12 c 4,2,3
 173 32 173 32 173 96 c 4,4,5
 173 130 173 130 260 302.5 c 132,-1,6
 347 475 347 475 410.5 553 c 132,-1,7
 474 631 474 631 500 677 c 132,-1,8
 526 723 526 723 542.5 734 c 132,-1,9
 559 745 559 745 559 775.5 c 132,-1,10
 559 806 559 806 551 823 c 132,-1,11
 543 840 543 840 485 913 c 132,-1,12
 427 986 427 986 371.5 1047.5 c 132,-1,13
 316 1109 316 1109 199.5 1277 c 132,-1,14
 83 1445 83 1445 83 1463 c 132,-1,15
 83 1481 83 1481 112 1510 c 132,-1,16
 141 1539 141 1539 156.5 1543.5 c 132,-1,17
 172 1548 172 1548 245 1548 c 132,-1,18
 318 1548 318 1548 353 1520.5 c 132,-1,19
 388 1493 388 1493 388 1436.5 c 132,-1,20
 388 1380 388 1380 395.5 1360 c 132,-1,21
 403 1340 403 1340 444 1280 c 132,-1,22
 485 1220 485 1220 584 1117.5 c 132,-1,23
 683 1015 683 1015 700 997 c 132,-1,24
 717 979 717 979 744 979 c 5,25,-1
 763 979 l 5,26,27
 796 979 796 979 820 1009 c 132,-1,28
 844 1039 844 1039 916 1150 c 4,29,30
 986 1260 986 1260 1002 1308 c 4,31,32
 1009 1329 1009 1329 1009 1351 c 4,33,34
 1009 1380 1009 1380 997 1412 c 4,35,36
 976 1468 976 1468 976 1480 c 6,37,-1
 976 1504 l 6,38,39
 976 1515 976 1515 988.5 1528.5 c 132,-1,40
 1001 1542 1001 1542 1023 1545.5 c 132,-1,41
 1045 1549 1045 1549 1125.5 1549 c 132,-1,42
 1206 1549 1206 1549 1224 1545.5 c 132,-1,43
 1242 1542 1242 1542 1267.5 1517 c 132,-1,44
 1293 1492 1293 1492 1293 1476 c 4,45,46
 1293 1436 1293 1436 1193.5 1270 c 132,-1,47
 1094 1104 1094 1104 1020.5 1015 c 132,-1,48
 947 926 947 926 928 902 c 4,49,50
 908 878 908 878 904 853 c 5,51,-1
 904 816 l 5,52,53
 910 789 910 789 966.5 721.5 c 132,-1,54
 1023 654 1023 654 1103.5 554 c 132,-1,55
 1184 454 1184 454 1239.5 388.5 c 132,-1,56
 1295 323 1295 323 1376 198 c 4,57,58
 1456 74 1456 74 1456 53 c 4,59,-1
 1456 42 l 4,60,61
 1458 26 1458 26 1423 13 c 132,-1,62
 1388 0 1388 0 1336 0 c 6,63,-1
 1246 0 l 6,64,65
 1208 0 1208 0 1186 16 c 132,-1,66
 1164 32 1164 32 1153 103 c 132,-1,67
 1142 174 1142 174 1114.5 220.5 c 132,-1,68
 1087 267 1087 267 1008.5 362.5 c 132,-1,69
 930 458 930 458 854 534 c 4,70,71
 777 610 777 610 751.5 624.5 c 132,-1,72
 726 639 726 639 711 639 c 132,-1,73
 696 639 696 639 679.5 626 c 132,-1,74
 663 613 663 613 608 539 c 132,-1,75
 553 465 553 465 553 454 c 132,-1,76
 553 443 553 443 504 349 c 132,-1,77
 455 255 455 255 455 221 c 6,78,-1
 455 196 l 6,79,80
 455 176 455 176 481 129 c 132,-1,81
 507 82 507 82 510 60 c 5,82,-1
 510 39 l 5,83,84
 510 24 510 24 492 12 c 132,-1,85
 474 0 474 0 379 0 c 6,86,-1
 344 0 l 6,0,1
EndSplineSet
Validated: 1
EndChar

StartChar: Y
Encoding: 89 89 57
Width: 1503
GlyphClass: 2
Flags: W
HStem: -0 21G<750.5 896.5> 1538 20G<271 322 1178 1233.5>
VStem: 688 233<171 473.267> 1146 274<1281.5 1466.77>
LayerCount: 2
Fore
SplineSet
675 6 m 4,0,1
 657 13 657 13 641 29 c 132,-1,2
 625 45 625 45 625 57 c 4,3,4
 625 71 625 71 662 121 c 6,5,-1
 688 171 l 5,6,-1
 688 288 l 5,7,8
 688 374 688 374 672 401 c 4,9,10
 664 432 664 432 631 499 c 4,11,12
 584 593 584 593 516.5 693.5 c 132,-1,13
 449 794 449 794 410.5 864 c 132,-1,14
 372 934 372 934 353.5 958 c 132,-1,15
 335 982 335 982 271 1113 c 4,16,17
 195 1269 195 1269 147 1356 c 6,18,-1
 86 1467 l 5,19,-1
 107 1494 l 6,20,21
 129 1522 129 1522 161 1536 c 4,22,23
 195 1551 195 1551 244 1556 c 4,24,25
 263 1558 263 1558 279 1558 c 4,26,27
 365 1558 365 1558 395 1507 c 4,28,29
 408 1485 408 1485 408 1476 c 4,30,31
 408 1474 408 1474 408 1472 c 4,32,33
 408 1461 408 1461 403 1447 c 4,34,35
 396 1427 396 1427 396 1398 c 4,36,37
 396 1380 396 1380 399 1358 c 4,38,39
 406 1306 406 1306 432 1254 c 4,40,41
 483 1152 483 1152 550 1033.5 c 132,-1,42
 617 915 617 915 664 846 c 4,43,44
 730 748 730 748 755 708 c 4,45,46
 781 667 781 667 812 663 c 4,47,48
 823 661 823 661 825 661 c 4,49,-1
 840 661 l 4,50,51
 845 661 845 661 852 664 c 4,52,53
 864 669 864 669 870 674 c 4,54,55
 878 681 878 681 891 697.5 c 132,-1,56
 904 714 904 714 915 732 c 132,-1,57
 926 750 926 750 944.5 783.5 c 132,-1,58
 963 817 963 817 981.5 851.5 c 132,-1,59
 1000 886 1000 886 1029 941 c 4,60,61
 1117 1110 1117 1110 1139 1225 c 4,62,63
 1146 1261 1146 1261 1146 1302 c 4,64,65
 1146 1368 1146 1368 1120 1419 c 4,66,67
 1097 1464 1097 1464 1097 1496 c 4,68,69
 1097 1521 1097 1521 1113 1535 c 4,70,71
 1139 1558 1139 1558 1217 1558 c 4,72,73
 1224 1558 l 4,74,75
 1243 1556 1243 1556 1277 1556 c 4,76,77
 1340 1556 1340 1556 1366 1539 c 4,78,79
 1396 1520 1396 1520 1412 1487 c 4,80,81
 1420 1471 1420 1471 1420 1458 c 4,82,83
 1420 1447 1420 1447 1415 1439 c 4,84,85
 1405 1424 1405 1424 1384 1352 c 4,86,87
 1366 1292 1366 1292 1275.5 1086 c 132,-1,88
 1185 880 1185 880 1157 833 c 4,89,90
 1131 790 1131 790 1056 672 c 132,-1,91
 981 554 981 554 951 484 c 4,92,93
 930 436 930 436 925 407 c 4,94,95
 921 383 921 383 921 316 c 4,96,97
 921 305 921 305 921 292 c 4,98,99
 921 207 921 207 926 180 c 132,-1,100
 931 153 931 153 949 118 c 4,101,102
 964 88 964 88 969 74 c 132,-1,103
 974 60 974 60 974 47 c 4,104,105
 974 44 974 44 974 42 c 4,106,107
 974 29 974 29 964 20 c 4,108,109
 960 16 960 16 934 8 c 4,110,111
 909 0 909 0 884 0 c 4,112,113
 860 0 860 0 825 -0 c 4,114,115
 818 0 818 0 811 0 c 4,116,117
 690 0 690 0 675 6 c 4,0,1
EndSplineSet
Validated: 1
EndChar

StartChar: Z
Encoding: 90 90 58
Width: 1379
GlyphClass: 2
Flags: W
HStem: 0 151<402.256 1041.23> 10 258<1098.35 1247.17> 1433 126<395.471 949.204>
VStem: 876 290<1275.69 1438>
LayerCount: 2
Fore
SplineSet
488 0 m 5,0,1
 306 0 l 5,2,3
 207 0 207 0 184 3 c 4,4,5
 142 8 142 8 113 70 c 4,6,7
 97 104 97 104 97 136 c 6,8,-1
 97 141 l 5,9,10
 97 171 97 171 109 189 c 132,-1,11
 121 207 121 207 173 306 c 132,-1,12
 225 405 225 405 257 450.5 c 132,-1,13
 289 496 289 496 320.5 548 c 132,-1,14
 352 600 352 600 393 654.5 c 132,-1,15
 434 709 434 709 459.5 747 c 132,-1,16
 485 785 485 785 601.5 940 c 132,-1,17
 718 1095 718 1095 785 1192.5 c 132,-1,18
 852 1290 852 1290 864 1304 c 132,-1,19
 876 1318 876 1318 876 1332 c 4,20,21
 876 1369 876 1369 856 1391.5 c 132,-1,22
 836 1414 836 1414 801.5 1423.5 c 132,-1,23
 767 1433 767 1433 712 1433 c 4,24,25
 544 1433 544 1433 483.5 1419.5 c 132,-1,26
 423 1406 423 1406 363.5 1379 c 132,-1,27
 304 1352 304 1352 273 1329 c 4,28,29
 226 1294 226 1294 178 1282 c 5,30,-1
 147 1282 l 5,31,32
 136 1284 136 1284 116 1294 c 6,33,-1
 84 1312 l 5,34,-1
 84 1381 l 5,35,36
 84 1496 84 1496 138 1530 c 4,37,38
 184 1559 184 1559 870 1559 c 4,39,40
 1011 1559 1011 1559 1029 1557 c 4,41,42
 1138 1545 1138 1545 1160 1467 c 4,43,44
 1166 1446 1166 1446 1166 1430 c 4,45,46
 1166 1293 1166 1293 915 938 c 4,47,48
 853 850 853 850 790 757 c 4,49,50
 746 692 746 692 725 673 c 132,-1,51
 704 654 704 654 654.5 578.5 c 132,-1,52
 605 503 605 503 579.5 477.5 c 132,-1,53
 554 452 554 452 519 391.5 c 132,-1,54
 484 331 484 331 463 305 c 132,-1,55
 442 279 442 279 421 243 c 132,-1,56
 400 207 400 207 400 197 c 132,-1,57
 400 187 400 187 402 183 c 4,58,59
 410 166 410 166 444 158.5 c 132,-1,60
 478 151 478 151 563 151 c 4,61,62
 912 151 912 151 956 163 c 132,-1,63
 1000 175 1000 175 1071 210 c 4,64,65
 1186 268 1186 268 1211.5 268 c 132,-1,66
 1237 268 1237 268 1247.5 259.5 c 132,-1,67
 1258 251 1258 251 1276 224 c 132,-1,68
 1294 197 1294 197 1294 171.5 c 132,-1,69
 1294 146 1294 146 1288 119 c 4,70,71
 1271 41 1271 41 1183 6 c 4,72,73
 1167 0 1167 0 1155 4 c 4,74,75
 1136 10 1136 10 1046 10 c 4,76,77
 1033 10 1033 10 1019 10 c 4,78,79
 889 9 889 9 795 9 c 5,80,81
 546 9 546 9 488 0 c 5,0,1
EndSplineSet
Validated: 1
EndChar

StartChar: bracketleft
Encoding: 91 91 59
Width: 1034
GlyphClass: 2
Flags: W
HStem: -412 186<661.47 824.871> 1464 172<649.471 815.54>
VStem: 360 234<-192.928 1266.98>
LayerCount: 2
Fore
SplineSet
870 -405.5 m 132,-1,1
 841 -412 841 -412 603 -412 c 5,2,-1
 368 -412 l 5,3,-1
 348 -385 l 6,4,5
 329 -359 329 -359 329 -330 c 4,6,7
 329 -296 329 -296 337 -267 c 4,8,9
 360 -184 360 -184 360 -128 c 4,10,11
 360 198 l 4,12,13
 360 610 360 610 355 650 c 4,14,15
 353 666 353 666 353 684 c 4,16,17
 353 692 353 692 354 696 c 4,18,19
 360 720 360 720 360 1099 c 4,20,-1
 360 1130 l 4,21,22
 348 1245 348 1245 348 1368 c 4,23,24
 348 1453 348 1453 325 1506 c 4,25,26
 317 1524 317 1524 317 1564 c 4,27,28
 317 1606 317 1606 335 1620 c 6,29,-1
 354 1636 l 5,30,-1
 619 1636 l 5,31,32
 697 1632 697 1632 776 1632 c 4,33,34
 902 1632 902 1632 902 1624 c 4,35,36
 915 1611 915 1611 926 1576 c 4,37,38
 936 1544 936 1544 936 1512 c 4,39,40
 936 1483 936 1483 927 1452 c 4,41,42
 910 1394 910 1394 870 1394 c 4,43,44
 854 1394 854 1394 807 1425 c 4,45,46
 764 1453 764 1453 719 1461 c 4,47,48
 701 1464 701 1464 687 1464 c 4,49,50
 664 1464 664 1464 649 1456 c 4,51,52
 618 1439 618 1439 602 1382 c 4,53,54
 583 1312 583 1312 583 1268 c 4,55,56
 583 1235 583 1235 588 1229 c 4,57,58
 591 1226 591 1226 596 924 c 4,59,60
 599 757 599 757 599 650 c 4,61,-1
 599 623 l 4,62,63
 596 582 596 582 596 376 c 4,64,65
 594 239 594 239 594 40 c 4,66,67
 594 21 l 4,68,69
 594 -84 594 -84 615 -142 c 4,70,71
 637 -202 637 -202 661 -217 c 4,72,73
 676 -226 676 -226 698 -226 c 4,74,75
 715 -226 715 -226 731 -222 c 4,76,77
 782 -209 782 -209 819 -185 c 4,78,79
 867 -154 867 -154 882 -154 c 4,80,81
 921 -154 921 -154 939 -212 c 4,82,83
 948 -241 948 -241 948 -271 c 4,84,85
 948 -302 948 -302 938 -335 c 4,86,87
 927 -371 927 -371 914 -384 c 4,88,0
 899 -399 899 -399 870 -405.5 c 132,-1,1
EndSplineSet
Validated: 1
EndChar

StartChar: backslash
Encoding: 92 92 60
Width: 1083
GlyphClass: 2
Flags: W
HStem: 1554 20G<147 165.5>
LayerCount: 2
Fore
SplineSet
1051 48 m 0,0,1
 1047 33 1047 33 1006 6 c 0,2,3
 972 -16 972 -16 938 -22 c 0,4,5
 935 -23 935 -23 933 -23 c 0,6,7
 904 -23 904 -23 860 14 c 0,8,9
 812 54 812 54 806 91 c 0,10,11
 794 167 794 167 700 326 c 0,12,13
 604 486 604 486 590 505.5 c 128,-1,14
 576 525 576 525 529 574 c 0,15,16
 520 583 520 583 447 713 c 1,17,18
 365 851 365 851 362 858.5 c 128,-1,19
 359 866 359 866 338 930 c 0,20,21
 333 944 333 944 233 1116 c 128,-1,22
 133 1288 133 1288 74 1332 c 0,23,24
 46 1353 46 1353 32 1416 c 0,25,26
 27 1442 27 1442 27 1463 c 0,27,28
 27 1488 27 1488 36 1503 c 0,29,30
 50 1526 50 1526 94 1552 c 0,31,32
 135 1577 135 1577 147 1574 c 0,33,34
 147 1574 147 1574 151 1574 c 0,35,36
 180 1574 180 1574 215 1517.5 c 0,37,38
 243 1471.93 243 1471.93 292 1358.75 c 0,39,40
 338 1252 338 1252 363 1225 c 128,-1,41
 388 1198 388 1198 433 1120.5 c 128,-1,42
 478 1043 478 1043 502.5 1006 c 128,-1,43
 527 969 527 969 557 936 c 1,44,45
 560 931 560 931 623.5 822.5 c 128,-1,46
 687 714 687 714 688.5 712.5 c 128,-1,47
 690 711 690 711 711.5 660.5 c 128,-1,48
 733 610 733 610 784.5 524 c 128,-1,49
 836 438 836 438 848 403 c 128,-1,50
 860 368 860 368 931 276 c 0,51,52
 1003 184 1003 184 1031 133 c 0,53,54
 1053 93 1053 93 1053 65 c 0,55,56
 1053 56 1053 56 1051 48 c 0,0,1
EndSplineSet
Validated: 1
EndChar

StartChar: bracketright
Encoding: 93 93 61
Width: 1029
GlyphClass: 2
Flags: W
HStem: -411 255<98.1641 229.62> -411 184<198.701 362.53> 1392 230<102.014 241.537> 1464 171<212.129 374.53>
VStem: 432 232<-189.719 1444.42>
LayerCount: 2
Fore
SplineSet
154 -407 m 4,0,1
 130 -404 130 -404 112 -385 c 132,-1,2
 94 -366 94 -366 86 -336 c 4,3,4
 77 -302 77 -302 77 -272 c 4,5,6
 77 -238 77 -238 85 -214 c 4,7,8
 104 -156 104 -156 143 -156 c 4,9,10
 158 -156 158 -156 206 -187 c 4,11,12
 244 -212 244 -212 294 -223 c 4,13,14
 312 -227 312 -227 326 -227 c 4,15,16
 348 -227 348 -227 363 -218 c 4,17,18
 388 -202 388 -202 410 -144 c 4,19,20
 428 -94 428 -94 431 39 c 4,21,22
 432 101 432 101 432 130 c 4,23,24
 432 145 432 145 432 151 c 4,25,26
 430 218 430 218 428 374 c 4,27,28
 426 547 426 547 426 613 c 4,29,30
 426 639 426 639 426 648 c 4,31,32
 429 762 429 762 429 922 c 4,33,34
 429 1138 429 1138 437 1207 c 4,35,36
 437 1228 l 4,37,38
 437 1324 437 1324 422 1380 c 132,-1,39
 407 1436 407 1436 375 1455 c 4,40,41
 360 1464 360 1464 338 1464 c 4,42,43
 324 1464 324 1464 306 1460 c 4,44,45
 259 1449 259 1449 218 1423 c 4,46,47
 170 1392 170 1392 155 1392 c 4,48,49
 113 1392 113 1392 97 1451 c 4,50,51
 86 1491 86 1491 86 1520 c 4,52,53
 86 1552 86 1552 99 1574 c 4,54,55
 114 1599 114 1599 123 1622 c 4,56,57
 128 1635 128 1635 264 1635 c 4,58,59
 413 1635 413 1635 414 1636 c 6,60,-1
 670 1636 l 5,61,-1
 690 1619 l 6,62,63
 700 1611 700 1611 707 1563 c 4,64,65
 708 1556 708 1556 708 1550 c 4,66,67
 708 1526 708 1526 700 1505 c 4,68,69
 691 1481 691 1481 677 1366 c 4,70,71
 664 1256 664 1256 664 1138 c 4,72,-1
 664 1099 l 4,73,74
 670 752 670 752 670 672 c 4,75,76
 670 652 670 652 670 648 c 4,77,78
 668 630 668 630 664 197 c 4,79,80
 664 135 664 135 664 88.5 c 132,-1,81
 664 42 664 42 664 9 c 4,82,83
 665 -56 665 -56 665 -130 c 4,84,85
 665 -216 665 -216 688 -268 c 4,86,87
 697 -288 697 -288 697 -317 c 4,88,89
 697 -324 697 -324 696 -331 c 4,90,91
 691 -369 691 -369 677 -386 c 6,92,-1
 657 -411 l 5,93,-1
 422 -411 l 6,94,95
 384 -411 384 -411 346 -411 c 4,96,97
 192 -411 192 -411 154 -407 c 4,0,1
EndSplineSet
Validated: 1
EndChar

StartChar: asciicircum
Encoding: 94 94 62
Width: 1089
GlyphClass: 2
Flags: W
HStem: 1553 20G<501.5 537.5>
VStem: 228 629<908 953>
LayerCount: 2
Fore
SplineSet
840.5 882 m 132,-1,1
 824 865 824 865 812 865 c 132,-1,2
 800 865 800 865 787 870.5 c 132,-1,3
 774 876 774 876 725 946.5 c 132,-1,4
 676 1017 676 1017 615.5 1134.5 c 132,-1,5
 555 1252 555 1252 546 1276 c 4,6,7
 535 1304 535 1304 529 1304 c 4,8,9
 517 1304 517 1304 507 1271 c 132,-1,10
 497 1238 497 1238 436.5 1115.5 c 132,-1,11
 376 993 376 993 358.5 959.5 c 132,-1,12
 341 926 341 926 324.5 904 c 132,-1,13
 308 882 308 882 297.5 877.5 c 132,-1,14
 287 873 287 873 270 873 c 132,-1,15
 253 873 253 873 240.5 890.5 c 132,-1,16
 228 908 228 908 228 930 c 4,17,18
 228 983 228 983 327 1179 c 4,19,20
 355 1235 355 1235 409 1382 c 4,21,22
 478 1573 478 1573 525 1573 c 4,23,24
 550 1573 550 1573 570 1545 c 4,25,26
 637 1453 637 1453 661.5 1372.5 c 132,-1,27
 686 1292 686 1292 739 1176.5 c 132,-1,28
 792 1061 792 1061 823 1010 c 4,29,30
 857 953 857 953 857 926 c 132,-1,0
 857 899 857 899 840.5 882 c 132,-1,1
EndSplineSet
Validated: 1
EndChar

StartChar: underscore
Encoding: 95 95 63
Width: 888
GlyphClass: 2
Flags: W
HStem: -328 80<42.167 847.664>
LayerCount: 2
Fore
SplineSet
42 -317 m 4,0,1
 30 -308 30 -308 25.5 -295.5 c 132,-1,2
 21 -283 21 -283 24 -279 c 4,3,4
 27 -274 27 -274 57 -262 c 4,5,6
 82 -252 82 -252 152 -248 c 4,7,8
 217 -244 217 -244 445 -241 c 4,9,10
 514 -240 514 -240 615 -240 c 4,11,12
 718 -240 718 -240 779 -243 c 4,13,14
 867 -247 867 -247 867 -266 c 4,15,-1
 867 -267 l 4,16,17
 866 -273 866 -273 857 -281 c 132,-1,18
 848 -289 848 -289 828 -301 c 4,19,20
 799 -319 799 -319 742 -322 c 4,21,22
 653 -326 653 -326 419 -327 c 4,23,24
 280 -328 280 -328 237 -328 c 4,25,26
 191 -328 191 -328 168 -328 c 4,27,28
 111 -327 111 -327 96 -326 c 4,29,30
 47 -321 47 -321 42 -317 c 4,0,1
EndSplineSet
Validated: 1
EndChar

StartChar: grave
Encoding: 96 96 64
Width: 834
GlyphClass: 2
Flags: W
HStem: 1174 445
VStem: 238 364
LayerCount: 2
Fore
SplineSet
458 1253 m 0,0,1
 407 1312 407 1312 368 1355 c 0,2,3
 335 1390 335 1390 332.5 1401 c 128,-1,4
 330 1412 330 1412 289 1454 c 0,5,6
 258 1486 258 1486 244 1516 c 0,7,8
 238 1529 238 1529 238 1543 c 0,9,10
 238 1556 238 1556 243 1570 c 0,11,12
 251 1592 251 1592 260 1600 c 128,-1,13
 269 1608 269 1608 297 1616 c 0,14,15
 308 1619 308 1619 319 1619 c 0,16,17
 340 1619 340 1619 361 1609 c 0,18,19
 395 1593 395 1593 424 1559 c 0,20,21
 453 1524 453 1524 521 1390 c 0,22,23
 590 1253 590 1253 599 1216 c 0,24,25
 602 1203 602 1203 602 1194 c 0,26,27
 602 1181 602 1181 596 1177.5 c 128,-1,28
 590 1174 590 1174 580 1174 c 0,29,30
 565 1174 565 1174 550 1178 c 0,31,32
 528 1184 528 1184 512 1197 c 0,33,34
 495 1210 495 1210 458 1253 c 0,0,1
EndSplineSet
Validated: 1
EndChar

StartChar: a
Encoding: 97 97 65
Width: 1076
GlyphClass: 2
Flags: W
HStem: 27 153<855.659 989.484> 936 163<318.502 595.57>
VStem: 58 217<207.428 462.409> 645 193<285.458 596> 646.5 212.5<756.657 886>
LayerCount: 2
Fore
SplineSet
859 853 m 5,0,-1
 859 781 l 6,1,2
 859 761 859 761 859 670 c 4,3,4
 859 574 859 574 851 566 c 4,5,6
 838 552 838 552 838 464 c 4,7,8
 838 310 838 310 838 277 c 4,9,10
 838 199 838 199 945 180 c 5,11,12
 1018 166 1018 166 1018 134 c 4,13,14
 1018 118 1018 118 1006 93 c 4,15,16
 982 45 982 45 887 27 c 4,17,18
 861 22 861 22 835 22 c 4,19,20
 751 22 751 22 704 67 c 4,21,22
 659 110 659 110 636 110 c 6,23,-1
 612 110 l 6,24,25
 576 110 576 110 536 80 c 4,26,27
 491 46 491 46 437 25 c 4,28,29
 373 0 373 0 357 0 c 6,30,-1
 347 0 l 5,31,32
 329 0 329 0 252 26 c 4,33,34
 183 48 183 48 118 126 c 4,35,36
 58 198 58 198 58 297 c 4,37,38
 58 300 58 300 58 303 c 4,39,40
 59 354 59 354 59 373 c 4,41,42
 59 420 59 420 134 501 c 4,43,44
 255 631 255 631 401 675 c 5,45,46
 610 740 610 740 626 756 c 4,47,48
 646 777 646 777 646.5 801.5 c 132,-1,49
 647 826 647 826 641.5 837 c 132,-1,50
 636 848 636 848 613 874 c 132,-1,51
 590 900 590 900 575 910 c 4,52,53
 536 936 536 936 476 936 c 132,-1,54
 416 936 416 936 368.5 930 c 132,-1,55
 321 924 321 924 288 898 c 4,56,57
 219 846 219 846 175.5 846 c 132,-1,58
 132 846 132 846 116 882 c 4,59,60
 100 919 100 919 115.5 940 c 132,-1,61
 131 961 131 961 185 987 c 132,-1,62
 239 1013 239 1013 266 1028.5 c 132,-1,63
 293 1044 293 1044 346.5 1066.5 c 132,-1,64
 400 1089 400 1089 425.5 1094 c 132,-1,65
 451 1099 451 1099 520 1099 c 132,-1,66
 589 1099 589 1099 666 1072.5 c 132,-1,67
 743 1046 743 1046 775.5 1016.5 c 132,-1,68
 808 987 808 987 817 978.5 c 132,-1,69
 826 970 826 970 835.5 957 c 132,-1,70
 845 944 845 944 848 933 c 4,71,72
 860 889 860 889 860 878 c 6,73,-1
 860 865 l 6,74,75
 860 859 860 859 859 853 c 5,0,-1
353 180 m 4,76,77
 387 161 387 161 433 161 c 4,78,79
 478 161 478 161 530 207 c 132,-1,80
 582 253 582 253 599 283.5 c 132,-1,81
 616 314 616 314 630.5 397.5 c 132,-1,82
 645 481 645 481 645 506 c 132,-1,83
 645 531 645 531 641 550 c 132,-1,84
 637 569 637 569 616 586 c 132,-1,85
 595 603 595 603 568 603 c 132,-1,86
 541 603 541 603 486.5 576.5 c 132,-1,87
 432 550 432 550 403 523.5 c 132,-1,88
 374 497 374 497 340 478 c 132,-1,89
 306 459 306 459 290.5 411 c 132,-1,90
 275 363 275 363 275 334 c 4,91,92
 275 224 275 224 353 180 c 4,76,77
EndSplineSet
Validated: 1
EndChar

StartChar: b
Encoding: 98 98 66
Width: 962
GlyphClass: 2
Flags: W
HStem: -0 148<333.26 579.843> 943 156<388.023 589.806>
VStem: 51 216<1032.85 1457.65> 94 171.5<283.533 815.253> 702 209<342.534 834.879>
LayerCount: 2
Fore
SplineSet
268 1296 m 5,0,-1
 268 1150 l 5,1,2
 268 1043 268 1043 274 1032.5 c 132,-1,3
 280 1022 280 1022 303 1022 c 132,-1,4
 326 1022 326 1022 375.5 1048 c 132,-1,5
 425 1074 425 1074 484 1086.5 c 132,-1,6
 543 1099 543 1099 566 1099 c 132,-1,7
 589 1099 589 1099 618.5 1096 c 132,-1,8
 648 1093 648 1093 692 1073 c 132,-1,9
 736 1053 736 1053 759.5 1026 c 132,-1,10
 783 999 783 999 826 924 c 4,11,12
 870 846 870 846 889 784 c 4,13,14
 911 712 911 712 911 592 c 132,-1,15
 911 472 911 472 889 404 c 4,16,17
 842 260 842 260 762 159 c 4,18,19
 731 120 731 120 707 103 c 4,20,21
 645 56 645 56 563 28 c 132,-1,22
 481 0 481 0 469 -0 c 4,23,24
 451 0 451 0 385.5 11.5 c 132,-1,25
 320 23 320 23 247.5 54 c 132,-1,26
 175 85 175 85 149.5 108 c 132,-1,27
 124 131 124 131 99 178 c 132,-1,28
 74 225 74 225 74 247 c 5,29,-1
 94 376 l 5,30,31
 94 387 94 387 90 402 c 132,-1,32
 86 417 86 417 86 828 c 6,33,-1
 86 889 l 6,34,35
 84 1182 84 1182 84 1241 c 132,-1,36
 84 1300 84 1300 67 1327 c 4,37,38
 51 1353 51 1353 51 1371 c 4,39,40
 51 1437 51 1437 124 1476 c 4,41,42
 156 1493 156 1493 180 1490 c 4,43,44
 212 1486 212 1486 218 1484 c 4,45,46
 234 1478 234 1478 241.5 1471 c 132,-1,47
 249 1464 249 1464 256.5 1448.5 c 132,-1,48
 264 1433 264 1433 265 1408 c 132,-1,49
 266 1383 266 1383 267 1351.5 c 132,-1,50
 268 1320 268 1320 268 1296 c 5,0,-1
317.5 200.5 m 132,-1,52
 325 197 325 197 338.5 190 c 132,-1,53
 352 183 352 183 383.5 166.5 c 132,-1,54
 415 150 415 150 439.5 149 c 132,-1,55
 464 148 464 148 485 148 c 4,56,57
 504 148 504 148 547 168 c 4,58,59
 586 186 586 186 632 260 c 4,60,61
 677 332 677 332 677 375 c 4,62,63
 677 415 677 415 689 450 c 4,64,65
 702 488 702 488 702 507 c 4,66,67
 702 513 702 513 701 516 c 4,68,69
 693 546 693 546 692.5 647 c 132,-1,70
 692 748 692 748 682 780.5 c 132,-1,71
 672 813 672 813 654 841 c 4,72,73
 634 871 634 871 578 906 c 4,74,75
 519 943 519 943 496 943 c 6,76,-1
 491 943 l 5,77,78
 460 943 460 943 411 915 c 4,79,80
 364 888 364 888 345 872 c 4,81,82
 330 859 330 859 305 811 c 4,83,84
 264 731 264 731 264 530 c 4,85,86
 264 516 264 516 264 502 c 4,87,88
 264 466 264 466 264.5 440 c 132,-1,89
 265 414 265 414 265.5 384 c 132,-1,90
 266 354 266 354 267 337.5 c 132,-1,91
 268 321 268 321 268 296.5 c 132,-1,92
 268 272 268 272 269.5 264.5 c 132,-1,93
 271 257 271 257 276.5 242.5 c 132,-1,94
 282 228 282 228 285.5 225 c 132,-1,95
 289 222 289 222 299.5 213 c 132,-1,51
 310 204 310 204 317.5 200.5 c 132,-1,52
EndSplineSet
Validated: 1
EndChar

StartChar: c
Encoding: 99 99 67
Width: 947
GlyphClass: 2
Flags: W
HStem: -27.0909 161.775<412.614 713.949> 979 133.74<438.444 608.014>
VStem: 78.5556 222.444<286.528 777.559>
LayerCount: 2
Fore
SplineSet
739 32 m 1052,0,-1
739 32 m 5,1,2
 675 -6 675 -6 634 -16 c 132,-1,3
 593 -26 593 -26 530 -27 c 4,4,5
 524.455 -27.0909 524.455 -27.0909 518.975 -27.0909 c 4,6,7
 464.182 -27.0909 464.182 -27.0909 416 -18 c 4,8,9
 362 -8 362 -8 297 38 c 4,10,11
 226 87 226 87 192 136 c 4,12,13
 158 184 158 184 128 270 c 4,14,15
 102 346 102 346 96 387 c 4,16,17
 91 419 91 419 84 491 c 4,18,19
 78.5556 544.667 78.5556 544.667 78.5556 577.765 c 4,20,21
 78.5556 587.222 78.5556 587.222 79 595 c 4,22,23
 81 634 81 634 95 680 c 4,24,25
 104 710 104 710 126 787 c 4,26,27
 141 841 141 841 166 886 c 4,28,29
 192 934 192 934 254 996 c 4,30,31
 317 1059 317 1059 371 1084 c 4,32,33
 424 1108 424 1108 512 1112 c 4,34,35
 530.165 1112.74 530.165 1112.74 547.185 1112.74 c 4,36,37
 736.294 1112.74 736.294 1112.74 784 1021 c 4,38,39
 800 990 800 990 800 940 c 4,40,41
 800 891 800 891 781 869 c 4,42,43
 761 846 761 846 734 854 c 4,44,45
 709 861 709 861 645 910 c 4,46,47
 584 957 584 957 560 968 c 4,48,49
 538 978 538 978 494 979 c 4,50,51
 452 980 452 980 438 975 c 4,52,53
 427 971 427 971 399 945 c 4,54,55
 372 920 372 920 347 850 c 4,56,57
 301 722 301 722 301 538 c 4,58,59
 301 282 301 282 401 189 c 4,60,61
 429 163 429 163 456 152 c 4,62,63
 484 141 484 141 532 136 c 4,64,65
 545.947 134.684 545.947 134.684 559.964 134.684 c 4,66,67
 599.211 134.684 599.211 134.684 639 145 c 4,68,69
 695 160 695 160 729 187 c 4,70,71
 762 213 762 213 794 213 c 4,72,73
 825 213 825 213 840 200 c 4,74,75
 851.142 190.344 851.142 190.344 851.142 174.723 c 4,76,77
 851.142 169.429 851.142 169.429 849.862 163.451 c 4,78,79
 838.013 108.082 838.013 108.082 775.283 58 c 4,80,81
 759 45 759 45 739 32 c 5,1,2
EndSplineSet
Validated: 1
EndChar

StartChar: d
Encoding: 100 100 68
Width: 1002
GlyphClass: 2
Flags: W
HStem: 0 131<406.751 614.147> 968 127<371.341 623.196> 999 71<468.823 658.914> 1446 125<290.645 448.921>
VStem: 53 207<294.312 826.121> 739 211<351.031 938.661>
LayerCount: 2
Fore
SplineSet
363 6 m 4,0,1
 301 20 301 20 224 90 c 4,2,3
 150 158 150 158 126.5 219 c 132,-1,4
 103 280 103 280 83.5 322.5 c 132,-1,5
 64 365 64 365 60 398 c 4,6,7
 53 457 53 457 53 556 c 4,8,9
 53 575 l 4,10,11
 53 688 53 688 53.5 712 c 132,-1,12
 54 736 54 736 69.5 764.5 c 132,-1,13
 85 793 85 793 94.5 832.5 c 132,-1,14
 104 872 104 872 180.5 955.5 c 132,-1,15
 257 1039 257 1039 311 1065 c 4,16,17
 373 1095 373 1095 454 1095 c 132,-1,18
 535 1095 535 1095 574.5 1082.5 c 132,-1,19
 614 1070 614 1070 623.5 1070 c 132,-1,20
 633 1070 633 1070 646 1082.5 c 132,-1,21
 659 1095 659 1095 659 1103 c 132,-1,22
 659 1111 659 1111 645 1148 c 4,23,24
 621 1212 621 1212 546 1312 c 4,25,26
 469 1414 469 1414 349 1446 c 4,27,28
 304 1458 304 1458 290 1492 c 5,29,30
 285 1503 285 1503 285 1514 c 4,31,32
 285 1535 285 1535 305 1554 c 4,33,34
 323 1571 323 1571 346 1571 c 4,35,36
 349 1571 l 4,37,38
 376 1570 376 1570 414 1570 c 4,39,40
 485 1570 485 1570 544 1537 c 4,41,42
 614 1498 614 1498 672 1448 c 4,43,44
 738 1391 738 1391 756 1354 c 4,45,46
 864 1134 864 1134 898 1022 c 4,47,48
 950 854 950 854 950 612 c 6,49,-1
 950 601 l 5,50,51
 950 556 950 556 938 475 c 132,-1,52
 926 394 926 394 912 366.5 c 132,-1,53
 898 339 898 339 898 311.5 c 132,-1,54
 898 284 898 284 862.5 220.5 c 132,-1,55
 827 157 827 157 800 130 c 4,56,57
 754 80 754 80 689 46 c 4,58,59
 622 10 622 10 601 7 c 4,60,61
 564 0 564 0 477.5 0 c 132,-1,62
 391 0 391 0 363 6 c 4,0,1
529 131 m 5,63,64
 601 131 601 131 672 258 c 4,65,66
 703 313 703 313 722 376 c 4,67,68
 739 432 739 432 739 512 c 4,69,70
 739 516 739 516 739 521 c 4,71,72
 739 853 739 853 684 966 c 4,73,74
 668 999 668 999 651 999 c 4,75,76
 633 999 633 999 594 983.5 c 132,-1,77
 555 968 555 968 514 968 c 132,-1,78
 473 968 473 968 429 954 c 4,79,80
 386 940 386 940 365 917 c 4,81,82
 308 854 308 854 288 782 c 4,83,84
 260 687 260 687 260 487 c 4,85,86
 260 419 260 419 278 360 c 4,87,88
 320 218 320 218 430 161 c 4,89,90
 489 131 489 131 508 131 c 6,91,-1
 529 131 l 5,63,64
EndSplineSet
Validated: 1
EndChar

StartChar: e
Encoding: 101 101 69
Width: 907
GlyphClass: 2
Flags: W
HStem: 0 127<393.521 736.164> 445 111<285.456 501.653> 986 105<388.664 572.132>
VStem: 56 215<257.009 425.773 582.438 792> 643 208<675.377 920.629>
LayerCount: 2
Fore
SplineSet
379 5 m 0,0,1
 333 12 333 12 269 49.5 c 128,-1,2
 205 87 205 87 172 126 c 0,3,4
 135 169 135 169 120 200.5 c 128,-1,5
 105 232 105 232 81 311 c 0,6,7
 63 372 63 372 59 404 c 0,8,9
 56 430 56 430 56 493 c 0,10,11
 56 512 56 512 56 534 c 0,12,13
 56 611 56 611 61 657 c 0,14,15
 65 694 65 694 78 732 c 0,16,17
 120 857 120 857 182 942 c 0,18,19
 209 979 209 979 273 1016 c 0,20,21
 343 1055 343 1055 418 1076 c 0,22,23
 472 1091 472 1091 487 1091 c 0,24,25
 489 1091 489 1091 490 1091 c 0,26,27
 510 1091 510 1091 575 1081 c 0,28,29
 642 1071 642 1071 679 1054 c 0,30,31
 714 1038 714 1038 765 992 c 0,32,33
 797 963 797 963 824 888 c 0,34,35
 851 811 851 811 851 749 c 0,36,37
 851 711 851 711 845.5 692.5 c 128,-1,38
 840 674 840 674 817 638 c 0,39,40
 785 588 785 588 725 545 c 0,41,42
 667 504 667 504 617 496 c 0,43,44
 578 490 578 490 527 473 c 0,45,46
 443 445 443 445 396 445 c 0,47,48
 395 445 395 445 387 444 c 0,49,50
 299 433 299 433 285 426 c 128,-1,51
 271 419 271 419 271 380 c 0,52,-1
 271 376 l 0,53,54
 271 373 271 373 271 372 c 0,55,56
 271 338 271 338 278 319.5 c 128,-1,57
 285 301 285 301 315 257 c 0,58,59
 359 193 359 193 409 160 c 0,60,61
 446 135 446 135 464.5 131 c 128,-1,62
 483 127 483 127 550 127 c 0,63,64
 613 127 613 127 635 131 c 0,65,66
 655 135 655 135 699 156 c 0,67,68
 760 185 760 185 798 185 c 0,69,70
 804 185 804 185 809 184 c 0,71,72
 851 175 851 175 851 139 c 0,73,74
 851 108 851 108 819 83 c 0,75,76
 791 60 791 60 716 33 c 0,77,78
 714 32 714 32 629 8 c 0,79,80
 601 0 601 0 525 0 c 0,81,82
 499 0 499 0 474 0 c 0,83,84
 389 0 389 0 379 5 c 0,0,1
415 566 m 0,85,86
 459 578 459 578 520 609 c 0,87,88
 564 631 564 631 577 644 c 128,-1,89
 590 657 590 657 614 705 c 0,90,91
 637 752 637 752 640 767 c 0,92,93
 643 781 643 781 643 797 c 0,94,95
 643 805 643 805 642 814 c 0,96,97
 635 873 635 873 616 901 c 0,98,99
 595 932 595 932 545 957 c 0,100,101
 487 986 487 986 474 986 c 128,-1,102
 461 986 461 986 420 962 c 0,103,104
 344 918 344 918 308 864 c 128,-1,105
 272 810 272 810 272 701 c 0,106,107
 272 641 272 641 267 619 c 0,108,109
 267 619 267 619 267 613 c 0,110,111
 267 596 267 596 279 582 c 0,112,113
 302 556 302 556 348 556 c 0,114,115
 377 556 377 556 415 566 c 0,85,86
EndSplineSet
Validated: 1
EndChar

StartChar: f
Encoding: 102 102 70
Width: 670
GlyphClass: 2
Flags: W
HStem: 1348 148<285.288 486.239>
VStem: 128 132<1117.03 1333.56> 188 204<140 757.5> 188 188<230 820>
LayerCount: 2
Fore
SplineSet
453 48 m 1,0,1
 453 -4 453 -4 312 -4 c 0,2,3
 276 -4 276 -4 252 0 c 0,4,5
 230 4 230 4 198 30 c 0,6,7
 167 55 167 55 167 74 c 1,8,-1
 167 81 l 1,9,10
 167 96 167 96 182 136 c 128,-1,11
 197 176 197 176 197 206 c 0,12,13
 197 215 197 215 197 215 c 0,14,15
 190.25 250 190.25 250 188 300 c 0,16,17
 186.875 325 186.875 325 186.875 376.75 c 128,-1,18
 186.875 428.5 186.875 428.5 188 507 c 1,19,-1
 188 820 l 1,20,-1
 147 858 l 2,21,22
 109 893 109 893 80 914 c 2,23,-1
 55 932 l 1,24,-1
 89 1006 l 2,25,26
 105 1040 105 1040 118 1080 c 0,27,28
 128 1110 128 1110 128 1176 c 0,29,30
 128 1246 128 1246 153 1314.5 c 128,-1,31
 178 1383 178 1383 228.5 1430 c 128,-1,32
 279 1477 279 1477 310.5 1486.5 c 128,-1,33
 342 1496 342 1496 370.5 1496 c 128,-1,34
 399 1496 399 1496 448 1486 c 0,35,36
 548 1464 548 1464 586 1402 c 0,37,38
 600 1379 600 1379 600 1368 c 128,-1,39
 600 1357 600 1357 586 1330 c 0,40,41
 567 1294 567 1294 535 1294 c 0,42,43
 493 1294 493 1294 458 1319 c 0,44,45
 417 1348 417 1348 343 1348 c 1,46,47
 312 1348 312 1348 294.5 1334 c 128,-1,48
 277 1320 277 1320 268.5 1278 c 128,-1,49
 260 1236 260 1236 260 1226 c 2,50,-1
 260 1215 l 1,51,52
 260 1163 260 1163 284 1137 c 0,53,54
 353 1062 353 1062 431 1044 c 0,55,56
 472 1034 472 1034 506 1008 c 0,57,58
 548 976 548 976 548 948.5 c 128,-1,59
 548 921 548 921 537.5 910.5 c 128,-1,60
 527 900 527 900 482 890 c 0,61,62
 438 880 438 880 420 866 c 0,63,64
 376 831 376 831 376 758 c 0,65,66
 376 742 376 742 378 724 c 0,67,68
 392 612 392 612 392 320 c 1,69,-1
 392 140 l 1,70,-1
 429 96 l 2,71,72
 450 64 450 64 453 48 c 1,0,1
EndSplineSet
EndChar

StartChar: g
Encoding: 103 103 71
Width: 1091
GlyphClass: 2
Flags: W
HStem: -411 98<365.562 719> 996 122<363.324 588.097> 1079 20G<939.5 964>
VStem: 57 194<370.911 833.48> 122 198<-267.944 -110.667> 739 209<320.739 814.6> 783 202<-262.531 -48.2177>
LayerCount: 2
Fore
SplineSet
562 -411 m 5,0,1
 416 -406 416 -406 363.5 -406 c 132,-1,2
 311 -406 311 -406 253.5 -367 c 132,-1,3
 196 -328 196 -328 159 -280 c 132,-1,4
 122 -232 122 -232 122 -193.5 c 132,-1,5
 122 -155 122 -155 165 -112 c 132,-1,6
 208 -69 208 -69 241 -69 c 132,-1,7
 274 -69 274 -69 297 -99.5 c 132,-1,8
 320 -130 320 -130 320 -168 c 4,9,10
 320 -250 320 -250 401 -294 c 4,11,12
 436 -313 436 -313 472 -313 c 4,13,14
 633 -313 633 -313 679 -299 c 132,-1,15
 725 -285 725 -285 754 -243.5 c 132,-1,16
 783 -202 783 -202 783 -155 c 4,17,18
 783 -83 783 -83 703 -13 c 4,19,20
 654 30 654 30 500 48 c 4,21,22
 348 66 348 66 273 118 c 4,23,24
 249 135 249 135 196.5 189 c 132,-1,25
 144 243 144 243 114 304 c 4,26,27
 86 359 86 359 72 387 c 4,28,29
 57 417 57 417 57 471 c 4,30,31
 57 660 57 660 63 701.5 c 132,-1,32
 69 743 69 743 100.5 830 c 132,-1,33
 132 917 132 917 170 957 c 4,34,35
 266 1059 266 1059 407 1095 c 4,36,37
 495 1118 495 1118 527 1118 c 132,-1,38
 559 1118 559 1118 662.5 1077 c 132,-1,39
 766 1036 766 1036 780 1036 c 6,40,-1
 794 1036 l 6,41,42
 813 1036 813 1036 872 1067.5 c 132,-1,43
 931 1099 931 1099 948 1099 c 6,44,-1
 964 1099 l 5,45,46
 982 1112 982 1112 1011 1079 c 132,-1,47
 1040 1046 1040 1046 1040 1012 c 132,-1,48
 1040 978 1040 978 1034 970 c 132,-1,49
 1028 962 1028 962 990 944.5 c 132,-1,50
 952 927 952 927 928.5 901 c 132,-1,51
 905 875 905 875 905 849 c 132,-1,52
 905 823 905 823 926.5 720 c 132,-1,53
 948 617 948 617 948 578 c 6,54,-1
 948 530 l 5,55,56
 948 457 948 457 920.5 372 c 132,-1,57
 893 287 893 287 879.5 261 c 132,-1,58
 866 235 866 235 822.5 186 c 132,-1,59
 779 137 779 137 779 129 c 132,-1,60
 779 121 779 121 816 81 c 132,-1,61
 853 41 853 41 889.5 9 c 132,-1,62
 926 -23 926 -23 940.5 -43.5 c 132,-1,63
 955 -64 955 -64 970 -104 c 132,-1,64
 985 -144 985 -144 985 -160 c 6,65,-1
 985 -177 l 5,66,67
 985 -208 985 -208 964 -248 c 4,68,69
 943 -286 943 -286 911 -310 c 4,70,71
 857 -350 857 -350 790 -380 c 6,72,-1
 719 -411 l 5,73,-1
 562 -411 l 5,0,1
505 192 m 4,74,75
 509 192 509 192 512 192 c 4,76,77
 546 192 546 192 594 210 c 4,78,79
 651 231 651 231 682 287 c 4,80,81
 714 344 714 344 728 450 c 4,82,83
 739 533 739 533 739 595 c 4,84,85
 739 714 739 714 705 792 c 4,86,87
 651 916 651 916 568 966 c 4,88,89
 518 996 518 996 474 996 c 4,90,91
 443 996 443 996 415 982 c 4,92,93
 345 947 345 947 312.5 905 c 132,-1,94
 280 863 280 863 272 815 c 4,95,96
 265 769 265 769 256 711 c 4,97,98
 251 682 251 682 251 660 c 4,99,100
 251 651 251 651 252 643 c 4,101,102
 256 606 256 606 256 558 c 4,103,104
 256 465 256 465 283 399 c 4,105,106
 338 266 338 266 429 217 c 5,107,108
 474 192 474 192 505 192 c 4,74,75
EndSplineSet
Validated: 1
EndChar

StartChar: h
Encoding: 104 104 72
Width: 1119
GlyphClass: 2
Flags: W
HStem: 3 174<921.957 997.466> 1079 20G<675.5 714.5> 1512 20G<219.5 240.5>
VStem: 118 250<43.1891 413.964> 139 192<95.1565 793.011 1029.02 1393.94> 681 209<191.442 817.449> 707 199<395.329 926.743>
LayerCount: 2
Fore
SplineSet
329 1314 m 6,0,-1
 329 1184 l 6,1,2
 329 1060 329 1060 343 1028 c 132,-1,3
 357 996 357 996 383.5 996 c 132,-1,4
 410 996 410 996 500 1040.5 c 132,-1,5
 590 1085 590 1085 623 1092 c 132,-1,6
 656 1099 656 1099 695 1099 c 132,-1,7
 734 1099 734 1099 786 1073 c 4,8,9
 860 1036 860 1036 895 955 c 4,10,11
 906 929 906 929 906 844 c 4,12,13
 906 456 906 456 898 391 c 132,-1,14
 890 326 890 326 890 298 c 132,-1,15
 890 270 890 270 898.5 237.5 c 132,-1,16
 907 205 907 205 921.5 191 c 132,-1,17
 936 177 936 177 964.5 177 c 132,-1,18
 993 177 993 177 1027.5 160.5 c 132,-1,19
 1062 144 1062 144 1062 131 c 132,-1,20
 1062 118 1062 118 1038 88 c 132,-1,21
 1014 58 1014 58 992 43.5 c 132,-1,22
 970 29 970 29 922 16 c 132,-1,23
 874 3 874 3 857.5 3 c 132,-1,24
 841 3 841 3 803.5 14.5 c 132,-1,25
 766 26 766 26 735.5 57 c 132,-1,26
 705 88 705 88 693 128.5 c 132,-1,27
 681 169 681 169 681 388.5 c 132,-1,28
 681 608 681 608 694 704.5 c 132,-1,29
 707 801 707 801 707 818 c 4,30,31
 707 888 707 888 666 928 c 4,32,33
 644 949 644 949 601.5 949 c 132,-1,34
 559 949 559 949 537.5 932.5 c 132,-1,35
 516 916 516 916 478 889.5 c 132,-1,36
 440 863 440 863 418 843 c 4,37,38
 365 796 365 796 348 730 c 132,-1,39
 331 664 331 664 331 421.5 c 132,-1,40
 331 179 331 179 356 108 c 4,41,42
 368 74 368 74 368 61.5 c 132,-1,43
 368 49 368 49 367 43 c 4,44,45
 364 27 364 27 332 9 c 4,46,47
 298 -10 298 -10 258 -10 c 4,48,49
 229 -10 229 -10 198 0 c 4,50,51
 165 10 165 10 154 22 c 4,52,53
 118 61 118 61 118 95 c 4,54,55
 118 100 118 100 119 106 c 4,56,57
 129 162 129 162 134 266 c 132,-1,58
 139 370 139 370 139 483 c 5,59,-1
 139 669 l 5,60,-1
 139 992 l 5,61,62
 136 1178 136 1178 136 1245 c 4,63,64
 136 1359 136 1359 71 1422 c 4,65,66
 54 1438 54 1438 54 1447 c 4,67,68
 54 1454 54 1454 62 1467 c 4,69,70
 87 1506 87 1506 177 1525 c 4,71,72
 209 1532 209 1532 230 1532 c 132,-1,73
 251 1532 251 1532 275 1516 c 4,74,75
 312 1492 312 1492 320.5 1456.5 c 132,-1,76
 329 1421 329 1421 329 1314 c 6,0,-1
EndSplineSet
Validated: 1
EndChar

StartChar: i
Encoding: 105 105 73
Width: 594
GlyphClass: 2
Flags: W
HStem: 1085 20G<182 266.5> 1283 197<186.318 341.736>
VStem: 155 215<245.364 936.554 1314.25 1447.14> 179 198<245.469 919.849>
LayerCount: 2
Fore
SplineSet
510 74 m 132,-1,1
 480 44 480 44 438.5 37 c 132,-1,2
 397 30 397 30 382 17 c 132,-1,3
 367 4 367 4 340 4 c 132,-1,4
 313 4 313 4 271 22.5 c 132,-1,5
 229 41 229 41 211.5 57.5 c 132,-1,6
 194 74 194 74 171 114 c 5,7,-1
 155 155 l 5,8,-1
 155 348 l 5,9,10
 155 544 155 544 167 653 c 132,-1,11
 179 762 179 762 179 784 c 6,12,-1
 179 805 l 5,13,14
 179 910 179 910 98 942 c 4,15,16
 54 959 54 959 54 980 c 6,17,-1
 54 985 l 5,18,19
 54 996 54 996 70 1016 c 4,20,21
 140 1105 140 1105 224 1105 c 5,22,-1
 226 1105 l 6,23,24
 307 1105 307 1105 357 1030 c 4,25,26
 377 1001 377 1001 377 955.5 c 132,-1,27
 377 910 377 910 377 793.5 c 132,-1,28
 377 677 377 677 370 636 c 4,29,30
 364 602 364 602 364 581 c 4,31,32
 364 574 364 574 366 558 c 4,33,34
 370 525 370 525 370 440 c 4,35,36
 370 418 l 4,37,38
 369 417 369 417 369 407 c 4,39,40
 369 303 369 303 378 296 c 4,41,42
 388 274 388 274 408 252 c 4,43,44
 431 227 431 227 455 222 c 4,45,46
 480 217 480 217 510 188 c 132,-1,47
 540 159 540 159 540 131.5 c 132,-1,0
 540 104 540 104 510 74 c 132,-1,1
212.5 1304.5 m 132,-1,49
 177 1326 177 1326 167 1372 c 4,50,51
 164 1388 164 1388 164 1401 c 4,52,53
 164 1428 164 1428 176 1448 c 4,54,55
 195 1480 195 1480 209 1480 c 4,56,57
 266 1480 266 1480 320.5 1450 c 132,-1,58
 375 1420 375 1420 375 1370 c 4,59,60
 375 1343 375 1343 353.5 1318 c 132,-1,61
 332 1293 332 1293 321 1288 c 132,-1,62
 310 1283 310 1283 279 1283 c 132,-1,48
 248 1283 248 1283 212.5 1304.5 c 132,-1,49
EndSplineSet
Validated: 1
EndChar

StartChar: j
Encoding: 106 106 74
Width: 470
GlyphClass: 2
Flags: W
HStem: 1293 210<182.241 273.813 274.125 319.561>
VStem: 146 212<1336.34 1463.38> 206 210<-106.695 532.609> 206 194<-272.967 867.065>
LayerCount: 2
Fore
SplineSet
400 895 m 5,0,-1
 400 698 l 6,1,2
 406 611 406 611 406 535 c 4,3,4
 406 458 406 458 416 444 c 6,5,-1
 416 228 l 5,6,7
 416 -84 416 -84 413 -107.5 c 132,-1,8
 410 -131 410 -131 402 -157 c 5,9,-1
 402 -179 l 6,10,11
 402 -201 402 -201 395 -221.5 c 132,-1,12
 388 -242 388 -242 350 -290 c 132,-1,13
 312 -338 312 -338 262 -371.5 c 132,-1,14
 212 -405 212 -405 196 -405 c 132,-1,15
 180 -405 180 -405 158 -387 c 132,-1,16
 136 -369 136 -369 136 -350.5 c 132,-1,17
 136 -332 136 -332 161 -273 c 132,-1,18
 186 -214 186 -214 193 -173.5 c 132,-1,19
 200 -133 200 -133 200 -70 c 132,-1,20
 200 -7 200 -7 203 15.5 c 132,-1,21
 206 38 206 38 206 439.5 c 132,-1,22
 206 841 206 841 196 868 c 4,23,24
 172 938 172 938 140 958 c 4,25,26
 121 970 121 970 87.5 977 c 132,-1,27
 54 984 54 984 54 1014 c 4,28,29
 54 1023 54 1023 54 1027 c 4,30,31
 62 1048 62 1048 114 1084 c 132,-1,32
 166 1120 166 1120 198 1126 c 4,33,34
 226 1131 226 1131 250 1131 c 4,35,36
 302 1131 302 1131 331 1098.5 c 132,-1,37
 360 1066 360 1066 384 1025 c 6,38,-1
 400 996 l 5,39,-1
 400 895 l 5,0,-1
266 1293 m 4,40,41
 258 1293 258 1293 242 1298 c 4,42,43
 210 1309 210 1309 182 1338 c 4,44,45
 152 1370 152 1370 146 1402 c 4,46,47
 146 1407 146 1407 146 1412 c 4,48,49
 146 1447 146 1447 180 1480 c 4,50,51
 204 1503 204 1503 224 1503 c 4,52,53
 226 1503 226 1503 228 1503 c 4,54,55
 256 1503 256 1503 294 1479 c 4,56,57
 348 1444 348 1444 358 1375 c 4,58,59
 358 1368 358 1368 358 1362 c 5,60,61
 358 1347 358 1347 354 1336 c 4,62,63
 342 1313 342 1313 320 1301 c 4,64,65
 306 1293 306 1293 284 1293 c 4,66,67
 278 1293 278 1293 274 1292 c 5,68,69
 268 1293 268 1293 266 1293 c 4,40,41
EndSplineSet
Validated: 1
EndChar

StartChar: k
Encoding: 107 107 75
Width: 1163
GlyphClass: 2
Flags: W
HStem: 0 136<939 1056.03> 401 137<355.875 479.626> 1088 20G<823.5 884.5>
VStem: 113 231<19.0802 231.557 538.017 1335.58> 126 190<16.5 361.849> 742 283<920.321 1070.19>
LayerCount: 2
Fore
SplineSet
369.5 369 m 132,-1,1
 356 360 356 360 337.5 330.5 c 132,-1,2
 319 301 319 301 317.5 290 c 132,-1,3
 316 279 316 279 316 233 c 132,-1,4
 316 187 316 187 330 119.5 c 132,-1,5
 344 52 344 52 344 45 c 6,6,-1
 344 32 l 6,7,8
 344 27 344 27 327 13.5 c 132,-1,9
 310 0 310 0 243 0 c 132,-1,10
 176 0 176 0 152.5 18.5 c 132,-1,11
 129 37 129 37 120 64 c 4,12,13
 113 85 113 85 113 108 c 4,14,15
 113 126 113 126 117 144 c 4,16,17
 126 185 126 185 126 488 c 4,18,19
 126 508 126 508 126 530 c 4,20,21
 125 872 125 872 125 1028 c 132,-1,22
 125 1184 125 1184 114 1243 c 4,23,24
 102 1307 102 1307 79 1326 c 4,25,26
 51 1349 51 1349 51 1362 c 5,27,-1
 51 1366 l 5,28,29
 51 1385 51 1385 70 1403.5 c 132,-1,30
 89 1422 89 1422 126 1436 c 4,31,32
 168 1452 168 1452 190 1471 c 4,33,34
 217 1493 217 1493 243 1493 c 4,35,36
 265 1493 265 1493 286 1476 c 132,-1,37
 307 1459 307 1459 318 1424 c 4,38,39
 331 1383 331 1383 332.5 1009.5 c 132,-1,40
 334 636 334 636 334 606 c 4,41,42
 334 538 334 538 390 538 c 4,43,44
 448 538 448 538 557 654 c 4,45,46
 652 755 652 755 697 860 c 132,-1,47
 742 965 742 965 742 986 c 4,48,49
 742 989 742 989 741 990 c 4,50,51
 722 1027 722 1027 722 1051 c 4,52,53
 722 1076 722 1076 744 1086 c 4,54,55
 793 1108 793 1108 854 1108 c 132,-1,56
 915 1108 915 1108 947 1102.5 c 132,-1,57
 979 1097 979 1097 1002 1072 c 132,-1,58
 1025 1047 1025 1047 1025 1030.5 c 132,-1,59
 1025 1014 1025 1014 1024 1007 c 4,60,61
 1019 971 1019 971 942 863 c 132,-1,62
 865 755 865 755 821.5 706.5 c 132,-1,63
 778 658 778 658 764 644 c 4,64,65
 708 583 708 583 708 533 c 4,66,67
 708 506 708 506 724.5 472 c 132,-1,68
 741 438 741 438 782.5 353 c 132,-1,69
 824 268 824 268 846 232 c 4,70,71
 866 198 866 198 898 168 c 6,72,-1
 939 136 l 5,73,-1
 1003 136 l 5,74,75
 1069 136 1069 136 1088.5 125 c 132,-1,76
 1108 114 1108 114 1108 105 c 4,77,78
 1108 77 1108 77 1062 48 c 4,79,80
 986 0 986 0 899 0 c 5,81,82
 791 0 791 0 742 36 c 132,-1,83
 693 72 693 72 671.5 138.5 c 132,-1,84
 650 205 650 205 608.5 283 c 132,-1,85
 567 361 567 361 543 381 c 132,-1,86
 519 401 519 401 509 401 c 6,87,-1
 497 401 l 6,88,89
 476 401 476 401 429.5 389.5 c 132,-1,0
 383 378 383 378 369.5 369 c 132,-1,1
EndSplineSet
Validated: 1
EndChar

StartChar: l
Encoding: 108 108 76
Width: 551
GlyphClass: 2
Flags: W
HStem: -0 127<355.141 449.493> 1456 20G<175.75 203.25>
VStem: 100 202<172.672 1340.01>
LayerCount: 2
Fore
SplineSet
302 1184 m 5,0,-1
 302 1050 l 5,1,2
 312 873 312 873 312 574 c 132,-1,3
 312 275 312 275 328 237 c 4,4,5
 334 181 334 181 354.5 162.5 c 132,-1,6
 375 144 375 144 399 138.5 c 132,-1,7
 423 133 423 133 443 127 c 4,8,9
 484 115 484 115 491 101 c 4,10,11
 491 100 491 100 492.5 94 c 132,-1,12
 494 88 494 88 469 62 c 4,13,14
 409 0 409 0 318 -0 c 4,15,16
 259 0 259 0 224 17 c 4,17,18
 100 77 100 77 100 329 c 5,19,-1
 100 664 l 5,20,-1
 100 869 l 5,21,22
 102 968 102 968 104 1099 c 4,23,24
 105 1184 105 1184 105 1224 c 4,25,26
 105 1257 105 1257 74 1306 c 4,27,28
 46 1351 46 1351 46 1383 c 4,29,30
 46 1408 46 1408 64 1424 c 4,31,32
 87 1445 87 1445 124 1460 c 4,33,34
 162 1476 162 1476 189.5 1476 c 132,-1,35
 217 1476 217 1476 243.5 1454 c 132,-1,36
 270 1432 270 1432 282 1399 c 4,37,38
 302 1344 302 1344 302 1184 c 5,0,-1
EndSplineSet
Validated: 1
EndChar

StartChar: m
Encoding: 109 109 77
Width: 1688
GlyphClass: 2
Flags: W
HStem: 977 136<495.468 682.525 1100.17 1264.54>
VStem: 168 214<68.6562 886.295> 742 196<18.3193 857.698> 1279 205<181.301 821.902>
LayerCount: 2
Fore
SplineSet
168 585 m 1,0,-1
 168 617 l 1,1,-1
 168 816 l 2,2,3
 168 861 168 861 158 888 c 128,-1,4
 148 915 148 915 138 925.5 c 128,-1,5
 128 936 128 936 100 955 c 0,6,7
 56 985 56 985 56 1003 c 0,8,9
 56 1015 56 1015 60 1031 c 0,10,11
 70 1074 70 1074 146 1095 c 0,12,13
 187 1106 187 1106 205.5 1106 c 128,-1,14
 224 1106 224 1106 249 1099.5 c 128,-1,15
 274 1093 274 1093 326 1047.5 c 128,-1,16
 378 1002 378 1002 390 1002 c 128,-1,17
 402 1002 402 1002 452 1039 c 128,-1,18
 502 1076 502 1076 542 1094.5 c 128,-1,19
 582 1113 582 1113 642 1113 c 128,-1,20
 702 1113 702 1113 736 1104.5 c 128,-1,21
 770 1096 770 1096 834 1050 c 128,-1,22
 898 1004 898 1004 920 999.5 c 128,-1,23
 942 995 942 995 959 995 c 128,-1,24
 976 995 976 995 1020 1018 c 128,-1,25
 1064 1041 1064 1041 1093 1063 c 128,-1,26
 1122 1085 1122 1085 1146 1092 c 128,-1,27
 1170 1099 1170 1099 1231 1099 c 128,-1,28
 1292 1099 1292 1099 1306 1096 c 128,-1,29
 1320 1093 1320 1093 1348 1078 c 0,30,31
 1400 1050 1400 1050 1444 951 c 0,32,33
 1484 861 1484 861 1484 339 c 0,34,35
 1484 271 1484 271 1500 228 c 128,-1,36
 1516 185 1516 185 1537 171.5 c 128,-1,37
 1558 158 1558 158 1597 141 c 128,-1,38
 1636 124 1636 124 1636 102 c 0,39,40
 1636 94 1636 94 1627 82 c 0,41,42
 1619 71 1619 71 1558 42 c 0,43,44
 1481 6 1481 6 1449.5 6 c 128,-1,45
 1418 6 1418 6 1414 8 c 0,46,47
 1388 21 1388 21 1376 32.5 c 0,48,49
 1334 72 1334 72 1313 113 c 0,50,51
 1279 176.641025641 1279 176.641025641 1279 586.5 c 6,52,-1
 1279 644.5 l 2,53,54
 1279 682 1279 682 1293 735 c 128,-1,55
 1307 788 1307 788 1307 823 c 128,-1,56
 1307 858 1307 858 1289 893.5 c 0,57,58
 1272 928 1272 928 1257 941.5 c 0,59,60
 1220 976 1220 976 1174.5 974.75 c 0,61,62
 1116 974 1116 974 1030 905 c 0,63,64
 1005 885 1005 885 992 869 c 0,65,66
 968 842 968 842 962 821 c 0,67,68
 947 766 947 766 944 753 c 0,69,70
 938 721 938 721 938 643 c 1,71,72
 932 612 932 612 935.5 494 c 128,-1,73
 939 376 939 376 938 224 c 1,74,-1
 938 81 l 2,75,76
 938 49 938 49 930 27.5 c 128,-1,77
 922 6 922 6 854 6 c 0,78,79
 767 6 767 6 732 66 c 0,80,-1
 731.5 113 l 0,81,82
 730 124 730 124 731 131 c 0,83,84
 736 167 736 167 736 334 c 0,85,86
 736 499 736 499 742 527 c 1,87,88
 742 632 742 632 742 680 c 128,-1,89
 742 728 742 728 742 764.5 c 128,-1,90
 742 801 742 801 720 863.5 c 128,-1,91
 698 926 698 926 683 943 c 128,-1,92
 668 960 668 960 629 968.5 c 128,-1,93
 590 977 590 977 573 977 c 128,-1,94
 556 977 556 977 539 971 c 128,-1,95
 522 965 522 965 452 910.5 c 128,-1,96
 382 856 382 856 382 752 c 2,97,-1
 382 602 l 1,98,-1
 388 508 l 1,99,-1
 392 391 l 1,100,101
 392 354 392 354 390.5 327 c 128,-1,102
 389 300 389 300 389 203 c 128,-1,103
 389 106 389 106 380 76 c 128,-1,104
 371 46 371 46 347 26 c 128,-1,105
 323 6 323 6 312 6 c 128,-1,106
 301 6 301 6 271 23 c 0,107,108
 239 40 239 40 231 47 c 0,109,110
 202 73 202 73 199 114 c 0,111,112
 188 247 188 247 181 336.5 c 0,113,114
 170 480 170 480 169 502 c 0,115,116
 168 544 168 544 168 585 c 1,0,-1
EndSplineSet
Validated: 33
EndChar

StartChar: n
Encoding: 110 110 78
Width: 1194
GlyphClass: 2
Flags: W
HStem: 0 21G<316.75 384.25> 1084 20G<255 281>
VStem: 212 221<22.0391 638.708> 225 192<18.2524 810.192> 779 200<234 940.202>
LayerCount: 2
Fore
SplineSet
981 768 m 5,0,-1
 981 624 l 6,1,2
 979 619 979 619 979 465 c 5,3,-1
 979 234 l 5,4,-1
 1005 200 l 6,5,6
 1027 167 1027 167 1076.5 141.5 c 132,-1,7
 1126 116 1126 116 1132 110 c 132,-1,8
 1138 104 1138 104 1138 98 c 4,9,10
 1138 75 1138 75 1077 33 c 4,11,12
 1015 -10 1015 -10 939 -10 c 4,13,14
 929 -10 929 -10 893 2 c 132,-1,15
 857 14 857 14 827 54.5 c 132,-1,16
 797 95 797 95 788 142 c 132,-1,17
 779 189 779 189 779 310 c 6,18,-1
 779 456 l 6,19,20
 787 633 787 633 787 733 c 4,21,22
 787 958 787 958 686 958 c 4,23,24
 644 958 644 958 576.5 918.5 c 132,-1,25
 509 879 509 879 464 814 c 4,26,27
 443 784 443 784 437 763 c 4,28,29
 417 693 417 693 417 356 c 6,30,-1
 417 231 l 6,31,32
 417 142 417 142 425 120.5 c 132,-1,33
 433 99 433 99 433 80 c 6,34,-1
 433 56 l 6,35,36
 433 30 433 30 425 14 c 4,37,38
 418 0 418 0 350.5 0 c 132,-1,39
 283 0 283 0 262 17 c 4,40,41
 212 57 212 57 212 107 c 4,42,43
 212 119 212 119 217.5 141 c 132,-1,44
 223 163 223 163 223 260 c 6,45,-1
 225 455 l 5,46,-1
 225 710 l 5,47,48
 225 851 225 851 209.5 886.5 c 132,-1,49
 194 922 194 922 185.5 926.5 c 132,-1,50
 177 931 177 931 139 931 c 4,51,52
 52 931 52 931 52 970 c 4,53,54
 52 1000 52 1000 112 1049 c 4,55,56
 134 1067 134 1067 188 1085.5 c 132,-1,57
 242 1104 242 1104 268 1104 c 132,-1,58
 294 1104 294 1104 351 1054 c 132,-1,59
 408 1004 408 1004 427 998.5 c 132,-1,60
 446 993 446 993 454 993 c 4,61,62
 496 993 496 993 537.5 1028 c 132,-1,63
 579 1063 579 1063 649 1088.5 c 132,-1,64
 719 1114 719 1114 758 1114 c 132,-1,65
 797 1114 797 1114 854.5 1075 c 132,-1,66
 912 1036 912 1036 934 996 c 132,-1,67
 956 956 956 956 968.5 882 c 132,-1,68
 981 808 981 808 981 768 c 5,0,-1
EndSplineSet
Validated: 1
EndChar

StartChar: o
Encoding: 111 111 79
Width: 1015
GlyphClass: 2
Flags: W
HStem: -19 144<411.261 666.586> 949 153<356.59 608.666>
VStem: 56 190<346.955 792.502> 745 214<286.25 766.277>
LayerCount: 2
Fore
SplineSet
790.5 87 m 132,-1,1
 735 35 735 35 683.5 9 c 132,-1,2
 632 -17 632 -17 568.5 -18 c 132,-1,3
 505 -19 505 -19 453 -19 c 132,-1,4
 401 -19 401 -19 361 -6 c 132,-1,5
 321 7 321 7 266 44 c 132,-1,6
 211 81 211 81 197 97.5 c 132,-1,7
 183 114 183 114 161 165.5 c 132,-1,8
 139 217 139 217 116 252.5 c 132,-1,9
 93 288 93 288 74.5 384.5 c 132,-1,10
 56 481 56 481 56 528.5 c 132,-1,11
 56 576 56 576 56.5 630.5 c 132,-1,12
 57 685 57 685 68 705 c 132,-1,13
 79 725 79 725 88 775 c 4,14,15
 106 869 106 869 191.5 949 c 132,-1,16
 277 1029 277 1029 309.5 1050 c 132,-1,17
 342 1071 342 1071 419 1086.5 c 132,-1,18
 496 1102 496 1102 540 1102 c 6,19,-1
 542 1102 l 6,20,21
 586 1102 586 1102 637.5 1083 c 132,-1,22
 689 1064 689 1064 712.5 1047.5 c 132,-1,23
 736 1031 736 1031 782.5 983.5 c 132,-1,24
 829 936 829 936 849 908 c 132,-1,25
 869 880 869 880 887 838 c 4,26,27
 959 671 959 671 959 532 c 4,28,29
 959 487 959 487 950 415.5 c 132,-1,30
 941 344 941 344 923.5 306 c 132,-1,31
 906 268 906 268 906 257.5 c 132,-1,32
 906 247 906 247 876 193 c 132,-1,0
 846 139 846 139 790.5 87 c 132,-1,1
714 238 m 4,33,34
 723 260 723 260 734 387 c 132,-1,35
 745 514 745 514 745 552.5 c 132,-1,36
 745 591 745 591 744 628 c 4,37,38
 742 717 742 717 679.5 812 c 132,-1,39
 617 907 617 907 580.5 928 c 132,-1,40
 544 949 544 949 511 949 c 132,-1,41
 478 949 478 949 441 945 c 4,42,43
 362 937 362 937 314 845 c 4,44,45
 291 801 291 801 281.5 760.5 c 132,-1,46
 272 720 272 720 259 628 c 132,-1,47
 246 536 246 536 246 505 c 132,-1,48
 246 474 246 474 251.5 443 c 132,-1,49
 257 412 257 412 311 303 c 4,50,51
 400 125 400 125 533.5 125 c 132,-1,52
 667 125 667 125 714 238 c 4,33,34
EndSplineSet
Validated: 1
EndChar

StartChar: q
Encoding: 113 113 80
Width: 992
GlyphClass: 2
Flags: W
HStem: -410 21G<763 870> 0 166<351.22 554.699> 995 126<394.478 611.83>
VStem: 55 190<304.445 788.432> 650 288<-400.621 -262.176> 683 204<-252 80.5625 253.668 540.906 541.322 928.396>
LayerCount: 2
Fore
SplineSet
938 -361 m 4,0,1
 938 -410 938 -410 802 -410 c 4,2,3
 724 -410 724 -410 685 -402 c 4,4,5
 650 -395 650 -395 650 -341 c 4,6,7
 650 -321 650 -321 667 -282 c 4,8,9
 683 -245 683 -245 683 -132 c 4,10,11
 683 -125 l 4,12,13
 682 -119 682 -119 682 16 c 4,14,15
 682 40 682 40 667 59 c 132,-1,16
 652 78 652 78 636 81 c 132,-1,17
 620 84 620 84 599 68 c 4,18,19
 576 51 576 51 506 26 c 4,20,21
 433 0 433 0 408 0 c 4,22,23
 380 0 380 0 329 16 c 4,24,25
 277 32 277 32 254 46 c 4,26,27
 232 59 232 59 191 100 c 4,28,29
 149 142 149 142 115 208 c 4,30,31
 88 261 88 261 71 302 c 4,32,33
 66 315 66 315 60 430 c 4,34,35
 56 510 56 510 56 566 c 4,36,37
 55 580 55 580 55 593 c 4,38,39
 55 616 55 616 60 658 c 4,40,41
 65 698 65 698 80 744 c 4,42,43
 91 776 91 776 132 851 c 4,44,45
 221 1012 221 1012 364 1084 c 4,46,47
 419 1111 419 1111 438 1116 c 4,48,49
 459 1121 459 1121 505 1121 c 6,50,-1
 510 1121 l 5,51,52
 583 1121 583 1121 626 1099 c 4,53,54
 668 1077 668 1077 688 1077 c 4,55,56
 705 1076 705 1076 722 1076 c 4,57,58
 736 1076 736 1076 768 1092 c 4,59,60
 814 1115 814 1115 837 1115 c 4,61,62
 854 1115 854 1115 860 1103 c 4,63,64
 876 1073 876 1073 876 729 c 5,65,-1
 876 687 l 5,66,67
 887 653 887 653 887 202 c 5,68,-1
 887 -252 l 5,69,-1
 921 -304 l 6,70,71
 938 -344 938 -344 938 -361 c 4,0,1
532 175 m 4,72,73
 575 185 575 185 610 220 c 4,74,75
 649 259 649 259 670 310 c 4,76,77
 677 327 677 327 688 374 c 4,78,79
 694 383 694 383 694 477 c 4,80,81
 694 526 694 526 696 532 c 132,-1,82
 698 538 698 538 695 541 c 4,83,84
 689 550 689 550 689 725 c 4,85,86
 682 749 682 749 682 826 c 4,87,88
 682 862 682 862 667 888 c 4,89,90
 645 925 645 925 640 930 c 4,91,92
 625 943 625 943 592 963 c 4,93,94
 557 984 557 984 536 990 c 4,95,96
 518 995 518 995 463 995 c 4,97,98
 409 995 409 995 394 991 c 132,-1,99
 379 987 379 987 359 965 c 4,100,101
 332 935 332 935 324 936 c 5,102,103
 314 936 314 936 296 896 c 4,104,105
 277 853 277 853 277 825 c 132,-1,106
 277 797 277 797 258 743 c 4,107,108
 245 705 245 705 245 675 c 4,109,110
 245 666 245 666 246 658 c 4,111,112
 247 651 247 651 247.5 625 c 132,-1,113
 248 599 248 599 248 578 c 4,114,115
 248 407 248 407 274 353 c 5,116,117
 295 270 295 270 341 221 c 4,118,119
 380 179 380 179 422 170 c 4,120,121
 440 166 440 166 460 166 c 4,122,123
 493 166 493 166 532 175 c 4,72,73
EndSplineSet
Validated: 1
EndChar

StartChar: r
Encoding: 114 114 81
Width: 894
GlyphClass: 2
Flags: W
HStem: 0 153<439.958 581.562> 925 85<435 577>
VStem: 193 212<187.113 825.803> 211 202<246.188 837.754>
LayerCount: 2
Fore
SplineSet
412 1006 m 5,0,-1
 435 1010 l 5,1,2
 450 1010 450 1010 511 1050.5 c 132,-1,3
 572 1091 572 1091 596.5 1099.5 c 132,-1,4
 621 1108 621 1108 640 1108 c 5,5,-1
 672 1108 l 6,6,7
 708 1108 708 1108 762.5 1054 c 132,-1,8
 817 1000 817 1000 829.5 961.5 c 132,-1,9
 842 923 842 923 842 909 c 132,-1,10
 842 895 842 895 825 856 c 132,-1,11
 808 817 808 817 778 817 c 4,12,13
 777 817 777 817 776 817 c 4,14,15
 746 817 746 817 684 871 c 132,-1,16
 622 925 622 925 577 925 c 132,-1,17
 532 925 532 925 488.5 876.5 c 132,-1,18
 445 828 445 828 429 783.5 c 132,-1,19
 413 739 413 739 413 593.5 c 132,-1,20
 413 448 413 448 405 400 c 5,21,-1
 405 341 l 6,22,23
 405 256 405 256 424 222 c 5,24,25
 458 153 458 153 544 153 c 4,26,27
 579 153 579 153 593.5 148 c 132,-1,28
 608 143 608 143 623 127 c 6,29,-1
 648 101 l 5,30,-1
 626 77 l 5,31,32
 553 0 553 0 353 0 c 4,33,34
 294 0 294 0 244 62 c 4,35,36
 219 93 219 93 206 130 c 132,-1,37
 193 167 193 167 193 226 c 4,38,39
 193 286 193 286 193 294 c 6,40,-1
 193 417 l 6,41,42
 193 610 193 610 202 693 c 132,-1,43
 211 776 211 776 211 789 c 6,44,-1
 211 812 l 6,45,46
 211 821 211 821 193.5 857.5 c 132,-1,47
 176 894 176 894 162.5 902.5 c 132,-1,48
 149 911 149 911 108 919.5 c 132,-1,49
 67 928 67 928 59 944 c 132,-1,50
 51 960 51 960 51 976 c 4,51,52
 51 1018 51 1018 95.5 1052 c 132,-1,53
 140 1086 140 1086 157 1092.5 c 132,-1,54
 174 1099 174 1099 211.5 1099 c 132,-1,55
 249 1099 249 1099 268 1090.5 c 132,-1,56
 287 1082 287 1082 340 1044 c 132,-1,57
 393 1006 393 1006 412 1006 c 5,0,-1
EndSplineSet
Validated: 1
EndChar

StartChar: s
Encoding: 115 115 82
Width: 866
GlyphClass: 2
Flags: W
HStem: 1 147<284.571 566.103> 986 113<285.634 535.314>
VStem: 614 197<195.598 421.442>
LayerCount: 2
Fore
SplineSet
62 305 m 4,0,1
 62 368 62 368 122 368 c 4,2,3
 141 368 141 368 150 360 c 4,4,5
 157 354 157 354 206 278 c 4,6,7
 254 205 254 205 283 184 c 4,8,9
 333 148 333 148 419 148 c 5,10,-1
 445 148 l 6,11,12
 531 148 531 148 572.5 199 c 132,-1,13
 614 250 614 250 614 282 c 4,14,15
 614 399 614 399 539.5 447 c 132,-1,16
 465 495 465 495 366 515.5 c 132,-1,17
 267 536 267 536 245 551.5 c 132,-1,18
 223 567 223 567 197 578 c 132,-1,19
 171 589 171 589 139.5 621.5 c 132,-1,20
 108 654 108 654 96 675 c 4,21,22
 83 697 83 697 72 742 c 6,23,-1
 55 811 l 5,24,-1
 74 868 l 6,25,26
 123 1013 123 1013 240 1066 c 4,27,28
 314 1099 314 1099 413 1099 c 4,29,30
 586 1099 586 1099 673 1015 c 4,31,32
 716 973 716 973 716 938 c 4,33,34
 716 935 716 935 716 932 c 4,35,36
 714 913 714 913 703 890 c 4,37,38
 691 864 691 864 675 864 c 4,39,40
 635 864 635 864 596 897 c 4,41,42
 491 986 491 986 408 986 c 4,43,44
 357 986 357 986 305 955 c 4,45,46
 229 910 229 910 229 839 c 132,-1,47
 229 768 229 768 329 712 c 4,48,49
 347 702 347 702 433.5 683.5 c 132,-1,50
 520 665 520 665 607.5 617.5 c 132,-1,51
 695 570 695 570 735.5 511 c 132,-1,52
 776 452 776 452 788.5 436 c 132,-1,53
 801 420 801 420 806 399 c 132,-1,54
 811 378 811 378 811 313 c 132,-1,55
 811 248 811 248 804.5 217 c 132,-1,56
 798 186 798 186 773 152 c 4,57,58
 715 73 715 73 635 31 c 4,59,60
 614 20 614 20 546 10 c 4,61,62
 487 1 487 1 437 1 c 4,63,64
 394 2 394 2 356 8 c 4,65,66
 275 22 275 22 237 43 c 132,-1,67
 199 64 199 64 160 100.5 c 132,-1,68
 121 137 121 137 105.5 163.5 c 132,-1,69
 90 190 90 190 76 234.5 c 132,-1,70
 62 279 62 279 62 305 c 4,0,1
EndSplineSet
Validated: 1
EndChar

StartChar: t
Encoding: 116 116 83
Width: 582
GlyphClass: 2
Flags: W
HStem: 1 164<367.105 483.313>
VStem: 132 182<258.765 861>
LayerCount: 2
Fore
SplineSet
321 1 m 2,0,1
 158 1 158 1 140 170 c 0,2,3
 132 245 132 245 132 498 c 0,4,5
 132 749 132 749 142 829 c 1,6,7
 143 850 143 850 132 880 c 128,-1,8
 121 910 121 910 101 919.5 c 128,-1,9
 81 929 81 929 67 951 c 128,-1,10
 53 973 53 973 53 978 c 2,11,-1
 53 983 l 2,12,13
 53 989 53 989 78 1018 c 0,14,15
 105 1048 105 1048 122 1084 c 0,16,17
 167 1181 167 1181 202 1181 c 0,18,19
 245 1181 245 1181 289 1139 c 0,20,21
 351 1080 351 1080 407 1053 c 0,22,23
 459 1028 459 1028 459 986 c 0,24,25
 459 957 459 957 444.5 946 c 128,-1,26
 430 935 430 935 398 926 c 0,27,28
 367 918 367 918 341 890 c 2,29,-1
 314 861 l 1,30,-1
 314 556 l 1,31,32
 314 312 314 312 339 257 c 0,33,34
 381 165 381 165 442 165 c 0,35,36
 467 165 467 165 489.5 145 c 128,-1,37
 512 125 512 125 512 104.5 c 128,-1,38
 512 84 512 84 485 47.5 c 128,-1,39
 458 11 458 11 432 6 c 128,-1,40
 406 1 406 1 371 1 c 2,41,-1
 321 1 l 2,0,1
EndSplineSet
EndChar

